<svg id="Layer_1" data-name="Layer 1" xmlns="http://www.w3.org/2000/svg" viewBox="0 0 822 374"><defs><style>.cls-1{fill:#fff;}</style></defs><path class="cls-1" d="M393.09,214.58a25.14,25.14,0,0,1-11.69,9,47.23,47.23,0,0,1-17.46,3,33.82,33.82,0,0,1-17.88-4.72A31.48,31.48,0,0,1,334,208.36a46.35,46.35,0,0,1-4.38-20.21V181q0-18.61,8.68-28.86t24.43-10.24q12.9,0,20.77,6.59t9.62,18.7H382.22q-3.06-16.41-19.47-16.41-10.92,0-16.55,7.68t-5.69,22.23v6.74q0,13.88,6.34,22.06T364,217.64a37.58,37.58,0,0,0,10.69-1.36,16.55,16.55,0,0,0,7.59-4.57V193.25H363.2v-8.89h29.89Z"/><path class="cls-1" d="M436.26,173.55a31.85,31.85,0,0,0-5.15-.4q-10.31,0-14,8.78v43.46H406.66V164.15h10.19l.17,7.08q5.14-8.21,14.6-8.21a10.65,10.65,0,0,1,4.64.8Z"/><path class="cls-1" d="M478.52,225.39a22.26,22.26,0,0,1-1.47-6.45,23.32,23.32,0,0,1-17.43,7.58q-9.06,0-14.86-5.12a16.58,16.58,0,0,1-5.8-13q0-9.56,7.28-14.85t20.46-5.3h10.18v-4.81a11.74,11.74,0,0,0-3.28-8.74q-3.28-3.26-9.68-3.25a15.23,15.23,0,0,0-9.39,2.83,8.32,8.32,0,0,0-3.79,6.84H440.21a14.44,14.44,0,0,1,3.25-8.85,22.26,22.26,0,0,1,8.83-6.77A29.71,29.71,0,0,1,464.54,163q10.59,0,16.59,5.29t6.22,14.58v28.18q0,8.44,2.15,13.42v.9Zm-17.37-8a18.42,18.42,0,0,0,9.34-2.55,15.34,15.34,0,0,0,6.39-6.62V195.68h-8.2q-19.24,0-19.25,11.26a9.54,9.54,0,0,0,3.29,7.7A12.57,12.57,0,0,0,461.15,217.41Z"/><path class="cls-1" d="M510.77,164.15l.34,7.7A22.33,22.33,0,0,1,529.45,163q19.41,0,19.58,21.91v40.46H538.56V184.87q-.06-6.63-3-9.79t-9.25-3.17a15.09,15.09,0,0,0-8.94,2.71,18.42,18.42,0,0,0-6,7.14v43.63H500.87V164.15Z"/><path class="cls-1" d="M576.13,149.33v14.82h11.43v8.1H576.13v38a8.5,8.5,0,0,0,1.53,5.53c1,1.22,2.75,1.84,5.2,1.84a25.52,25.52,0,0,0,5-.68v8.44a30.46,30.46,0,0,1-8,1.12q-7,0-10.59-4.24t-3.56-12.06v-38H554.51v-8.1h11.15V149.33Z"/><path class="cls-1" d="M661.86,225.39H650.94l-41.49-63.5v63.5H598.53V143h10.92l41.6,63.78V143h10.81Z"/><path class="cls-1" d="M714.43,225.39a21.6,21.6,0,0,1-1.47-6.45,23.36,23.36,0,0,1-17.44,7.58q-9,0-14.85-5.12a16.55,16.55,0,0,1-5.8-13q0-9.56,7.27-14.85t20.46-5.3h10.19v-4.81a11.75,11.75,0,0,0-3.29-8.74q-3.29-3.26-9.67-3.25a15.26,15.26,0,0,0-9.4,2.83,8.32,8.32,0,0,0-3.79,6.84H676.11a14.45,14.45,0,0,1,3.26-8.85,22.19,22.19,0,0,1,8.83-6.77A29.68,29.68,0,0,1,700.45,163Q711,163,717,168.31t6.23,14.58v28.18q0,8.44,2.15,13.42v.9Zm-17.38-8a18.39,18.39,0,0,0,9.34-2.55,15.42,15.42,0,0,0,6.4-6.62V195.68h-8.21q-19.25,0-19.24,11.26a9.54,9.54,0,0,0,3.28,7.7A12.61,12.61,0,0,0,697.05,217.41Z"/><path class="cls-1" d="M756.13,211.19l15.16-47H782l-22,61.24h-8l-22.18-61.24h10.69Z"/><circle class="cls-1" cx="93.29" cy="296.49" r="37.4"/><circle class="cls-1" cx="94.81" cy="72.36" r="37.4"/><circle class="cls-1" cx="205.54" cy="45.16" r="26.95"/><circle class="cls-1" cx="205.54" cy="324.05" r="26.95"/><circle class="cls-1" cx="58.51" cy="184.61" r="26.95"/><circle class="cls-1" cx="300.36" cy="279.68" r="16.67"/><path class="cls-1" d="M207.42,184.43a10.92,10.92,0,0,0-6.34,1.76,11.18,11.18,0,0,0-3.79,4.3v5.71q0,15.63,10.81,15.62a8.79,8.79,0,0,0,7.28-3.9,15.93,15.93,0,0,0,2.91-9.79,15.64,15.64,0,0,0-3-9.88A9.52,9.52,0,0,0,207.42,184.43Z"/><path class="cls-1" d="M274.15,156.59a7.57,7.57,0,0,0-7.16,4.07q-2.24,4.08-2.41,12.34v21.05q0,9.22,2.33,13.5a7.76,7.76,0,0,0,7.35,4.27,7.67,7.67,0,0,0,7.19-4.16q2.32-4.16,2.38-13V174.24q0-8.88-2.32-13.27A7.76,7.76,0,0,0,274.15,156.59Z"/><path class="cls-1" d="M137.87,176.23q10.69,0,10.69-10.47A9.1,9.1,0,0,0,146,159.1a9.7,9.7,0,0,0-7.19-2.57,10.32,10.32,0,0,0-6.59,2.21,6.73,6.73,0,0,0-2.81,5.49H113.11a94.86,94.86,0,0,0-2.2,20.36,96,96,0,0,0,1.69,17.9h15.65a8.58,8.58,0,0,0,3.05,6.56,10.79,10.79,0,0,0,7.53,2.77,11.3,11.3,0,0,0,8-2.8,9.35,9.35,0,0,0,3-7.16q0-6.23-3.12-8.83t-8.6-2.6h-9.28v-14.2Z"/><path class="cls-1" d="M274.26,226.54q-13.75,0-21.28-9.11t-7.52-25.7v-15q0-16.69,7.5-25.75t21.19-9.06q12,0,19.26,7a94.77,94.77,0,0,0-175.27-.64,27,27,0,0,1,5.89-3.56,34.43,34.43,0,0,1,14.12-2.86q13.75,0,21.62,6.29t7.87,17.26a17.38,17.38,0,0,1-3.26,10,23.11,23.11,0,0,1-9.48,7.67,22.15,22.15,0,0,1,10.3,7.22,19,19,0,0,1,3.74,12,21.27,21.27,0,0,1-8.49,17.66q-8.49,6.62-22.3,6.62a36.52,36.52,0,0,1-15-3.09,27.21,27.21,0,0,1-5.17-3,94.77,94.77,0,0,0,175.93-1.32Q286.58,226.53,274.26,226.54Zm-40.55-14a26.37,26.37,0,0,1-10.36,10.27,29.74,29.74,0,0,1-14.74,3.71,30.78,30.78,0,0,1-15.68-4,27.48,27.48,0,0,1-10.75-11.4,37.62,37.62,0,0,1-4-17.1v-7.64a47.56,47.56,0,0,1,5.46-22.89,39.63,39.63,0,0,1,15.59-15.93,44.61,44.61,0,0,1,22.47-5.78h2.89v15h-.85q-10.69,0-17.57,5.13a21.55,21.55,0,0,0-8.46,14.23A22.27,22.27,0,0,1,214,169.83q10.71,0,17,7.81t6.34,20.49A28.88,28.88,0,0,1,233.71,212.56Z"/></svg>