<svg xmlns="http://www.w3.org/2000/svg" width="118.377" height="65.987" viewBox="0 0 118.377 65.987"><g transform="translate(-620.561 -371.214)"><circle cx="7.475" cy="7.475" r="7.475" transform="translate(625.424 418.833)" fill="#fff"/><circle cx="7.475" cy="7.475" r="7.475" transform="translate(625.728 374.563)" fill="#fff"/><circle cx="5.386" cy="5.386" r="5.386" transform="translate(649.692 371.214)" fill="#fff"/><circle cx="5.386" cy="5.386" r="5.386" transform="translate(649.692 426.429)" fill="#fff"/><circle cx="5.386" cy="5.386" r="5.386" transform="translate(620.561 398.822)" fill="#fff"/><circle cx="3.332" cy="3.332" r="3.332" transform="translate(670.531 419.711)" fill="#fff"/><g transform="translate(636.42 385.269)"><path d="M788.318,537.432a2.182,2.182,0,0,0-1.267.351,2.225,2.225,0,0,0-.758.86v1.143q0,3.122,2.16,3.122a1.753,1.753,0,0,0,1.454-.78,3.181,3.181,0,0,0,.582-1.957,3.122,3.122,0,0,0-.594-1.974A1.9,1.9,0,0,0,788.318,537.432Z" transform="translate(-769.027 -518.528)" fill="#fff"/><path d="M705.3,513.467a1.87,1.87,0,0,0,2.138-2.093,1.809,1.809,0,0,0-.509-1.329,1.931,1.931,0,0,0-1.437-.515,2.068,2.068,0,0,0-1.318.441,1.346,1.346,0,0,0-.56,1.1h-3.263a19.046,19.046,0,0,0-.1,7.647h3.126a1.716,1.716,0,0,0,.611,1.312,2.156,2.156,0,0,0,1.5.554,2.259,2.259,0,0,0,1.606-.56,1.872,1.872,0,0,0,.6-1.431,2.189,2.189,0,0,0-.622-1.765,2.6,2.6,0,0,0-1.719-.52H703.5v-2.839Z" transform="translate(-699.909 -496.203)" fill="#fff"/><path d="M855.5,509.586a1.514,1.514,0,0,0-1.431.815,5.535,5.535,0,0,0-.481,2.466v4.208a5.912,5.912,0,0,0,.464,2.7,1.555,1.555,0,0,0,1.471.854,1.535,1.535,0,0,0,1.436-.831,5.653,5.653,0,0,0,.475-2.607v-4.072a5.878,5.878,0,0,0-.464-2.653A1.551,1.551,0,0,0,855.5,509.586Z" transform="translate(-822.87 -496.248)" fill="#fff"/><path d="M738.188,470.17a5.207,5.207,0,0,1-4.254-1.821,7.853,7.853,0,0,1-1.5-5.136V460.2a7.863,7.863,0,0,1,1.5-5.147,5.192,5.192,0,0,1,4.236-1.81,5.318,5.318,0,0,1,3.85,1.4,18.941,18.941,0,0,0-35.031-.127,5.28,5.28,0,0,1,1.176-.711,6.869,6.869,0,0,1,2.822-.571,6.746,6.746,0,0,1,4.321,1.256,4.175,4.175,0,0,1,1.572,3.45,3.479,3.479,0,0,1-.651,2.008,4.633,4.633,0,0,1-1.895,1.533,4.428,4.428,0,0,1,2.059,1.442,3.8,3.8,0,0,1,.746,2.392,4.25,4.25,0,0,1-1.7,3.529,7.043,7.043,0,0,1-4.457,1.324,7.3,7.3,0,0,1-3-.616,5.517,5.517,0,0,1-1.035-.6,18.942,18.942,0,0,0,35.165-.264A5.269,5.269,0,0,1,738.188,470.17Zm-8.105-2.794a5.285,5.285,0,0,1-2.07,2.053,5.945,5.945,0,0,1-2.947.741,6.147,6.147,0,0,1-3.133-.8,5.478,5.478,0,0,1-2.149-2.279,7.5,7.5,0,0,1-.792-3.416V462.15a9.5,9.5,0,0,1,1.092-4.576,7.913,7.913,0,0,1,3.116-3.184,8.909,8.909,0,0,1,4.491-1.154h.577v3h-.17a5.724,5.724,0,0,0-3.512,1.024,4.323,4.323,0,0,0-1.691,2.845,4.458,4.458,0,0,1,3.258-1.267,4.159,4.159,0,0,1,3.4,1.561,6.3,6.3,0,0,1,1.267,4.095A5.765,5.765,0,0,1,730.083,467.376Z" transform="translate(-705.539 -442.85)" fill="#fff"/></g><g transform="translate(679.359 394.691)"><path d="M932.086,509.323a5.272,5.272,0,0,1-2.042,1.663,8.123,8.123,0,0,1-3.761.758,6.688,6.688,0,0,1-4.881-1.889,6.538,6.538,0,0,1-1.929-4.887v-3.394a6.8,6.8,0,0,1,1.8-4.887,6.118,6.118,0,0,1,4.638-1.889,6.6,6.6,0,0,1,4.445,1.391,4.614,4.614,0,0,1,1.652,3.586l-.023.068h-2.127a3.452,3.452,0,0,0-1.092-2.364,4.025,4.025,0,0,0-2.856-.928,3.736,3.736,0,0,0-3.043,1.413,5.48,5.48,0,0,0-1.154,3.583v3.413A5.162,5.162,0,0,0,923,508.572a4.238,4.238,0,0,0,3.28,1.418,6.026,6.026,0,0,0,2.3-.373,3.21,3.21,0,0,0,1.278-.846v-3.736h-3.608v-1.753h5.837Z" transform="translate(-919.473 -493.86)" fill="#fff"/><path d="M1000.019,492.376h-2.228V490.1h2.228Zm0,15.373h-2.228V495.509h2.228Z" transform="translate(-982.138 -490.102)" fill="#fff"/><path d="M1022.882,525.786l.192.86h.068l.215-.86,2.817-8.631h2.273l-4.5,12.239h-1.685l-4.559-12.239h2.285Z" transform="translate(-998.068 -511.748)" fill="#fff"/><path d="M1081.72,492.376h-2.229V490.1h2.229Zm0,15.373h-2.229V495.509h2.229Z" transform="translate(-1047.509 -490.102)" fill="#fff"/><path d="M1106.884,516.249l.158,1.821a4.445,4.445,0,0,1,1.533-1.51,4.091,4.091,0,0,1,2.1-.537,4,4,0,0,1,3.065,1.159,5.091,5.091,0,0,1,1.086,3.58v7.726H1112.6v-7.681a3.312,3.312,0,0,0-.639-2.3,2.56,2.56,0,0,0-1.951-.679,3.143,3.143,0,0,0-1.7.464,3.389,3.389,0,0,0-1.182,1.267v8.925h-2.228V516.249Z" transform="translate(-1067.833 -510.842)" fill="#fff"/><path d="M1165.439,522.6a8.035,8.035,0,0,1,1.29-4.762,4.135,4.135,0,0,1,3.563-1.81,4.3,4.3,0,0,1,2.047.469,4.032,4.032,0,0,1,1.47,1.352l.271-1.595h1.776v12.307a4.67,4.67,0,0,1-1.369,3.614,5.623,5.623,0,0,1-3.948,1.261,8.278,8.278,0,0,1-1.906-.243,7.455,7.455,0,0,1-1.8-.662l.565-1.731a5.733,5.733,0,0,0,1.448.549,6.978,6.978,0,0,0,1.674.209,3.246,3.246,0,0,0,2.37-.741,3.071,3.071,0,0,0,.741-2.257v-1.38a3.891,3.891,0,0,1-1.436,1.159,4.5,4.5,0,0,1-1.923.39,4.268,4.268,0,0,1-3.54-1.629,6.668,6.668,0,0,1-1.29-4.264Zm2.228.238a5.087,5.087,0,0,0,.781,2.964,2.7,2.7,0,0,0,2.376,1.12,2.945,2.945,0,0,0,1.685-.458,3.474,3.474,0,0,0,1.12-1.3V519.53a3.457,3.457,0,0,0-1.12-1.239,2.936,2.936,0,0,0-1.663-.458,2.6,2.6,0,0,0-2.387,1.335,6.645,6.645,0,0,0-.792,3.427Z" transform="translate(-1116.278 -510.842)" fill="#fff"/></g></g></svg>