<svg xmlns="http://www.w3.org/2000/svg" width="42.5" height="20" viewBox="0 0 42.5 20"><defs><style>.a{opacity:0.153;}.b{fill:#fff;}</style></defs><g class="a" transform="translate(-1164 -851)"><g transform="translate(1186.5 851)"><circle class="b" cx="8.836" cy="8.836" r="8.836" transform="translate(1.207 1.259)"/><path d="M15.482-3.5A9.662,9.662,0,0,1,22.589-.607,9.672,9.672,0,0,1,25.5,6.5a9.426,9.426,0,0,1-2.858,7.018,9.879,9.879,0,0,1-7.16,2.982,9.679,9.679,0,0,1-7.036-2.947A9.624,9.624,0,0,1,5.5,6.5,9.8,9.8,0,0,1,8.447-.607,9.575,9.575,0,0,1,15.482-3.5Zm.036,1.8A7.787,7.787,0,0,0,9.75.7,8.047,8.047,0,0,0,7.3,6.5,7.857,7.857,0,0,0,9.732,12.25a7.9,7.9,0,0,0,5.786,2.428,8.026,8.026,0,0,0,5.822-2.446A7.616,7.616,0,0,0,23.7,6.5,7.9,7.9,0,0,0,21.3.7,7.882,7.882,0,0,0,15.518-1.7ZM18.2,4.018V8.107H17.054v4.857H13.947V8.107H12.8V4.018a.64.64,0,0,1,.642-.643h4.108A.629.629,0,0,1,18,3.562.608.608,0,0,1,18.2,4.018Zm-4.09-2.571A1.239,1.239,0,0,1,15.5.036a1.239,1.239,0,0,1,1.393,1.411A1.231,1.231,0,0,1,15.5,2.839,1.231,1.231,0,0,1,14.107,1.447Z" transform="translate(-5.5 3.5)"/></g><g transform="translate(1164 851)"><circle class="b" cx="9.011" cy="9.011" r="9.011" transform="translate(1.078 0.989)"/><path d="M15.482-3.5A9.758,9.758,0,0,1,22.624-.571a9.617,9.617,0,0,1,2.143,3.223A10.182,10.182,0,0,1,25.5,6.5a10.205,10.205,0,0,1-.723,3.848,9.18,9.18,0,0,1-2.134,3.17,10.277,10.277,0,0,1-3.322,2.214,9.955,9.955,0,0,1-3.839.768,9.718,9.718,0,0,1-3.795-.759A10.291,10.291,0,0,1,6.25,10.3a9.988,9.988,0,0,1,.009-7.616A10.042,10.042,0,0,1,8.464-.589,9.452,9.452,0,0,1,15.482-3.5Zm.036,1.8A7.75,7.75,0,0,0,9.75.7,8.6,8.6,0,0,0,7.937,3.384a7.93,7.93,0,0,0,0,6.214A8.284,8.284,0,0,0,9.75,12.259a8.241,8.241,0,0,0,2.661,1.786,8.116,8.116,0,0,0,6.224-.009,8.637,8.637,0,0,0,2.723-1.8A7.683,7.683,0,0,0,23.7,6.5a8.211,8.211,0,0,0-.607-3.143A8,8,0,0,0,21.322.715,7.914,7.914,0,0,0,15.518-1.7ZM15.392,4.84l-1.34.7a1.375,1.375,0,0,0-.527-.625,1.186,1.186,0,0,0-.581-.178q-1.339,0-1.339,1.768a2.194,2.194,0,0,0,.339,1.285,1.145,1.145,0,0,0,1,.483,1.253,1.253,0,0,0,1.233-.857l1.232.625a2.944,2.944,0,0,1-2.625,1.572,2.92,2.92,0,0,1-2.161-.822A3.089,3.089,0,0,1,9.8,6.5a3.084,3.084,0,0,1,.83-2.268,2.828,2.828,0,0,1,2.1-.839A2.8,2.8,0,0,1,15.392,4.84Zm5.768,0-1.322.7a1.373,1.373,0,0,0-.527-.625,1.214,1.214,0,0,0-.6-.178q-1.339,0-1.34,1.768a2.194,2.194,0,0,0,.339,1.285,1.144,1.144,0,0,0,1,.483,1.251,1.251,0,0,0,1.232-.857l1.25.625a3.07,3.07,0,0,1-1.107,1.152,3.14,3.14,0,0,1-3.687-.4A3.105,3.105,0,0,1,15.589,6.5a3.081,3.081,0,0,1,.831-2.268,2.827,2.827,0,0,1,2.1-.839A2.763,2.763,0,0,1,21.16,4.84Z" transform="translate(-5.5 3.5)"/></g></g></svg>