<svg xmlns="http://www.w3.org/2000/svg" width="24" height="23.44" viewBox="0 0 24 23.44"><path d="M152,139a12.007,12.007,0,0,1,3.785,23.4.568.568,0,0,1-.785-.6v-3.277a2.7,2.7,0,0,0-.831-2.215c2.631-.277,5.492-1.292,5.492-5.908a4.739,4.739,0,0,0-1.246-3.231,4.175,4.175,0,0,0-.092-3.185s-1.015-.323-3.323,1.246a11.041,11.041,0,0,0-6,0c-2.308-1.569-3.323-1.246-3.323-1.246a4.175,4.175,0,0,0-.092,3.185,4.739,4.739,0,0,0-1.246,3.231c0,4.615,2.862,5.631,5.492,5.908a2.344,2.344,0,0,0-.785,1.615,2.554,2.554,0,0,1-3.508-1.015,2.443,2.443,0,0,0-1.8-1.246s-1.2,0-.092.738a3.211,3.211,0,0,1,1.338,1.754s.738,2.354,4.062,1.615V161.8a.6.6,0,0,1-.831.6A12.007,12.007,0,0,1,152,139Z" transform="translate(-140 -139)" fill="#fff"/></svg>