<svg xmlns="http://www.w3.org/2000/svg" width="75.9" height="89.8" viewBox="0 0 75.9 89.8"><defs><style>.a{fill:#eee;}.b{fill:#707070;}.c{fill:#e0e0e0;}.d{fill:#fff;}</style></defs><path class="a" d="M79.985,26.448H59.432V5.6A1.592,1.592,0,0,0,57.851,4H13.581A1.592,1.592,0,0,0,12,5.6V50.5a1.592,1.592,0,0,0,1.581,1.6H56.27V77.757H13.581A1.592,1.592,0,0,0,12,79.36V92.187a1.592,1.592,0,0,0,1.581,1.6h66.4a1.592,1.592,0,0,0,1.581-1.6V28.051A1.592,1.592,0,0,0,79.985,26.448Z" transform="translate(-5.676 -3.991)"/><path class="b" d="M3.406,0h47.68c1.881,0,3.406,1.973,3.406,4.407V35.252c0,2.434-1.525,4.407-3.406,4.407H3.406C1.525,39.659,0,37.686,0,35.252V4.407C0,1.973,1.525,0,3.406,0Z" transform="translate(0 44.9)"/><path class="c" d="M64.838,26.916,42.7,4.469a1.565,1.565,0,0,0-1.729-.352A1.6,1.6,0,0,0,40,5.607V28.055a1.592,1.592,0,0,0,1.581,1.6H63.716a1.581,1.581,0,0,0,1.469-.989A1.62,1.62,0,0,0,64.838,26.916Z" transform="translate(10.594 -3.994)"/><path class="d" d="M61.835,41.88H35.729C33.67,41.88,32,43.274,32,44.994V52h.224a.71.71,0,0,0-.224.49v9.342a.71.71,0,0,0,.224.49H32v6.228c0,1.72,1.67,3.114,3.729,3.114H61.835c2.06,0,3.729-1.394,3.729-3.114V62.323H65.34a.709.709,0,0,0,.224-.5V52.483A.711.711,0,0,0,65.34,52h.224V44.994C65.564,43.274,63.894,41.88,61.835,41.88ZM63.7,44.994V51.7H49.714V43.437h12.12A1.732,1.732,0,0,1,63.7,44.994ZM49.714,53.261H63.7v7.785H49.714ZM47.85,61.046H33.865V53.261H47.85ZM35.729,43.437H47.85V51.7H33.865V44.994A1.732,1.732,0,0,1,35.729,43.437ZM33.865,68.543V62.6H47.85v7.5H35.729A1.732,1.732,0,0,1,33.865,68.543ZM61.835,70.1H49.714V62.6H63.7v5.94A1.732,1.732,0,0,1,61.835,70.1Z" transform="translate(-20.907 7.457)"/></svg>