<svg xmlns="http://www.w3.org/2000/svg" width="75.9" height="89.8" viewBox="0 0 75.9 89.8"><defs><style>.a{fill:#eee;}.b{fill:#707070;}.c{fill:#e0e0e0;}.d{fill:#fff;}</style></defs><path class="a" d="M79.985,26.448H59.432V5.6A1.592,1.592,0,0,0,57.851,4H13.581A1.592,1.592,0,0,0,12,5.6V50.5a1.592,1.592,0,0,0,1.581,1.6H56.27V77.757H13.581A1.592,1.592,0,0,0,12,79.36V92.187a1.592,1.592,0,0,0,1.581,1.6h66.4a1.592,1.592,0,0,0,1.581-1.6V28.051A1.592,1.592,0,0,0,79.985,26.448Z" transform="translate(-5.676 -3.991)"/><path class="b" d="M3.406,0h47.68a3.43,3.43,0,0,1,3.406,3.454V27.631a3.43,3.43,0,0,1-3.406,3.454H3.406A3.43,3.43,0,0,1,0,27.631V3.454A3.43,3.43,0,0,1,3.406,0Z" transform="translate(0 44.9)"/><path class="c" d="M64.838,26.916,42.7,4.469a1.565,1.565,0,0,0-1.729-.352A1.6,1.6,0,0,0,40,5.607V28.055a1.592,1.592,0,0,0,1.581,1.6H63.716a1.581,1.581,0,0,0,1.469-.989A1.62,1.62,0,0,0,64.838,26.916Z" transform="translate(10.594 -3.994)"/><g transform="translate(7.036 54.296)"><g transform="translate(0 0)"><path class="d" d="M7.145,4.464h2.3V11.8a7.62,7.62,0,0,1-.25,2.211A3.12,3.12,0,0,1,7.98,15.632a3.979,3.979,0,0,1-2.322.612,3.415,3.415,0,0,1-2.6-.96,3.958,3.958,0,0,1-.917-2.816l2.173-.254A3.161,3.161,0,0,0,4.6,13.623a1.241,1.241,0,0,0,1.138.623,1.246,1.246,0,0,0,1.09-.448,3.556,3.556,0,0,0,.319-1.853V4.464Zm4.17,7.816,2.244-.224a2.771,2.771,0,0,0,.822,1.686,2.468,2.468,0,0,0,1.67.537,2.526,2.526,0,0,0,1.678-.48,1.425,1.425,0,0,0,.566-1.117,1.053,1.053,0,0,0-.239-.7,1.842,1.842,0,0,0-.83-.5c-.269-.1-.886-.264-1.846-.507a6.194,6.194,0,0,1-2.6-1.146,3.07,3.07,0,0,1-.558-3.986,3.124,3.124,0,0,1,1.425-1.173,5.677,5.677,0,0,1,2.247-.4,4.783,4.783,0,0,1,3.239.955,3.407,3.407,0,0,1,1.141,2.554l-2.306.1a1.988,1.988,0,0,0-.636-1.284,2.293,2.293,0,0,0-1.46-.391,2.6,2.6,0,0,0-1.574.418.844.844,0,0,0-.367.717.893.893,0,0,0,.343.7,5.96,5.96,0,0,0,2.119.774,11.178,11.178,0,0,1,2.489.833,3.25,3.25,0,0,1,1.263,1.179,3.493,3.493,0,0,1,.455,1.845,3.431,3.431,0,0,1-.545,1.864,3.273,3.273,0,0,1-1.542,1.292,6.369,6.369,0,0,1-2.486.423A4.9,4.9,0,0,1,12.7,15.238a4.434,4.434,0,0,1-1.385-2.958Zm10.759-1.953A7.456,7.456,0,0,1,22.6,7.355a5.506,5.506,0,0,1,1.064-1.588,4.477,4.477,0,0,1,1.476-1.041A6.163,6.163,0,0,1,27.6,4.267a5.318,5.318,0,0,1,4.039,1.588,6.131,6.131,0,0,1,1.516,4.415,6.121,6.121,0,0,1-1.505,4.391,5.286,5.286,0,0,1-4.018,1.583,5.343,5.343,0,0,1-4.053-1.575,6.036,6.036,0,0,1-1.5-4.342Zm2.375-.078a4.392,4.392,0,0,0,.9,2.983,2.9,2.9,0,0,0,2.276,1.014,2.872,2.872,0,0,0,2.263-1.009,4.474,4.474,0,0,0,.883-3.021,4.418,4.418,0,0,0-.859-2.972,3.161,3.161,0,0,0-4.587.013,4.425,4.425,0,0,0-.872,2.991Zm10.525,5.8V4.464h2.244L41.894,12.2V4.464h2.143V16.047H41.721l-4.6-7.554v7.554H34.975Z" transform="translate(-2.138 -4.267)"/></g></g></svg>