<svg width="16" height="16" viewBox="0 0 14 14" fill="none" xmlns="http://www.w3.org/2000/svg">
  <path fill-rule="evenodd" clip-rule="evenodd" d="M7 5.83333C6.70833 5.83333 6.41667 6.06667 6.41667 6.41667V9.91667C6.41667 10.2667 6.65 10.5 7 10.5C7.29167 10.5 7.58333 10.2667 7.58333 9.91667V6.41667C7.58333 6.125 7.29167 5.83333 7 5.83333ZM7 3.5C6.70833 3.5 6.41667 3.73333 6.41667 4.08333C6.41667 4.375 6.65 4.66667 7 4.66667C7.29167 4.66667 7.58333 4.43333 7.58333 4.08333C7.58333 3.79167 7.29167 3.5 7 3.5ZM7 0C3.15 0 0 3.15 0 7C0 10.85 3.15 14 7 14C10.85 14 14 10.85 14 7C14 3.15 10.85 0 7 0ZM7 12.8333C3.79167 12.8333 1.16667 10.2083 1.16667 7C1.16667 3.79167 3.79167 1.16667 7 1.16667C10.2083 1.16667 12.8333 3.79167 12.8333 7C12.8333 10.2083 10.2083 12.8333 7 12.8333Z" fill="#1D1536"/>
</svg>
