<svg width="216" height="110" viewBox="0 0 216 110" fill="none" xmlns="http://www.w3.org/2000/svg">
<rect x="25" width="191" height="84" fill="white"/>
<rect x="41.9434" y="16" width="13.0927" height="68" fill="#E89A67"/>
<rect x="60.4272" y="78" width="45.4395" height="6" fill="#E89A67"/>
<rect x="118.959" y="42" width="13.0927" height="42" fill="#E89A67"/>
<rect x="172.871" y="30" width="13.0927" height="54" fill="#E89A67"/>
<path d="M31.0586 101.361C31.0586 102.631 30.8418 103.574 30.4082 104.191C29.9746 104.809 29.2969 105.117 28.375 105.117C27.4648 105.117 26.791 104.816 26.3535 104.215C25.916 103.609 25.6895 102.707 25.6738 101.508V100.061C25.6738 98.8066 25.8906 97.875 26.3242 97.2656C26.7578 96.6562 27.4375 96.3516 28.3633 96.3516C29.2812 96.3516 29.957 96.6465 30.3906 97.2363C30.8242 97.8223 31.0469 98.7285 31.0586 99.9551V101.361ZM29.9746 99.8789C29.9746 98.9609 29.8457 98.293 29.5879 97.875C29.3301 97.4531 28.9219 97.2422 28.3633 97.2422C27.8086 97.2422 27.4043 97.4512 27.1504 97.8691C26.8965 98.2871 26.7656 98.9297 26.7578 99.7969V101.531C26.7578 102.453 26.8906 103.135 27.1562 103.576C27.4258 104.014 27.832 104.232 28.375 104.232C28.9102 104.232 29.3066 104.025 29.5645 103.611C29.8262 103.197 29.9629 102.545 29.9746 101.654V99.8789ZM67.1041 100.723L67.5377 96.4688H71.9087V97.4707H68.4576L68.1998 99.7969C68.6177 99.5508 69.0923 99.4277 69.6236 99.4277C70.4009 99.4277 71.0181 99.6855 71.4752 100.201C71.9322 100.713 72.1607 101.406 72.1607 102.281C72.1607 103.16 71.9224 103.854 71.4459 104.361C70.9732 104.865 70.3111 105.117 69.4595 105.117C68.7056 105.117 68.0904 104.908 67.6138 104.49C67.1373 104.072 66.8658 103.494 66.7994 102.756H67.8248C67.8912 103.244 68.065 103.613 68.3462 103.863C68.6275 104.109 68.9986 104.232 69.4595 104.232C69.9634 104.232 70.358 104.061 70.6431 103.717C70.9322 103.373 71.0767 102.898 71.0767 102.293C71.0767 101.723 70.9205 101.266 70.608 100.922C70.2994 100.574 69.8873 100.4 69.3716 100.4C68.899 100.4 68.5279 100.504 68.2584 100.711L67.9712 100.945L67.1041 100.723ZM78.5739 101.361C78.5739 102.631 78.3571 103.574 77.9235 104.191C77.4899 104.809 76.8122 105.117 75.8903 105.117C74.9802 105.117 74.3063 104.816 73.8688 104.215C73.4313 103.609 73.2048 102.707 73.1891 101.508V100.061C73.1891 98.8066 73.4059 97.875 73.8395 97.2656C74.2731 96.6562 74.9528 96.3516 75.8786 96.3516C76.7966 96.3516 77.4723 96.6465 77.9059 97.2363C78.3395 97.8223 78.5622 98.7285 78.5739 99.9551V101.361ZM77.4899 99.8789C77.4899 98.9609 77.361 98.293 77.1032 97.875C76.8454 97.4531 76.4372 97.2422 75.8786 97.2422C75.3239 97.2422 74.9196 97.4512 74.6657 97.8691C74.4118 98.2871 74.2809 98.9297 74.2731 99.7969V101.531C74.2731 102.453 74.4059 103.135 74.6716 103.576C74.9411 104.014 75.3473 104.232 75.8903 104.232C76.4255 104.232 76.822 104.025 77.0798 103.611C77.3415 103.197 77.4782 102.545 77.4899 101.654V99.8789ZM81.577 96.4688L84.366 103.43L87.1551 96.4688H88.6141V105H87.4891V101.678L87.5945 98.0918L84.7938 105H83.9324L81.1375 98.1094L81.2488 101.678V105H80.1238V96.4688H81.577ZM125.184 105H124.094V97.7754L121.908 98.5781V97.5938L125.014 96.4277H125.184V105ZM133.589 101.361C133.589 102.631 133.372 103.574 132.939 104.191C132.505 104.809 131.827 105.117 130.906 105.117C129.995 105.117 129.322 104.816 128.884 104.215C128.447 103.609 128.22 102.707 128.204 101.508V100.061C128.204 98.8066 128.421 97.875 128.855 97.2656C129.288 96.6562 129.968 96.3516 130.894 96.3516C131.812 96.3516 132.488 96.6465 132.921 97.2363C133.355 97.8223 133.577 98.7285 133.589 99.9551V101.361ZM132.505 99.8789C132.505 98.9609 132.376 98.293 132.119 97.875C131.861 97.4531 131.452 97.2422 130.894 97.2422C130.339 97.2422 129.935 97.4512 129.681 97.8691C129.427 98.2871 129.296 98.9297 129.288 99.7969V101.531C129.288 102.453 129.421 103.135 129.687 103.576C129.956 104.014 130.363 104.232 130.906 104.232C131.441 104.232 131.837 104.025 132.095 103.611C132.357 103.197 132.494 102.545 132.505 101.654V99.8789ZM140.207 101.361C140.207 102.631 139.991 103.574 139.557 104.191C139.124 104.809 138.446 105.117 137.524 105.117C136.614 105.117 135.94 104.816 135.502 104.215C135.065 103.609 134.838 102.707 134.823 101.508V100.061C134.823 98.8066 135.04 97.875 135.473 97.2656C135.907 96.6562 136.586 96.3516 137.512 96.3516C138.43 96.3516 139.106 96.6465 139.54 97.2363C139.973 97.8223 140.196 98.7285 140.207 99.9551V101.361ZM139.124 99.8789C139.124 98.9609 138.995 98.293 138.737 97.875C138.479 97.4531 138.071 97.2422 137.512 97.2422C136.957 97.2422 136.553 97.4512 136.299 97.8691C136.045 98.2871 135.915 98.9297 135.907 99.7969V101.531C135.907 102.453 136.04 103.135 136.305 103.576C136.575 104.014 136.981 104.232 137.524 104.232C138.059 104.232 138.456 104.025 138.713 103.611C138.975 103.197 139.112 102.545 139.124 101.654V99.8789ZM143.211 96.4688L146 103.43L148.789 96.4688H150.248V105H149.123V101.678L149.228 98.0918L146.427 105H145.566L142.771 98.1094L142.882 101.678V105H141.757V96.4688H143.211ZM186.817 105H185.728V97.7754L183.542 98.5781V97.5938L186.648 96.4277H186.817V105ZM195.223 101.361C195.223 102.631 195.006 103.574 194.572 104.191C194.139 104.809 193.461 105.117 192.539 105.117C191.629 105.117 190.955 104.816 190.518 104.215C190.08 103.609 189.854 102.707 189.838 101.508V100.061C189.838 98.8066 190.055 97.875 190.488 97.2656C190.922 96.6562 191.602 96.3516 192.527 96.3516C193.445 96.3516 194.121 96.6465 194.555 97.2363C194.988 97.8223 195.211 98.7285 195.223 99.9551V101.361ZM194.139 99.8789C194.139 98.9609 194.01 98.293 193.752 97.875C193.494 97.4531 193.086 97.2422 192.527 97.2422C191.973 97.2422 191.569 97.4512 191.315 97.8691C191.061 98.2871 190.93 98.9297 190.922 99.7969V101.531C190.922 102.453 191.055 103.135 191.32 103.576C191.59 104.014 191.996 104.232 192.539 104.232C193.074 104.232 193.471 104.025 193.729 103.611C193.99 103.197 194.127 102.545 194.139 101.654V99.8789ZM201.841 101.361C201.841 102.631 201.624 103.574 201.191 104.191C200.757 104.809 200.079 105.117 199.158 105.117C198.247 105.117 197.574 104.816 197.136 104.215C196.699 103.609 196.472 102.707 196.456 101.508V100.061C196.456 98.8066 196.673 97.875 197.107 97.2656C197.54 96.6562 198.22 96.3516 199.146 96.3516C200.064 96.3516 200.74 96.6465 201.173 97.2363C201.607 97.8223 201.829 98.7285 201.841 99.9551V101.361ZM200.757 99.8789C200.757 98.9609 200.628 98.293 200.37 97.875C200.113 97.4531 199.704 97.2422 199.146 97.2422C198.591 97.2422 198.187 97.4512 197.933 97.8691C197.679 98.2871 197.548 98.9297 197.54 99.7969V101.531C197.54 102.453 197.673 103.135 197.939 103.576C198.208 104.014 198.615 104.232 199.158 104.232C199.693 104.232 200.089 104.025 200.347 103.611C200.609 103.197 200.745 102.545 200.757 101.654V99.8789ZM204.844 96.4688L207.633 103.43L210.422 96.4688H211.881V105H210.756V101.678L210.862 98.0918L208.061 105H207.2L204.405 98.1094L204.516 101.678V105H203.391V96.4688H204.844Z" fill="#153634"/>
<path d="M9.94227 24H4.35242V23.2207L7.30555 19.9395C7.74305 19.4434 8.04383 19.041 8.20789 18.7324C8.37586 18.4199 8.45984 18.0977 8.45984 17.7656C8.45984 17.3203 8.32508 16.9551 8.05555 16.6699C7.78602 16.3848 7.42664 16.2422 6.97742 16.2422C6.43836 16.2422 6.01844 16.3965 5.71766 16.7051C5.42078 17.0098 5.27234 17.4355 5.27234 17.9824H4.18836C4.18836 17.1973 4.44031 16.5625 4.94422 16.0781C5.45203 15.5938 6.12977 15.3516 6.97742 15.3516C7.77039 15.3516 8.39734 15.5605 8.85828 15.9785C9.31922 16.3926 9.54969 16.9453 9.54969 17.6367C9.54969 18.4766 9.01453 19.4766 7.94422 20.6367L5.65906 23.1152H9.94227V24ZM16.3203 20.3613C16.3203 21.6309 16.1035 22.5742 15.6699 23.1914C15.2363 23.8086 14.5586 24.1172 13.6367 24.1172C12.7266 24.1172 12.0527 23.8164 11.6152 23.2148C11.1777 22.6094 10.9512 21.707 10.9355 20.5078V19.0605C10.9355 17.8066 11.1523 16.875 11.5859 16.2656C12.0195 15.6562 12.6992 15.3516 13.625 15.3516C14.543 15.3516 15.2188 15.6465 15.6523 16.2363C16.0859 16.8223 16.3086 17.7285 16.3203 18.9551V20.3613ZM15.2363 18.8789C15.2363 17.9609 15.1074 17.293 14.8496 16.875C14.5918 16.4531 14.1836 16.2422 13.625 16.2422C13.0703 16.2422 12.666 16.4512 12.4121 16.8691C12.1582 17.2871 12.0273 17.9297 12.0195 18.7969V20.5312C12.0195 21.4531 12.1523 22.1348 12.418 22.5762C12.6875 23.0137 13.0938 23.2324 13.6367 23.2324C14.1719 23.2324 14.5684 23.0254 14.8262 22.6113C15.0879 22.1973 15.2246 21.5449 15.2363 20.6543V18.8789ZM7.91492 54H6.82508V46.7754L4.63953 47.5781V46.5938L7.745 45.4277H7.91492V54ZM16.3203 50.3613C16.3203 51.6309 16.1035 52.5742 15.6699 53.1914C15.2363 53.8086 14.5586 54.1172 13.6367 54.1172C12.7266 54.1172 12.0527 53.8164 11.6152 53.2148C11.1777 52.6094 10.9512 51.707 10.9355 50.5078V49.0605C10.9355 47.8066 11.1523 46.875 11.5859 46.2656C12.0195 45.6562 12.6992 45.3516 13.625 45.3516C14.543 45.3516 15.2188 45.6465 15.6523 46.2363C16.0859 46.8223 16.3086 47.7285 16.3203 48.9551V50.3613ZM15.2363 48.8789C15.2363 47.9609 15.1074 47.293 14.8496 46.875C14.5918 46.4531 14.1836 46.2422 13.625 46.2422C13.0703 46.2422 12.666 46.4512 12.4121 46.8691C12.1582 47.2871 12.0273 47.9297 12.0195 48.7969V50.5312C12.0195 51.4531 12.1523 52.1348 12.418 52.5762C12.6875 53.0137 13.0938 53.2324 13.6367 53.2324C14.1719 53.2324 14.5684 53.0254 14.8262 52.6113C15.0879 52.1973 15.2246 51.5449 15.2363 50.6543V48.8789ZM16.3203 80.3613C16.3203 81.6309 16.1035 82.5742 15.6699 83.1914C15.2363 83.8086 14.5586 84.1172 13.6367 84.1172C12.7266 84.1172 12.0527 83.8164 11.6152 83.2148C11.1777 82.6094 10.9512 81.707 10.9355 80.5078V79.0605C10.9355 77.8066 11.1523 76.875 11.5859 76.2656C12.0195 75.6562 12.6992 75.3516 13.625 75.3516C14.543 75.3516 15.2188 75.6465 15.6523 76.2363C16.0859 76.8223 16.3086 77.7285 16.3203 78.9551V80.3613ZM15.2363 78.8789C15.2363 77.9609 15.1074 77.293 14.8496 76.875C14.5918 76.4531 14.1836 76.2422 13.625 76.2422C13.0703 76.2422 12.666 76.4512 12.4121 76.8691C12.1582 77.2871 12.0273 77.9297 12.0195 78.7969V80.5312C12.0195 81.4531 12.1523 82.1348 12.418 82.5762C12.6875 83.0137 13.0938 83.2324 13.6367 83.2324C14.1719 83.2324 14.5684 83.0254 14.8262 82.6113C15.0879 82.1973 15.2246 81.5449 15.2363 80.6543V78.8789Z" fill="#153634"/>
</svg>
