<svg width="228" height="111" viewBox="0 0 228 111" fill="none" xmlns="http://www.w3.org/2000/svg">
<path d="M42.3945 105.45H36.8047V104.671L39.7578 101.39C40.1953 100.894 40.4961 100.491 40.6602 100.183C40.8281 99.8704 40.9121 99.5481 40.9121 99.2161C40.9121 98.7708 40.7773 98.4056 40.5078 98.1204C40.2383 97.8352 39.8789 97.6927 39.4297 97.6927C38.8906 97.6927 38.4707 97.847 38.1699 98.1556C37.873 98.4602 37.7246 98.886 37.7246 99.4329H36.6406C36.6406 98.6477 36.8926 98.013 37.3965 97.5286C37.9043 97.0442 38.582 96.802 39.4297 96.802C40.2227 96.802 40.8496 97.011 41.3105 97.429C41.7715 97.8431 42.002 98.3958 42.002 99.0872C42.002 99.927 41.4668 100.927 40.3965 102.087L38.1113 104.566H42.3945V105.45ZM48.7726 101.812C48.7726 103.081 48.5558 104.025 48.1222 104.642C47.6886 105.259 47.0109 105.568 46.089 105.568C45.1788 105.568 44.505 105.267 44.0675 104.665C43.63 104.06 43.4034 103.158 43.3878 101.958V100.511C43.3878 99.2571 43.6046 98.3255 44.0382 97.7161C44.4718 97.1067 45.1515 96.802 46.0773 96.802C46.9952 96.802 47.671 97.097 48.1046 97.6868C48.5382 98.2727 48.7609 99.179 48.7726 100.406V101.812ZM47.6886 100.329C47.6886 99.4114 47.5597 98.7435 47.3019 98.3255C47.0441 97.9036 46.6359 97.6927 46.0773 97.6927C45.5226 97.6927 45.1183 97.9017 44.8644 98.3196C44.6105 98.7376 44.4796 99.3802 44.4718 100.247V101.982C44.4718 102.904 44.6046 103.585 44.8702 104.027C45.1398 104.464 45.546 104.683 46.089 104.683C46.6241 104.683 47.0206 104.476 47.2784 104.062C47.5402 103.648 47.6769 102.995 47.6886 102.105V100.329ZM55.3909 101.812C55.3909 103.081 55.1741 104.025 54.7405 104.642C54.3069 105.259 53.6291 105.568 52.7073 105.568C51.7971 105.568 51.1233 105.267 50.6858 104.665C50.2483 104.06 50.0217 103.158 50.0061 101.958V100.511C50.0061 99.2571 50.2229 98.3255 50.6565 97.7161C51.0901 97.1067 51.7698 96.802 52.6955 96.802C53.6135 96.802 54.2893 97.097 54.7229 97.6868C55.1565 98.2727 55.3791 99.179 55.3909 100.406V101.812ZM54.3069 100.329C54.3069 99.4114 54.178 98.7435 53.9202 98.3255C53.6623 97.9036 53.2541 97.6927 52.6955 97.6927C52.1409 97.6927 51.7366 97.9017 51.4827 98.3196C51.2288 98.7376 51.0979 99.3802 51.0901 100.247V101.982C51.0901 102.904 51.2229 103.585 51.4885 104.027C51.758 104.464 52.1643 104.683 52.7073 104.683C53.2424 104.683 53.6389 104.476 53.8967 104.062C54.1584 103.648 54.2952 102.995 54.3069 102.105V100.329ZM62.0091 101.812C62.0091 103.081 61.7923 104.025 61.3587 104.642C60.9252 105.259 60.2474 105.568 59.3255 105.568C58.4154 105.568 57.7416 105.267 57.3041 104.665C56.8666 104.06 56.64 103.158 56.6244 101.958V100.511C56.6244 99.2571 56.8412 98.3255 57.2748 97.7161C57.7084 97.1067 58.388 96.802 59.3138 96.802C60.2318 96.802 60.9076 97.097 61.3412 97.6868C61.7748 98.2727 61.9974 99.179 62.0091 100.406V101.812ZM60.9252 100.329C60.9252 99.4114 60.7962 98.7435 60.5384 98.3255C60.2806 97.9036 59.8724 97.6927 59.3138 97.6927C58.7591 97.6927 58.3548 97.9017 58.1009 98.3196C57.847 98.7376 57.7162 99.3802 57.7084 100.247V101.982C57.7084 102.904 57.8412 103.585 58.1068 104.027C58.3763 104.464 58.7826 104.683 59.3255 104.683C59.8607 104.683 60.2572 104.476 60.515 104.062C60.7767 103.648 60.9134 102.995 60.9252 102.105V100.329ZM83.1505 105.45H77.5606V104.671L80.5137 101.39C80.9512 100.894 81.252 100.491 81.4161 100.183C81.5841 99.8704 81.668 99.5481 81.668 99.2161C81.668 98.7708 81.5333 98.4056 81.2637 98.1204C80.9942 97.8352 80.6348 97.6927 80.1856 97.6927C79.6466 97.6927 79.2266 97.847 78.9259 98.1556C78.629 98.4602 78.4805 98.886 78.4805 99.4329H77.3966C77.3966 98.6477 77.6485 98.013 78.1524 97.5286C78.6602 97.0442 79.338 96.802 80.1856 96.802C80.9786 96.802 81.6055 97.011 82.0665 97.429C82.5274 97.8431 82.7579 98.3958 82.7579 99.0872C82.7579 99.927 82.2227 100.927 81.1524 102.087L78.8673 104.566H83.1505V105.45ZM89.5285 101.812C89.5285 103.081 89.3117 104.025 88.8781 104.642C88.4445 105.259 87.7668 105.568 86.8449 105.568C85.9348 105.568 85.2609 105.267 84.8234 104.665C84.3859 104.06 84.1594 103.158 84.1437 101.958V100.511C84.1437 99.2571 84.3605 98.3255 84.7941 97.7161C85.2277 97.1067 85.9074 96.802 86.8332 96.802C87.7512 96.802 88.427 97.097 88.8605 97.6868C89.2941 98.2727 89.5168 99.179 89.5285 100.406V101.812ZM88.4445 100.329C88.4445 99.4114 88.3156 98.7435 88.0578 98.3255C87.8 97.9036 87.3918 97.6927 86.8332 97.6927C86.2785 97.6927 85.8742 97.9017 85.6203 98.3196C85.3664 98.7376 85.2355 99.3802 85.2277 100.247V101.982C85.2277 102.904 85.3605 103.585 85.6262 104.027C85.8957 104.464 86.302 104.683 86.8449 104.683C87.3801 104.683 87.7766 104.476 88.0344 104.062C88.2961 103.648 88.4328 102.995 88.4445 102.105V100.329ZM96.1468 101.812C96.1468 103.081 95.93 104.025 95.4964 104.642C95.0628 105.259 94.3851 105.568 93.4632 105.568C92.553 105.568 91.8792 105.267 91.4417 104.665C91.0042 104.06 90.7777 103.158 90.762 101.958V100.511C90.762 99.2571 90.9788 98.3255 91.4124 97.7161C91.846 97.1067 92.5257 96.802 93.4515 96.802C94.3695 96.802 95.0452 97.097 95.4788 97.6868C95.9124 98.2727 96.1351 99.179 96.1468 100.406V101.812ZM95.0628 100.329C95.0628 99.4114 94.9339 98.7435 94.6761 98.3255C94.4183 97.9036 94.0101 97.6927 93.4515 97.6927C92.8968 97.6927 92.4925 97.9017 92.2386 98.3196C91.9847 98.7376 91.8538 99.3802 91.846 100.247V101.982C91.846 102.904 91.9788 103.585 92.2445 104.027C92.514 104.464 92.9202 104.683 93.4632 104.683C93.9984 104.683 94.3948 104.476 94.6527 104.062C94.9144 103.648 95.0511 102.995 95.0628 102.105V100.329ZM97.9135 101.173L98.3471 96.9192H102.718V97.9212H99.267L99.0092 100.247C99.4272 100.001 99.9018 99.8782 100.433 99.8782C101.21 99.8782 101.828 100.136 102.285 100.652C102.742 101.163 102.97 101.857 102.97 102.732C102.97 103.611 102.732 104.304 102.255 104.812C101.783 105.316 101.121 105.568 100.269 105.568C99.5151 105.568 98.8998 105.359 98.4233 104.941C97.9467 104.523 97.6752 103.945 97.6088 103.206H98.6342C98.7006 103.695 98.8745 104.064 99.1557 104.314C99.437 104.56 99.808 104.683 100.269 104.683C100.773 104.683 101.167 104.511 101.453 104.167C101.742 103.824 101.886 103.349 101.886 102.743C101.886 102.173 101.73 101.716 101.417 101.372C101.109 101.025 100.697 100.851 100.181 100.851C99.7084 100.851 99.3373 100.954 99.0678 101.161L98.7807 101.396L97.9135 101.173ZM126.763 105.45H121.173V104.671L124.126 101.39C124.564 100.894 124.865 100.491 125.029 100.183C125.197 99.8704 125.281 99.5481 125.281 99.2161C125.281 98.7708 125.146 98.4056 124.876 98.1204C124.607 97.8352 124.247 97.6927 123.798 97.6927C123.259 97.6927 122.839 97.847 122.538 98.1556C122.241 98.4602 122.093 98.886 122.093 99.4329H121.009C121.009 98.6477 121.261 98.013 121.765 97.5286C122.273 97.0442 122.95 96.802 123.798 96.802C124.591 96.802 125.218 97.011 125.679 97.429C126.14 97.8431 126.37 98.3958 126.37 99.0872C126.37 99.927 125.835 100.927 124.765 102.087L122.48 104.566H126.763V105.45ZM133.141 101.812C133.141 103.081 132.924 104.025 132.491 104.642C132.057 105.259 131.379 105.568 130.457 105.568C129.547 105.568 128.873 105.267 128.436 104.665C127.998 104.06 127.772 103.158 127.756 101.958V100.511C127.756 99.2571 127.973 98.3255 128.407 97.7161C128.84 97.1067 129.52 96.802 130.446 96.802C131.364 96.802 132.039 97.097 132.473 97.6868C132.907 98.2727 133.129 99.179 133.141 100.406V101.812ZM132.057 100.329C132.057 99.4114 131.928 98.7435 131.67 98.3255C131.412 97.9036 131.004 97.6927 130.446 97.6927C129.891 97.6927 129.487 97.9017 129.233 98.3196C128.979 98.7376 128.848 99.3802 128.84 100.247V101.982C128.84 102.904 128.973 103.585 129.239 104.027C129.508 104.464 129.914 104.683 130.457 104.683C130.993 104.683 131.389 104.476 131.647 104.062C131.909 103.648 132.045 102.995 132.057 102.105V100.329ZM137.972 105.45H136.882V98.2259L134.697 99.0286V98.0442L137.802 96.8782H137.972V105.45ZM146.378 101.812C146.378 103.081 146.161 104.025 145.727 104.642C145.294 105.259 144.616 105.568 143.694 105.568C142.784 105.568 142.11 105.267 141.673 104.665C141.235 104.06 141.008 103.158 140.993 101.958V100.511C140.993 99.2571 141.21 98.3255 141.643 97.7161C142.077 97.1067 142.756 96.802 143.682 96.802C144.6 96.802 145.276 97.097 145.71 97.6868C146.143 98.2727 146.366 99.179 146.378 100.406V101.812ZM145.294 100.329C145.294 99.4114 145.165 98.7435 144.907 98.3255C144.649 97.9036 144.241 97.6927 143.682 97.6927C143.128 97.6927 142.723 97.9017 142.469 98.3196C142.215 98.7376 142.085 99.3802 142.077 100.247V101.982C142.077 102.904 142.21 103.585 142.475 104.027C142.745 104.464 143.151 104.683 143.694 104.683C144.229 104.683 144.626 104.476 144.883 104.062C145.145 103.648 145.282 102.995 145.294 102.105V100.329ZM164.662 105.45H159.073V104.671L162.026 101.39C162.463 100.894 162.764 100.491 162.928 100.183C163.096 99.8704 163.18 99.5481 163.18 99.2161C163.18 98.7708 163.045 98.4056 162.776 98.1204C162.506 97.8352 162.147 97.6927 161.698 97.6927C161.158 97.6927 160.739 97.847 160.438 98.1556C160.141 98.4602 159.992 98.886 159.992 99.4329H158.908C158.908 98.6477 159.16 98.013 159.664 97.5286C160.172 97.0442 160.85 96.802 161.698 96.802C162.49 96.802 163.117 97.011 163.578 97.429C164.039 97.8431 164.27 98.3958 164.27 99.0872C164.27 99.927 163.735 100.927 162.664 102.087L160.379 104.566H164.662V105.45ZM171.04 101.812C171.04 103.081 170.824 104.025 170.39 104.642C169.956 105.259 169.279 105.568 168.357 105.568C167.447 105.568 166.773 105.267 166.335 104.665C165.898 104.06 165.671 103.158 165.656 101.958V100.511C165.656 99.2571 165.872 98.3255 166.306 97.7161C166.74 97.1067 167.419 96.802 168.345 96.802C169.263 96.802 169.939 97.097 170.372 97.6868C170.806 98.2727 171.029 99.179 171.04 100.406V101.812ZM169.956 100.329C169.956 99.4114 169.827 98.7435 169.57 98.3255C169.312 97.9036 168.904 97.6927 168.345 97.6927C167.79 97.6927 167.386 97.9017 167.132 98.3196C166.878 98.7376 166.747 99.3802 166.74 100.247V101.982C166.74 102.904 166.872 103.585 167.138 104.027C167.408 104.464 167.814 104.683 168.357 104.683C168.892 104.683 169.288 104.476 169.546 104.062C169.808 103.648 169.945 102.995 169.956 102.105V100.329ZM175.872 105.45H174.782V98.2259L172.596 99.0286V98.0442L175.702 96.8782H175.872V105.45ZM179.425 101.173L179.859 96.9192H184.23V97.9212H180.779L180.521 100.247C180.939 100.001 181.414 99.8782 181.945 99.8782C182.722 99.8782 183.339 100.136 183.796 100.652C184.254 101.163 184.482 101.857 184.482 102.732C184.482 103.611 184.244 104.304 183.767 104.812C183.295 105.316 182.632 105.568 181.781 105.568C181.027 105.568 180.412 105.359 179.935 104.941C179.459 104.523 179.187 103.945 179.121 103.206H180.146C180.212 103.695 180.386 104.064 180.668 104.314C180.949 104.56 181.32 104.683 181.781 104.683C182.285 104.683 182.679 104.511 182.964 104.167C183.254 103.824 183.398 103.349 183.398 102.743C183.398 102.173 183.242 101.716 182.929 101.372C182.621 101.025 182.209 100.851 181.693 100.851C181.22 100.851 180.849 100.954 180.58 101.161L180.293 101.396L179.425 101.173ZM205.418 105.45H199.828V104.671L202.782 101.39C203.219 100.894 203.52 100.491 203.684 100.183C203.852 99.8704 203.936 99.5481 203.936 99.2161C203.936 98.7708 203.801 98.4056 203.532 98.1204C203.262 97.8352 202.903 97.6927 202.453 97.6927C201.914 97.6927 201.494 97.847 201.194 98.1556C200.897 98.4602 200.748 98.886 200.748 99.4329H199.664C199.664 98.6477 199.916 98.013 200.42 97.5286C200.928 97.0442 201.606 96.802 202.453 96.802C203.246 96.802 203.873 97.011 204.334 97.429C204.795 97.8431 205.026 98.3958 205.026 99.0872C205.026 99.927 204.491 100.927 203.42 102.087L201.135 104.566H205.418V105.45ZM211.796 101.812C211.796 103.081 211.58 104.025 211.146 104.642C210.712 105.259 210.035 105.568 209.113 105.568C208.203 105.568 207.529 105.267 207.091 104.665C206.654 104.06 206.427 103.158 206.412 101.958V100.511C206.412 99.2571 206.628 98.3255 207.062 97.7161C207.496 97.1067 208.175 96.802 209.101 96.802C210.019 96.802 210.695 97.097 211.128 97.6868C211.562 98.2727 211.785 99.179 211.796 100.406V101.812ZM210.712 100.329C210.712 99.4114 210.583 98.7435 210.326 98.3255C210.068 97.9036 209.66 97.6927 209.101 97.6927C208.546 97.6927 208.142 97.9017 207.888 98.3196C207.634 98.7376 207.503 99.3802 207.496 100.247V101.982C207.496 102.904 207.628 103.585 207.894 104.027C208.164 104.464 208.57 104.683 209.113 104.683C209.648 104.683 210.044 104.476 210.302 104.062C210.564 103.648 210.701 102.995 210.712 102.105V100.329ZM218.655 105.45H213.065V104.671L216.018 101.39C216.456 100.894 216.756 100.491 216.92 100.183C217.088 99.8704 217.172 99.5481 217.172 99.2161C217.172 98.7708 217.038 98.4056 216.768 98.1204C216.499 97.8352 216.139 97.6927 215.69 97.6927C215.151 97.6927 214.731 97.847 214.43 98.1556C214.133 98.4602 213.985 98.886 213.985 99.4329H212.901C212.901 98.6477 213.153 98.013 213.657 97.5286C214.165 97.0442 214.842 96.802 215.69 96.802C216.483 96.802 217.11 97.011 217.571 97.429C218.032 97.8431 218.262 98.3958 218.262 99.0872C218.262 99.927 217.727 100.927 216.657 102.087L214.372 104.566H218.655V105.45ZM225.033 101.812C225.033 103.081 224.816 104.025 224.383 104.642C223.949 105.259 223.271 105.568 222.349 105.568C221.439 105.568 220.765 105.267 220.328 104.665C219.89 104.06 219.664 103.158 219.648 101.958V100.511C219.648 99.2571 219.865 98.3255 220.299 97.7161C220.732 97.1067 221.412 96.802 222.338 96.802C223.256 96.802 223.931 97.097 224.365 97.6868C224.799 98.2727 225.021 99.179 225.033 100.406V101.812ZM223.949 100.329C223.949 99.4114 223.82 98.7435 223.562 98.3255C223.304 97.9036 222.896 97.6927 222.338 97.6927C221.783 97.6927 221.379 97.9017 221.125 98.3196C220.871 98.7376 220.74 99.3802 220.732 100.247V101.982C220.732 102.904 220.865 103.585 221.131 104.027C221.4 104.464 221.806 104.683 222.349 104.683C222.884 104.683 223.281 104.476 223.539 104.062C223.8 103.648 223.937 102.995 223.949 102.105V100.329Z" fill="#153634"/>
<path d="M25.0898 19.4251L26.4961 17.1106H27.7617L25.6875 20.2454L27.8262 23.4505H26.5723L25.1074 21.0774L23.6426 23.4505H22.3828L24.5215 20.2454L22.4473 17.1106H23.7012L25.0898 19.4251ZM13.4236 49.4251L14.8298 47.1106H16.0955L14.0212 50.2454L16.1599 53.4505H14.906L13.4412 51.0774L11.9763 53.4505H10.7166L12.8552 50.2454L10.781 47.1106H12.0349L13.4236 49.4251ZM19.2567 49.4251L20.663 47.1106H21.9286L19.8544 50.2454L21.993 53.4505H20.7391L19.2743 51.0774L17.8095 53.4505H16.5497L18.6884 50.2454L16.6141 47.1106H17.868L19.2567 49.4251ZM25.0898 49.4251L26.4961 47.1106H27.7617L25.6875 50.2454L27.8262 53.4505H26.5723L25.1074 51.0774L23.6426 53.4505H22.3828L24.5215 50.2454L22.4473 47.1106H23.7012L25.0898 49.4251ZM7.59047 79.4251L8.99672 77.1106H10.2623L8.18813 80.2454L10.3268 83.4505H9.07289L7.60805 81.0774L6.1432 83.4505H4.88344L7.02211 80.2454L4.94789 77.1106H6.2018L7.59047 79.4251ZM13.4236 79.4251L14.8298 77.1106H16.0955L14.0213 80.2454L16.1599 83.4505H14.906L13.4412 81.0774L11.9763 83.4505H10.7166L12.8552 80.2454L10.781 77.1106H12.0349L13.4236 79.4251ZM19.2567 79.4251L20.663 77.1106H21.9286L19.8544 80.2454L21.993 83.4505H20.7391L19.2743 81.0774L17.8095 83.4505H16.5497L18.6884 80.2454L16.6141 77.1106H17.868L19.2567 79.4251ZM25.0898 79.4251L26.4961 77.1106H27.7617L25.6875 80.2454L27.8262 83.4505H26.5723L25.1074 81.0774L23.6426 83.4505H22.3828L24.5215 80.2454L22.4473 77.1106H23.7012L25.0898 79.4251Z" fill="#153634"/>
<rect x="34.0957" y="0.450481" width="193" height="84" fill="white"/>
<circle cx="56.5957" cy="65.9505" r="4.5" fill="#E89A67"/>
<circle cx="70.5957" cy="65.9505" r="4.5" fill="#E89A67"/>
<circle cx="158.596" cy="65.9505" r="4.5" fill="#E89A67"/>
<circle cx="167.596" cy="48.9505" r="4.5" fill="#E89A67"/>
<circle cx="203.596" cy="25.9505" r="4.5" fill="#E89A67"/>
</svg>
