<svg width="162" height="170" viewBox="0 0 162 170" fill="none" xmlns="http://www.w3.org/2000/svg">
<path d="M81.0476 169.411C125.605 169.411 161.726 133.278 161.726 88.7056C161.726 44.1331 125.605 8 81.0476 8C36.4904 8 0.369629 44.1331 0.369629 88.7056C0.369629 133.278 36.4904 169.411 81.0476 169.411Z" fill="white"/>
<path d="M63.4302 39.1655H61.1733V45.8254H63.4302V39.1655Z" fill="#153634"/>
<path d="M79.9065 43.737C80.3579 43.5113 80.64 43.0032 80.5836 42.4388C80.5272 41.8743 80.1322 41.4792 79.6808 41.3098C80.0758 40.9712 80.245 40.4067 80.0758 39.8987C79.9065 39.3907 79.4551 38.9955 78.9472 38.9955C79.2858 38.6004 79.3422 38.0359 79.0601 37.5279C78.7779 37.0764 78.2701 36.7941 77.7623 36.8506C77.988 36.399 77.9315 35.8345 77.593 35.383C77.2544 34.9878 76.6901 34.8185 76.1823 34.9878C76.2951 34.4798 76.1259 33.9154 75.7309 33.5767C75.2795 33.238 74.7152 33.238 74.2638 33.4638C74.2638 32.9558 74.0381 32.4477 73.5302 32.222C73.0224 31.9962 72.4581 32.0526 72.0631 32.3913C72.0067 31.8833 71.6117 31.4317 71.1038 31.3188C70.596 31.2059 70.0317 31.3752 69.7496 31.8268C69.5803 31.3188 69.1289 30.9801 68.5646 30.9801C68.0004 30.9801 67.549 31.2624 67.3232 31.714C67.0411 31.2624 66.5333 31.0366 65.969 31.093C65.4047 31.1495 65.0097 31.5446 64.8969 32.0526C64.5583 31.6575 63.994 31.5446 63.4862 31.714C62.9783 31.8833 62.6398 32.3913 62.6398 32.8993C62.2448 32.6171 61.6241 32.5606 61.1727 32.8429C60.7213 33.1251 60.4956 33.6896 60.552 34.1976C60.1006 33.9718 59.5363 34.0847 59.1413 34.4798C58.7463 34.8749 58.6335 35.4394 58.8027 35.891C58.2949 35.7781 57.7306 36.0039 57.4485 36.4554C57.1099 36.907 57.1664 37.4715 57.3921 37.9231C56.8842 37.9231 56.3764 38.2053 56.1507 38.7133C55.925 39.2213 56.0378 39.7858 56.4328 40.1809C55.925 40.2938 55.53 40.6889 55.4171 41.1969C55.3043 41.7614 55.53 42.2694 55.9814 42.5516C55.53 42.7774 55.1914 43.229 55.1914 43.7935C55.1914 43.7935 55.1914 43.7935 55.1914 43.8499C55.1914 44.4144 55.53 44.8659 55.9814 45.0917C55.5864 45.374 55.3043 45.9384 55.4171 46.4465C55.53 47.0109 55.9814 47.406 56.4328 47.4625C56.0942 47.8576 55.9814 48.4221 56.1507 48.9301C56.3764 49.4381 56.8842 49.7204 57.3921 49.7204C57.1099 50.1719 57.1099 50.7364 57.4485 51.188C57.7871 51.6396 58.2949 51.8089 58.8027 51.696C58.6335 52.204 58.7463 52.7685 59.1413 53.1071C59.5363 53.5023 60.1006 53.5587 60.6084 53.3894C60.552 53.8974 60.7777 54.4054 61.2291 54.7441C61.6805 55.0263 62.2448 55.0263 62.6962 54.6876C62.6962 55.1956 63.0348 55.7037 63.5426 55.873C64.0505 56.0424 64.6147 55.9295 64.9533 55.5343C65.0662 56.0423 65.5176 56.4375 66.0254 56.4939C66.5897 56.5504 67.0975 56.3246 67.3797 55.873C67.6054 56.3246 68.0568 56.6068 68.5646 56.6068H68.6211C69.1853 56.5504 69.6368 56.2117 69.806 55.7601C70.1446 56.1553 70.6524 56.381 71.2167 56.2117C71.7246 56.0988 72.1195 55.6472 72.176 55.1392C72.571 55.4779 73.1352 55.5908 73.6431 55.3086C74.1509 55.0828 74.4331 54.5748 74.3766 54.0667C74.828 54.2925 75.3923 54.2925 75.8437 53.9538C76.2951 53.6152 76.4644 53.0507 76.2952 52.5427C76.803 52.712 77.3673 52.5427 77.7058 52.1475C78.0444 51.7524 78.1008 51.1315 77.8751 50.6799C78.3829 50.7364 78.8908 50.4542 79.1729 50.0026C79.4551 49.4946 79.3986 48.9301 79.0601 48.535C79.5679 48.4785 80.0193 48.1398 80.1886 47.6318C80.3579 47.1238 80.1886 46.5593 79.7936 46.2207C80.3015 46.0513 80.64 45.5998 80.6965 45.0917C80.64 44.4708 80.3579 43.9628 79.9065 43.737Z" fill="#153634"/>
<path d="M68.5656 57.68H68.5091C68.0577 57.68 67.6063 57.5671 67.2678 57.3413C66.8163 57.5671 66.3649 57.6235 65.8571 57.5671C65.8006 57.5671 65.7442 57.567 65.6878 57.5106C65.2364 57.3977 64.8414 57.2284 64.5592 56.9461C64.1078 57.059 63.6 57.059 63.1486 56.8897C63.0921 56.8897 63.0357 56.8333 63.0357 56.8333C62.6407 56.6639 62.2457 56.3817 62.02 56.043C61.5686 56.043 61.1172 55.9301 60.7222 55.7043C60.6658 55.7043 60.6658 55.6479 60.6094 55.6479C60.1579 55.3656 59.8758 55.027 59.6501 54.5754C59.1987 54.519 58.7473 54.2932 58.3523 53.9545C58.0137 53.6158 57.7316 53.1642 57.6187 52.7127C57.1673 52.5433 56.7723 52.2611 56.4902 51.8095C56.208 51.4144 56.0388 50.9064 56.0388 50.4548C55.6438 50.1726 55.3052 49.8339 55.0795 49.3823C54.8538 48.9308 54.8538 48.4228 54.9102 47.9712C54.5717 47.6325 54.346 47.1809 54.2331 46.7294C54.1202 46.2213 54.1767 45.7133 54.3459 45.3182C54.0638 44.9231 53.951 44.4715 53.8945 43.9635V43.907C53.8945 43.399 54.0638 42.9474 54.2895 42.5523C54.1202 42.1007 54.0638 41.5927 54.1767 41.1412C54.2895 40.6331 54.5152 40.1816 54.8538 39.8994C54.7409 39.4478 54.7974 38.9398 55.0231 38.4882C55.0231 38.4318 55.0231 38.4318 55.0795 38.3753C55.3052 37.9802 55.5873 37.5851 55.9823 37.3593C55.9823 36.8513 56.1516 36.3997 56.4337 36.0046C56.7159 35.6094 57.1109 35.2708 57.5623 35.1014C57.6751 34.6499 57.9009 34.1983 58.2958 33.8596C58.6344 33.5209 59.0858 33.2951 59.5937 33.2387C59.7629 32.7871 60.1015 32.4484 60.5529 32.1662C61.0043 31.884 61.4558 31.7711 61.9636 31.7711C62.2457 31.376 62.6407 31.0937 63.0921 30.9244C63.5436 30.755 64.0514 30.7551 64.5028 30.8679C64.8414 30.5293 65.2928 30.3035 65.8006 30.247C66.3085 30.1906 66.8163 30.247 67.2113 30.4728C67.6063 30.247 68.1142 30.0777 68.622 30.1341C69.1298 30.1341 69.5813 30.3599 69.9762 30.6422C70.4277 30.4728 70.9355 30.4728 71.3869 30.5857C71.8948 30.6986 72.2898 30.9808 72.6283 31.3195C73.0797 31.2631 73.5876 31.3195 74.039 31.5453C74.4904 31.7711 74.829 32.1097 75.1111 32.5049C75.5625 32.5613 76.0704 32.7307 76.4654 33.0129C76.8603 33.2951 77.1425 33.7467 77.3118 34.1983C77.7632 34.3112 78.2146 34.5934 78.5532 34.9885C78.8917 35.3837 79.061 35.8352 79.1174 36.2868C79.5688 36.5126 79.9074 36.8512 80.1331 37.3028C80.3588 37.7544 80.4717 38.206 80.4152 38.714C80.8102 38.9962 81.0924 39.4478 81.2052 39.8994C81.3745 40.4074 81.3745 40.8589 81.2052 41.367C81.4874 41.7056 81.6566 42.1007 81.7695 42.5523C81.7695 42.6088 81.7695 42.6652 81.7695 42.7217C81.8259 43.2297 81.7131 43.6813 81.4874 44.1328C81.7131 44.528 81.8259 45.036 81.7695 45.544C81.7131 46.052 81.5438 46.5036 81.2052 46.8987C81.3181 47.3503 81.3745 47.8583 81.2052 48.3099C81.0359 48.8179 80.7538 49.213 80.4152 49.4952C80.4717 49.9468 80.3588 50.4548 80.1331 50.9064C79.9074 51.358 79.5124 51.6966 79.1174 51.9224C79.061 52.374 78.8917 52.882 78.5532 53.2207C78.2146 53.6158 77.8196 53.8416 77.3682 54.011C77.1989 54.4625 76.9168 54.8576 76.5218 55.1963C76.1268 55.535 75.6754 55.7043 75.1675 55.7043C74.9418 56.0995 74.5468 56.4946 74.0954 56.6639C73.644 56.8897 73.1362 56.9462 72.6848 56.8897C72.3462 57.2284 71.9512 57.5106 71.4433 57.6235C70.9355 57.7364 70.4841 57.7364 70.0327 57.5671C69.6377 57.8493 69.1863 58.0186 68.6784 58.0751C68.5656 57.6799 68.5656 57.68 68.5656 57.68ZM67.2678 54.6883C67.3242 54.6883 67.3242 54.6883 67.2678 54.6883C67.7192 54.6883 68.1141 54.9705 68.2834 55.3092C68.2834 55.3657 68.3963 55.4221 68.4527 55.4221C68.5656 55.4221 68.622 55.3657 68.622 55.3092C68.7349 54.9141 69.1298 54.6319 69.5248 54.5754C69.9198 54.519 70.3148 54.6883 70.5969 54.9705C70.6534 55.027 70.7098 55.0834 70.8226 55.027C70.8791 55.027 70.9355 54.9141 70.9355 54.8577C70.9919 54.4625 71.2741 54.1238 71.6691 53.9545C72.064 53.7851 72.459 53.898 72.7976 54.1238C72.854 54.1803 72.9104 54.1803 73.0233 54.1803C73.1362 54.1238 73.1362 54.0674 73.1362 53.9545C73.1362 53.5594 73.3054 53.1642 73.644 52.9385C73.9826 52.7127 74.434 52.7127 74.7725 52.9385C74.829 52.9949 74.8854 52.9949 74.9982 52.9385C75.0547 52.882 75.1111 52.7691 75.0547 52.7127C74.9418 52.3175 75.0547 51.9224 75.3368 51.5837C75.6189 51.3015 76.0704 51.1886 76.4654 51.3015C76.5218 51.3015 76.6346 51.3015 76.6911 51.2451C76.7475 51.1886 76.7475 51.0757 76.7475 51.0193C76.5782 50.6241 76.5782 50.229 76.8039 49.8903C77.0296 49.5517 77.4246 49.3823 77.876 49.3823C77.9325 49.3823 78.0453 49.3823 78.1017 49.2694C78.1582 49.1566 78.1017 49.1001 78.1017 49.0436C77.876 48.705 77.8196 48.3098 77.9325 47.9147C78.1017 47.5196 78.4403 47.2938 78.8353 47.2374C78.8917 47.2374 79.0046 47.1809 79.0046 47.068C79.0046 46.9551 79.0046 46.8987 78.9481 46.8423C78.6096 46.56 78.4967 46.1649 78.5532 45.7698C78.6096 45.3746 78.9481 45.036 79.3431 44.9231C79.3996 44.9231 79.456 44.8666 79.5124 44.7537C79.5124 44.6408 79.456 44.5844 79.3996 44.5844C79.061 44.3586 78.8353 44.02 78.8353 43.5684C78.8353 43.1168 79.061 42.7781 79.3996 42.5523C79.456 42.5523 79.5124 42.4959 79.5124 42.383C79.5124 42.383 79.5124 42.383 79.5124 42.3266C79.5124 42.2137 79.456 42.1572 79.3431 42.1572C78.9481 42.0443 78.666 41.7057 78.5532 41.3105C78.4967 40.9154 78.6096 40.4638 78.9481 40.238C79.0046 40.1816 79.061 40.1251 79.0046 40.0122C78.9481 39.8993 78.8917 39.8994 78.8353 39.8994C78.4403 39.8429 78.0453 39.6171 77.876 39.222C77.7067 38.8269 77.7632 38.4318 78.0453 38.0931C78.1017 38.0366 78.1017 37.9802 78.0453 37.8673C77.9889 37.7544 77.9325 37.7544 77.876 37.7544C77.481 37.8108 77.0861 37.6415 76.8039 37.3028C76.5782 36.9641 76.5218 36.5126 76.6911 36.1739C76.6911 36.1174 76.7475 36.0046 76.6346 35.9481C76.5782 35.8917 76.5218 35.8917 76.4654 35.8917C76.0704 36.0045 75.6189 35.9481 75.3368 35.6659C75.0547 35.3837 74.8854 34.9321 74.9982 34.537C74.9982 34.4805 74.9983 34.3676 74.9418 34.3112C74.8854 34.2547 74.7725 34.2547 74.7161 34.3112C74.3775 34.5369 73.9261 34.4805 73.5876 34.3112C73.249 34.0854 73.0233 33.6903 73.0797 33.2951C73.0797 33.2387 73.0233 33.1258 72.9669 33.1258C72.854 33.0694 72.7976 33.1258 72.7412 33.1258C72.4026 33.408 72.0076 33.4645 71.6126 33.3516C71.2176 33.1822 70.9355 32.8436 70.8791 32.4484C70.8791 32.392 70.8227 32.3356 70.7098 32.2791C70.6534 32.2791 70.5405 32.2791 70.5405 32.3355C70.3148 32.6742 69.8634 32.8436 69.4684 32.7871C69.0734 32.7307 68.7348 32.4484 68.5656 32.0533C68.5656 31.9969 68.4527 31.9404 68.3963 31.9404C68.2834 31.9404 68.227 31.9969 68.227 32.0533C68.0577 32.4484 67.6627 32.6742 67.2678 32.6742C66.8728 32.6742 66.4778 32.5049 66.2521 32.1097C66.1956 32.0533 66.1392 31.9969 66.0828 31.9969C65.9699 31.9969 65.9135 32.1098 65.9135 32.1662C65.8006 32.5613 65.5185 32.9 65.1235 32.9564C64.7285 33.0693 64.2771 32.9565 63.995 32.6178C63.9386 32.5613 63.8821 32.5049 63.7693 32.5613C63.6564 32.6178 63.6564 32.6742 63.6564 32.7307C63.6564 33.1258 63.3743 33.5209 63.0357 33.6903C62.6407 33.8596 62.2457 33.8596 61.9072 33.5774C61.8508 33.5209 61.7943 33.5209 61.6815 33.5774C61.5686 33.6338 61.5686 33.7467 61.5686 33.8031C61.625 34.1983 61.4558 34.5934 61.1172 34.8756C60.7786 35.1014 60.3272 35.1579 59.9887 34.9885C59.9322 34.9885 59.8758 34.9885 59.763 35.045C59.6501 35.1014 59.7065 35.2143 59.7065 35.2708C59.8758 35.6659 59.763 36.1175 59.4808 36.3997C59.1987 36.7384 58.8037 36.8513 58.4087 36.7948C58.3523 36.7948 58.2394 36.7948 58.183 36.9077C58.1266 36.9641 58.1266 37.077 58.183 37.1335C58.4087 37.4722 58.4087 37.9237 58.2394 38.2624C58.0137 38.6011 57.6751 38.8269 57.2237 38.8269C57.1673 38.8269 57.0544 38.8833 57.0544 38.9398C57.0544 38.9962 57.0545 39.1091 57.1109 39.1091C57.393 39.3913 57.5059 39.8429 57.393 40.238C57.2802 40.6332 56.9416 40.9154 56.5466 41.0283C56.4902 41.0283 56.4338 41.0847 56.3773 41.1976C56.3773 41.3105 56.4337 41.3669 56.4337 41.4234C56.7723 41.6492 56.9416 42.0443 56.9416 42.4395C56.9416 42.8346 56.6595 43.2297 56.2645 43.3426C56.208 43.3426 56.1516 43.4555 56.1516 43.5119C56.1516 43.6813 56.208 43.7377 56.2645 43.7377C56.6595 43.9071 56.8852 44.2457 56.9416 44.6408C56.998 45.036 56.7723 45.4311 56.4337 45.6569C56.3773 45.7133 56.3209 45.7698 56.3773 45.8827C56.3773 45.9391 56.4902 45.9956 56.5466 46.052C56.9416 46.1084 57.2802 46.4471 57.393 46.8423C57.5059 47.2374 57.393 47.689 57.1109 47.9712C57.0545 48.0276 57.0544 48.0841 57.0544 48.197C57.1109 48.3098 57.1673 48.3099 57.2237 48.3099C57.6187 48.3099 58.0137 48.5356 58.183 48.8743C58.4087 49.213 58.3523 49.6646 58.183 50.0032C58.183 50.0032 58.1266 50.1161 58.183 50.229C58.2394 50.2855 58.2958 50.3419 58.4087 50.2855C58.8037 50.1726 59.2551 50.3419 59.4808 50.6242C59.763 50.9629 59.8194 51.358 59.7065 51.7531C59.7065 51.8095 59.7065 51.866 59.763 51.9789C59.8194 52.0353 59.9322 52.0353 59.9887 52.0353C60.3836 51.866 60.7786 51.9224 61.1172 52.2047C61.4558 52.4305 61.625 52.882 61.5686 53.2771C61.5686 53.3336 61.5686 53.39 61.625 53.4465C61.625 53.4465 61.625 53.4465 61.6815 53.4465C61.7379 53.5029 61.8508 53.5029 61.9072 53.4465C62.2457 53.2207 62.6972 53.1643 63.0357 53.3336C63.4307 53.5029 63.6564 53.8981 63.6564 54.2932C63.6564 54.3496 63.7128 54.4061 63.7693 54.4625C63.7693 54.4625 63.7693 54.4625 63.8257 54.4625C63.8821 54.4625 63.9386 54.4625 63.995 54.4061C64.2771 54.1238 64.6721 53.9545 65.1235 54.0674C65.5185 54.1803 65.8571 54.4625 65.9135 54.8577C65.9135 54.9141 65.9699 54.9705 66.0828 55.027H66.1392C66.1956 55.027 66.2521 54.9705 66.3085 54.9141C66.5342 54.9141 66.8728 54.6883 67.2678 54.6883Z" fill="#153634"/>
<path d="M53.8936 41.3104C53.4422 40.9717 52.8215 41.0846 52.4829 41.5362L51.6365 42.7216L51.3544 42.4958C49.7744 41.3104 47.5738 41.6491 46.3888 43.2296L38.0376 55.1398L42.721 58.6394L52.5394 44.8101L54.0629 42.7216C54.4579 42.27 54.345 41.6491 53.8936 41.3104Z" fill="#B17F4A"/>
<path d="M42.835 59.3732L37.3052 55.1962L45.9949 42.8344C46.6721 41.9313 47.6313 41.3668 48.7034 41.1975C49.7191 41.0282 50.7348 41.2539 51.5812 41.8184L52.1455 41.0846C52.6533 40.4072 53.669 40.2379 54.3461 40.7459C55.0233 41.254 55.1926 42.27 54.6847 42.9473L53.1612 45.0358L42.835 59.3732ZM38.8287 54.9704L42.6093 57.7927L52.0891 44.415L53.669 42.3264C53.8383 42.1571 53.7819 41.8748 53.5562 41.7055C53.3869 41.5362 53.1047 41.5926 52.9355 41.8184L51.7505 43.4554L51.017 42.8909C50.3963 42.4393 49.6063 42.2135 48.8163 42.3264C48.0263 42.4393 47.3492 42.8344 46.8413 43.5118L38.8287 54.9704Z" fill="#153634"/>
<path d="M80.0763 58.0186H48.8157H46.1636C46.1072 58.0186 46.1072 57.9621 46.1072 57.9057L51.1292 50.9628V50.9064L43.5115 45.4311H43.4551L36.0067 55.7607C34.4832 57.8493 34.0318 60.6151 35.0475 63.0423C36.2324 65.8082 38.8845 67.5581 41.8187 67.5581H41.8751L48.8721 67.5016H56.264C56.3205 67.5016 56.3205 67.5016 56.3205 67.5581V81.839C56.3205 84.8307 58.7468 87.2578 61.7375 87.2578H74.3771C77.3678 87.2578 79.7941 84.8307 79.7941 81.839V67.6145C79.7941 67.558 79.7941 67.5581 79.8505 67.5581H80.0198C82.1076 67.5581 83.8004 69.2514 83.8004 71.3399V94.3701C83.8004 94.4265 83.8004 94.4265 83.8569 94.4265H93.2238C93.2802 94.4265 93.2802 94.4265 93.2802 94.3701V71.2835C93.3366 63.9455 87.3553 58.0186 80.0763 58.0186Z" fill="#F0C428"/>
<path d="M43.9637 48.5365L48.0265 51.4717L44.3023 56.6648C43.7944 57.3986 43.738 58.3018 44.133 59.092C44.528 59.8823 45.318 60.3338 46.2208 60.3338H48.8164H80.077C86.1147 60.3338 91.0803 65.2446 91.0803 71.3409V92.226H86.1147V71.3973C86.1147 68.067 83.4062 65.3576 80.077 65.3576H79.9078C78.6099 65.3576 77.5942 66.3736 77.5942 67.6718V81.9528C77.5942 83.7026 76.1836 85.1138 74.4343 85.1138H61.7947C60.0454 85.1138 58.6347 83.7026 58.6347 81.9528V67.6154C58.6347 66.3171 57.6191 65.3011 56.3212 65.3011H48.8729L41.8195 65.3576H41.763C39.7317 65.3576 37.8696 64.1157 37.0796 62.1966C36.4025 60.6161 36.6846 58.6404 37.7567 57.1164L43.9637 48.5365ZM43.4559 45.432C43.3994 45.432 43.3994 45.432 43.4559 45.432L35.9511 55.8181C34.4275 57.9066 33.9761 60.6725 34.9918 63.0997C36.1768 65.8656 38.8288 67.6154 41.763 67.6154H41.8195L48.8164 67.559H56.2084C56.2648 67.559 56.2648 67.559 56.2648 67.6154V81.8963C56.2648 84.888 58.6912 87.3152 61.6818 87.3152H74.3215C77.3121 87.3152 79.7385 84.888 79.7385 81.8963V67.6154C79.7385 67.559 79.7385 67.559 79.7949 67.559H79.9642C82.052 67.559 83.7448 69.2523 83.7448 71.3409V94.371C83.7448 94.4275 83.7448 94.4275 83.8012 94.4275H93.1681C93.2245 94.4275 93.2245 94.4275 93.2245 94.371V71.2844C93.2245 64.0028 87.2997 58.0195 79.9642 58.0195H48.7036H46.0515C45.9951 58.0195 45.9951 57.9631 45.9951 57.9066L51.0171 50.9637V50.9073L43.4559 45.432Z" fill="#153634"/>
<path d="M76.3515 47.18C76.3515 42.4949 72.5145 38.6566 67.831 38.6566C63.1476 38.6566 59.3105 42.4949 59.3105 47.18C59.3105 49.8329 60.5519 52.2037 62.414 53.7842V55.9856C62.414 58.9208 64.784 61.2916 67.7182 61.2916C70.6524 61.2916 73.0223 58.9208 73.0223 55.9856V53.8406C75.1101 52.3166 76.3515 49.8894 76.3515 47.18Z" fill="#B17F4A"/>
<path d="M67.7754 62.4778C64.2205 62.4778 61.3427 59.599 61.3427 56.0429V54.3495C59.3678 52.5433 58.2393 49.9467 58.2393 47.2373C58.2393 41.9314 62.5841 37.585 67.8883 37.585C73.1924 37.585 77.5373 41.9314 77.5373 47.2373C77.5373 50.0032 76.3523 52.5997 74.321 54.406V56.0429C74.2645 59.599 71.3868 62.4778 67.7754 62.4778ZM67.8319 39.8428C63.7691 39.8428 60.4399 43.1732 60.4399 47.2373C60.4399 49.4387 61.4556 51.5272 63.1484 52.9384L63.5434 53.277V56.0429C63.5434 58.3572 65.4055 60.22 67.719 60.22C70.0325 60.22 71.8946 58.3572 71.8946 56.0429V53.3335L72.346 52.9948C74.1517 51.5837 75.1674 49.4952 75.1674 47.2373C75.2238 43.1167 71.8946 39.8428 67.8319 39.8428Z" fill="#153634"/>
<path d="M67.8315 56.7195C72.5373 56.7195 76.352 52.9034 76.352 48.1961C76.352 43.4888 72.5373 39.6727 67.8315 39.6727C63.1258 39.6727 59.311 43.4888 59.311 48.1961C59.311 52.9034 63.1258 56.7195 67.8315 56.7195Z" fill="#B17F4A"/>
<path d="M67.8321 57.8494C62.528 57.8494 58.1831 53.503 58.1831 48.197C58.1831 42.891 62.528 38.5447 67.8321 38.5447C73.1363 38.5447 77.4812 42.891 77.4812 48.197C77.4812 53.503 73.1927 57.8494 67.8321 57.8494ZM67.8321 40.8025C63.7694 40.8025 60.4402 44.1329 60.4402 48.197C60.4402 52.2611 63.7694 55.5915 67.8321 55.5915C71.8949 55.5915 75.2241 52.2611 75.2241 48.197C75.2241 44.1329 71.8949 40.8025 67.8321 40.8025Z" fill="#153634"/>
<path d="M67.8314 36.9643C63.3737 36.9643 59.5366 39.5044 57.731 43.2863L59.8188 45.3748C61.0037 42.1009 64.1636 39.7301 67.8314 39.7301C71.4992 39.7301 74.6591 42.1009 75.844 45.3748L77.9318 43.2863C76.1262 39.5608 72.2891 36.9643 67.8314 36.9643Z" fill="#F0C428"/>
<path d="M75.6753 46.3908L75.3932 45.5441C74.2647 42.3831 71.2176 40.2945 67.8884 40.2945C64.5592 40.2945 61.5121 42.4395 60.3836 45.5441L60.1015 46.3908L57.1108 43.3991L57.2801 43.0604C59.3115 38.9963 63.3742 36.4562 67.8884 36.4562C72.4026 36.4562 76.5218 38.9963 78.4967 43.0604L78.666 43.3991L75.6753 46.3908ZM58.4087 43.1733L59.5936 44.3587C61.1172 41.1977 64.2771 39.1656 67.832 39.1656C71.3869 39.1656 74.5468 41.2541 76.0703 44.3587L77.2553 43.1733C75.3932 39.6736 71.7819 37.5287 67.832 37.5287C63.8821 37.5287 60.3272 39.6736 58.4087 43.1733Z" fill="#153634"/>
<path d="M31.7748 81.218H30.1949V80.2585C29.9127 79.9762 29.687 79.6375 29.687 79.2424C29.7434 78.7344 30.1949 78.4522 30.5898 78.2264C30.6463 78.1699 30.8156 78.1135 30.872 78.057C30.8156 77.9441 30.7591 77.8313 30.7027 77.7748C30.477 77.4361 30.1949 76.9846 30.3641 76.4765C30.5334 76.025 31.0413 75.8556 31.4927 75.7427C31.6055 75.7427 31.7184 75.6863 31.8312 75.6298C31.8312 75.517 31.7748 75.404 31.7184 75.2911C31.6055 74.896 31.3798 74.388 31.7184 73.9365C32.0005 73.5413 32.5648 73.4849 32.9598 73.4849C33.0726 73.4849 33.1855 73.4849 33.2983 73.4849C33.2983 73.372 33.2983 73.2591 33.2983 73.1462C33.2419 72.6946 33.2419 72.1866 33.5805 71.8479C33.9755 71.5093 34.4833 71.6221 34.9347 71.735C35.0476 71.735 35.1604 71.7915 35.2733 71.7915C35.2733 71.6786 35.3297 71.5657 35.3297 71.4528C35.3861 71.0012 35.499 70.4932 35.9504 70.2674C36.4018 70.0417 36.9097 70.2674 37.2482 70.4368C37.3611 70.4932 37.4739 70.5497 37.5868 70.6061C37.6432 70.4932 37.6997 70.3803 37.6997 70.2674C37.8689 69.8723 38.0946 69.3643 38.5461 69.2514C39.0539 69.1385 39.4489 69.4772 39.7875 69.7594C39.8439 69.8159 39.9567 69.9288 40.0696 69.9852C40.126 69.9288 40.2389 69.8159 40.2953 69.703C40.5774 69.3643 40.8596 68.9127 41.3674 68.9127H41.4238C41.4803 68.9127 41.5367 68.9127 41.5367 68.9127C41.5931 68.9127 41.6495 68.9127 41.6495 68.9127C41.706 68.9127 41.7624 68.9127 41.7624 68.9127C41.8188 68.9127 41.8753 68.9127 41.8753 68.9127C41.9317 68.9127 41.9881 68.9127 41.9881 68.9127H42.0445C42.3267 68.9127 42.496 69.0256 42.5524 69.2514C42.7217 69.0256 42.9474 68.8563 43.2295 68.8563C43.6809 68.7998 44.0759 69.082 44.3581 69.3643C44.4145 69.4207 44.5273 69.4772 44.5838 69.5336C44.6402 69.4208 44.6402 69.3643 44.6966 69.2514C44.8659 68.8563 45.0352 68.4047 45.4866 68.2918C45.938 68.1225 46.333 68.3482 46.728 68.5176C46.7844 68.574 46.8973 68.574 47.0101 68.6305C47.0101 68.5176 47.0666 68.4047 47.0666 68.3482C47.123 67.9531 47.1794 67.4451 47.5744 67.2193C47.9694 66.9371 48.4208 67.05 48.8158 67.1629C48.8722 67.1629 48.9851 67.2193 49.0979 67.2193C49.0979 67.1064 49.0979 66.9935 49.0979 66.9371C49.0415 66.542 49.0415 66.0339 49.3236 65.6953C49.6058 65.3566 50.1136 65.3566 50.5086 65.3002C50.565 65.3002 50.6779 65.3002 50.7907 65.3002C50.7907 65.1873 50.7343 65.1308 50.6779 65.0179C50.565 64.6228 50.3958 64.1712 50.6215 63.7761C50.8472 63.381 51.2986 63.2681 51.6936 63.1552C51.75 63.1552 51.8629 63.0987 51.9757 63.0987C51.9193 63.0423 51.8628 62.9294 51.8064 62.8729C51.5807 62.5343 51.2986 62.1392 51.4114 61.6876C51.5243 61.236 51.9193 61.0102 52.3143 60.7845C52.3707 60.728 52.4835 60.6715 52.54 60.6151C52.4835 60.5586 52.4271 60.5022 52.3707 60.4458C52.0886 60.1635 51.6936 59.8249 51.6936 59.3733C51.6936 58.7524 52.2014 58.4701 52.4835 58.3008C52.54 58.3008 52.54 58.2444 52.5964 58.2444C52.54 58.2444 52.4835 58.1879 52.4835 58.1879C52.2014 58.0186 51.6936 57.7363 51.6936 57.1154C51.6936 56.4945 52.2014 56.2123 52.4835 56.0429C52.54 56.0429 52.54 55.9865 52.5964 55.9865C52.54 55.9865 52.4835 55.93 52.4835 55.93C52.2014 55.7607 51.6936 55.4785 51.6936 54.8576C51.6936 54.2367 52.2014 53.9544 52.4835 53.7851C52.54 53.7851 52.54 53.7286 52.5964 53.7286C52.54 53.7286 52.4835 53.6722 52.4835 53.6722C52.2014 53.5028 51.6936 53.2206 51.6936 52.5997C51.6936 51.9788 52.2014 51.6966 52.4835 51.5272C52.54 51.5272 52.54 51.4708 52.5964 51.4708C52.54 51.4708 52.4835 51.4143 52.4835 51.4143C52.2014 51.245 51.6936 50.9628 51.6936 50.3419C51.6936 49.721 52.2014 49.4387 52.4835 49.2694C52.54 49.2694 52.54 49.2129 52.5964 49.2129C52.54 49.2129 52.4835 49.1565 52.4835 49.1565C52.2014 48.9871 51.6936 48.7049 51.6936 48.084C51.6936 47.4631 52.2014 47.1809 52.4835 47.0115C52.54 47.0115 52.54 46.9551 52.5964 46.9551C52.54 46.9551 52.4835 46.8986 52.4835 46.8986C52.2014 46.7293 51.6936 46.4471 51.6936 45.8262C51.6936 45.2052 52.2014 44.923 52.4835 44.7537C52.5964 44.6972 52.7093 44.6408 52.7093 44.5843C52.7093 44.5843 52.6528 44.6408 52.6528 44.6972H53.7814C53.7814 45.3181 53.2735 45.6003 52.9914 45.7697C52.935 45.7697 52.935 45.8262 52.8785 45.8262C52.935 45.8262 52.9914 45.8826 52.9914 45.8826C53.2735 46.0519 53.7814 46.3342 53.7814 46.9551C53.7814 47.576 53.2735 47.8582 52.9914 48.0275C52.935 48.0275 52.935 48.084 52.8785 48.084C52.935 48.084 52.9914 48.1404 52.9914 48.1404C53.2735 48.3098 53.7814 48.592 53.7814 49.2129C53.7814 49.8338 53.2735 50.1161 52.9914 50.2854C52.935 50.2854 52.935 50.3419 52.8785 50.3419C52.935 50.3419 52.9914 50.3983 52.9914 50.3983C53.2735 50.5676 53.7814 50.8499 53.7814 51.4708C53.7814 52.0917 53.2735 52.3739 52.9914 52.5433C52.935 52.5433 52.935 52.5997 52.8785 52.5997C52.935 52.5997 52.9914 52.6562 52.9914 52.6562C53.2735 52.8255 53.7814 53.1077 53.7814 53.7286C53.7814 54.3496 53.2735 54.6318 52.9914 54.8011C52.935 54.8011 52.935 54.8576 52.8785 54.8576C52.935 54.8576 52.9914 54.914 52.9914 54.914C53.2735 55.0833 53.7814 55.3656 53.7814 55.9865C53.7814 56.6074 53.2735 56.8896 52.9914 57.059C52.935 57.059 52.935 57.1154 52.8785 57.1154C52.935 57.1154 52.9914 57.1719 52.9914 57.1719C53.2735 57.3412 53.7814 57.6235 53.7814 58.2444C53.7814 58.8653 53.2735 59.1475 52.9914 59.3168C52.935 59.3168 52.8785 59.3733 52.8221 59.4297C52.8785 59.4862 52.9914 59.5991 53.0478 59.6555C53.3864 59.9378 53.7249 60.3329 53.6685 60.8409C53.6121 61.3489 53.1607 61.6311 52.7657 61.8569C52.6528 61.9134 52.54 61.9698 52.4835 62.0262C52.54 62.1391 52.5964 62.252 52.6528 62.3085C52.8785 62.6472 53.1607 63.0988 52.9914 63.6068C52.8221 64.0583 52.3143 64.2277 51.8629 64.3406C51.75 64.3406 51.6371 64.397 51.5243 64.4535C51.5243 64.5664 51.5807 64.6792 51.6371 64.7921C51.75 65.1873 51.9757 65.6953 51.6371 66.1469C51.2986 66.5984 50.7907 66.5984 50.3957 66.5984C50.2829 66.5984 50.17 66.5984 50.0572 66.5984C50.0572 66.7113 50.0572 66.8242 50.0572 66.9371C50.1136 67.3887 50.1136 67.8967 49.7751 68.2353C49.3801 68.574 48.8722 68.4611 48.4208 68.3482C48.3079 68.3482 48.1951 68.2918 48.0822 68.2918C48.0822 68.4047 48.0258 68.5176 48.0258 68.6305C47.9694 69.0821 47.8565 69.5901 47.4051 69.8159C46.9537 70.0417 46.4459 69.8158 46.1073 69.6465C45.9944 69.5901 45.8816 69.5336 45.7687 69.4772C45.7123 69.5901 45.6559 69.703 45.6559 69.8159C45.4866 70.211 45.2609 70.719 44.8095 70.8319C44.3016 70.9448 43.9066 70.6061 43.5681 70.3239C43.5116 70.2674 43.3988 70.1546 43.2859 70.0981C43.2295 70.1546 43.1167 70.2674 43.0602 70.3803C42.7781 70.719 42.496 71.1706 41.9881 71.1706H41.9317C41.8753 71.1706 41.8188 71.1706 41.8188 71.1706C41.7624 71.1706 41.706 71.1706 41.706 71.1706C41.6496 71.1706 41.5931 71.1706 41.5931 71.1706C41.5367 71.1706 41.4803 71.1706 41.4803 71.1706C41.4238 71.1706 41.3674 71.1706 41.3674 71.1706H41.311C41.0289 71.1706 40.8596 71.0577 40.8031 70.8319C40.6339 71.0577 40.4082 71.227 40.0696 71.2835C39.6182 71.3399 39.2232 71.0577 38.941 70.7754C38.8846 70.719 38.7718 70.6626 38.7153 70.6061C38.6589 70.719 38.6589 70.7754 38.6025 70.8883C38.4332 71.2835 38.2639 71.735 37.8125 71.8479C37.3611 72.0173 36.9661 71.7915 36.5711 71.6221C36.5147 71.5657 36.4018 71.5657 36.289 71.5093C36.289 71.6222 36.2326 71.7351 36.2326 71.7915C36.1761 72.1866 36.1197 72.6946 35.7247 72.9204C35.3297 73.2027 34.8783 73.0898 34.4833 72.9769C34.4269 72.9769 34.314 72.9204 34.2012 72.9204C34.2012 73.0333 34.2012 73.1462 34.2012 73.2027C34.2576 73.5978 34.2576 74.1058 33.9755 74.4445C33.6933 74.7831 33.1855 74.7831 32.7905 74.8396C32.7341 74.8396 32.6212 74.8396 32.5084 74.8396C32.5084 74.9525 32.5648 75.0089 32.6212 75.1218C32.7341 75.5169 32.9034 75.9685 32.6776 76.3636C32.4519 76.7588 32.0005 76.8716 31.6055 76.9845C31.5491 76.9845 31.4362 77.041 31.3234 77.041C31.3798 77.0975 31.4362 77.2103 31.4927 77.2668C31.7184 77.6055 32.0005 78.0006 31.8877 78.4522C31.7748 78.9037 31.3798 79.1295 30.9848 79.3553C30.9284 79.4117 30.8155 79.4682 30.7591 79.5246C30.8155 79.5811 30.872 79.6376 30.9284 79.694C31.2105 79.9762 31.6055 80.3149 31.6055 80.7665V81.218H31.7748Z" fill="#153634"/>
<path d="M54.2895 49.5516L55.9259 40.746L57.6187 41.1411L58.2394 37.7543C55.8695 37.3028 53.556 38.8833 53.1046 41.254L51.8632 47.8018C51.4117 50.1725 52.9917 52.4868 55.3616 52.9384L55.9259 49.9467L54.2895 49.5516Z" fill="white"/>
<path d="M55.4747 53.6723C55.4183 53.6723 55.3618 53.6723 55.3618 53.6723C54.0076 53.4465 52.8226 52.6562 52.0891 51.5273C51.2991 50.3984 51.0169 49.0437 51.2991 47.689L52.5405 41.1412C52.7662 39.7865 53.5562 38.6011 54.6847 37.8673C55.8133 37.0771 57.1675 36.7948 58.5218 37.0771C58.9167 37.1335 59.1989 37.5286 59.086 37.9238L58.4653 41.3105C58.4089 41.4799 58.296 41.6492 58.1268 41.7621C57.9575 41.875 57.7318 41.9315 57.5625 41.875L56.6032 41.6492L55.1925 49.0437L56.2082 49.2695C56.6032 49.3823 56.8289 49.721 56.7725 50.1161L56.2082 53.1078C56.1518 53.2771 56.039 53.4465 55.9261 53.5594C55.7568 53.6158 55.5875 53.6723 55.4747 53.6723ZM57.4496 38.3753C56.7161 38.3753 56.039 38.6011 55.4183 38.9962C54.6283 39.5607 54.064 40.4074 53.8947 41.367L52.6533 47.9147C52.3148 49.6646 53.274 51.358 54.9104 51.9789L55.1925 50.4548L54.1769 50.229C53.7819 50.1162 53.5562 49.7775 53.6126 49.3824L55.249 40.5767C55.3054 40.4074 55.4183 40.238 55.5875 40.1252C55.7568 40.0123 55.9825 39.9558 56.1518 40.0123L57.1111 40.2381L57.4496 38.3753Z" fill="#153634"/>
<path d="M105.129 147.034C100.84 148.727 98.6959 153.525 100.332 157.871L111.843 153.412L113.198 150.364L116.245 151.719L118.84 150.703L115.793 142.913L105.129 147.034Z" fill="#706F6F"/>
<path d="M100.334 159.001C99.8825 159.001 99.4311 158.719 99.2618 158.267C97.3433 153.413 99.8261 147.881 104.679 145.962L115.4 141.785C115.964 141.559 116.641 141.841 116.867 142.406L119.914 150.195C120.14 150.76 119.858 151.437 119.293 151.663L116.698 152.679C116.416 152.792 116.134 152.792 115.851 152.679L113.82 151.776L112.917 153.808C112.804 154.09 112.579 154.316 112.296 154.429L100.785 158.888C100.616 159.001 100.503 159.001 100.334 159.001ZM105.525 148.107C102.14 149.405 100.334 152.961 101.067 156.404L110.999 152.566L112.184 149.913C112.409 149.349 113.086 149.066 113.651 149.349L116.303 150.534L117.431 150.082L115.174 144.381L105.525 148.107Z" fill="#153634"/>
<path d="M85.7738 147.993C81.1468 147.993 77.3662 151.718 77.3662 156.291L89.7237 156.347L92.0937 153.976L94.4636 156.347H97.2286L97.285 147.993H85.7738Z" fill="#706F6F"/>
<path d="M97.2299 157.59H94.4086C94.1264 157.59 93.8443 157.477 93.6186 157.251L92.0386 155.671L90.4587 157.251C90.233 157.477 89.9508 157.59 89.6687 157.59L77.3112 157.534C77.029 157.534 76.7469 157.421 76.5212 157.195C76.2955 156.969 76.1826 156.687 76.1826 156.405C76.1826 153.865 77.1983 151.494 79.004 149.687C80.8096 147.938 83.1796 146.922 85.6624 146.922H85.7188L97.2299 146.978C97.8506 146.978 98.3585 147.486 98.3585 148.107L98.3021 156.461C98.3585 157.082 97.8506 157.59 97.2299 157.59ZM94.9164 155.332H96.1014L96.1578 149.236L85.7752 149.179C85.7752 149.179 85.7752 149.179 85.7188 149.179C83.8003 149.179 81.9946 149.913 80.6404 151.268C79.5118 152.34 78.8347 153.752 78.609 155.219L89.2737 155.276L91.3051 153.244C91.5308 153.018 91.8129 152.961 92.0951 152.905C92.3772 152.905 92.6593 153.018 92.885 153.244L94.9164 155.332Z" fill="#153634"/>
<path d="M90.1193 43.5193C85.7744 39.0035 83.0659 32.8509 83.0659 26.1338C83.0659 12.3044 94.2385 1.12807 108.063 1.12807C121.888 1.12807 133.06 12.3044 133.06 26.1338C133.06 39.9631 121.888 51.1395 108.063 51.1395C105.185 51.1395 102.364 50.6315 99.7683 49.7284H90.1193V43.5193Z" fill="white"/>
<path d="M108.064 52.2693C105.186 52.2693 102.308 51.8177 99.5997 50.8581H88.9914V43.9717C84.4208 39.1173 81.938 32.7953 81.938 26.1347C81.938 11.7408 93.6748 0 108.064 0C122.453 0 134.189 11.7408 134.189 26.1347C134.189 40.5285 122.453 52.2693 108.064 52.2693ZM91.2485 48.6003H99.9382L100.107 48.6567C102.647 49.5599 105.299 50.0114 108.007 50.0114C121.155 50.0114 131.876 39.2866 131.876 26.1347C131.876 12.9827 121.155 2.25785 108.007 2.25785C94.8598 2.25785 84.1386 12.9827 84.1386 26.1347C84.1386 32.4002 86.5086 38.2706 90.9099 42.7863L91.2485 43.125V48.6003Z" fill="#153634"/>
<path d="M101.123 38.1014C101.123 40.3028 99.3178 42.1091 97.1172 42.1091C94.9165 42.1091 93.1108 40.3028 93.1108 38.1014C93.1108 35.8999 94.9165 34.0936 97.1172 34.0936C99.3742 34.0936 101.123 35.8435 101.123 38.1014Z" fill="#EFC429"/>
<path d="M101.293 14.1681C101.293 16.3695 99.4872 18.1758 97.2866 18.1758C95.0859 18.1758 93.2803 16.3695 93.2803 14.1681C93.2803 11.9667 95.0859 10.1604 97.2866 10.1604C99.5437 10.1604 101.293 11.9667 101.293 14.1681Z" fill="#DD6E25"/>
<path d="M112.013 11.2325C112.013 12.8128 110.715 14.1109 109.135 14.1109C107.555 14.1109 106.258 12.8128 106.258 11.2325C106.258 9.65218 107.555 8.35409 109.135 8.35409C110.715 8.35409 112.013 9.65218 112.013 11.2325Z" fill="#EFC429"/>
<path d="M112.013 41.0926C112.013 42.6729 110.715 43.9711 109.135 43.9711C107.555 43.9711 106.258 42.6729 106.258 41.0926C106.258 39.5123 107.555 38.2142 109.135 38.2142C110.715 38.2142 112.013 39.4559 112.013 41.0926Z" fill="#DE6E24"/>
<path d="M96.3267 26.1344C96.3267 27.7147 95.029 29.0128 93.4492 29.0128C91.8694 29.0128 90.5718 27.7147 90.5718 26.1344C90.5718 24.5541 91.8694 23.2559 93.4492 23.2559C95.029 23.2559 96.3267 24.5541 96.3267 26.1344Z" fill="#4FADB6"/>
<path d="M121.042 36.2948C121.042 37.2543 120.252 38.1009 119.237 38.1009C118.221 38.1009 117.431 37.3107 117.431 36.2948C117.431 35.3353 118.221 34.4887 119.237 34.4887C120.252 34.4887 121.042 35.2789 121.042 36.2948Z" fill="#BD2D26"/>
<path d="M109.305 26.1346C109.023 26.1346 108.798 26.1911 108.628 26.304C108.459 26.4168 108.29 26.5861 108.233 26.7555V27.3763C108.233 28.5051 108.628 29.0695 109.362 29.0695C109.644 29.0695 109.926 28.9566 110.152 28.6744C110.377 28.3922 110.49 28.0536 110.49 27.6021C110.49 27.1505 110.377 26.8119 110.152 26.5297C109.982 26.2475 109.7 26.1346 109.305 26.1346Z" fill="#163735"/>
<path d="M101.913 25.2313C102.646 25.2313 103.041 24.8362 103.041 24.1025C103.041 23.8203 102.928 23.5945 102.759 23.3688C102.59 23.1994 102.308 23.0866 101.969 23.0866C101.687 23.0866 101.461 23.143 101.292 23.3123C101.066 23.4817 101.01 23.651 101.01 23.8767H99.2608C99.0916 24.554 99.0352 25.2877 99.0352 26.0779C99.0352 26.7551 99.0916 27.376 99.2044 27.9968H100.897C100.897 28.279 101.01 28.5048 101.236 28.6741C101.461 28.8434 101.743 28.9563 102.025 28.9563C102.364 28.9563 102.646 28.8434 102.872 28.6741C103.097 28.4484 103.21 28.2226 103.21 27.8839C103.21 27.4324 103.097 27.1502 102.872 26.9245C102.646 26.7551 102.364 26.6423 101.969 26.6423H100.953V25.1184H101.913V25.2313Z" fill="#163735"/>
<path d="M116.472 23.1431C116.133 23.1431 115.851 23.3124 115.682 23.5946C115.513 23.8768 115.456 24.3283 115.4 24.8927V27.1503C115.4 27.8275 115.456 28.279 115.626 28.6177C115.795 28.8999 116.077 29.0692 116.415 29.0692C116.754 29.0692 117.036 28.8999 117.205 28.6177C117.375 28.3355 117.431 27.884 117.431 27.2067V25.0056C117.431 24.3847 117.375 23.8768 117.205 23.5946C117.093 23.3124 116.81 23.1431 116.472 23.1431Z" fill="#163735"/>
<path d="M116.471 30.594C115.512 30.594 114.722 30.2554 114.214 29.6344C113.706 29.0135 113.424 28.0539 113.424 26.8685V25.2881C113.424 24.1027 113.706 23.1995 114.214 22.5222C114.722 21.9012 115.512 21.5626 116.471 21.5626C117.318 21.5626 117.995 21.7884 118.503 22.2964C116.979 18.6274 113.368 15.9744 109.136 15.9744C104.904 15.9744 101.349 18.5709 99.8252 22.1835C99.9945 22.0142 100.22 21.9013 100.446 21.7884C100.897 21.5626 101.405 21.5061 101.969 21.5061C102.929 21.5061 103.719 21.7319 104.283 22.1835C104.847 22.6351 105.129 23.256 105.129 24.0462C105.129 24.4413 105.017 24.78 104.791 25.1187C104.565 25.4574 104.227 25.7396 103.775 25.9089C104.227 26.0783 104.622 26.3605 104.847 26.6992C105.129 27.0379 105.242 27.4895 105.242 27.9975C105.242 28.7877 104.96 29.4086 104.339 29.8602C103.719 30.3118 102.929 30.594 101.969 30.594C101.405 30.594 100.841 30.4811 100.389 30.2553C100.164 30.1424 99.9945 30.0296 99.8252 29.9167C101.349 33.5857 104.96 36.1822 109.192 36.1822C113.481 36.1822 117.148 33.5292 118.615 29.7473C118.051 30.3682 117.318 30.594 116.471 30.594ZM112.126 29.1264C111.844 29.578 111.506 29.9731 110.998 30.1989C110.546 30.4811 109.982 30.594 109.418 30.594C108.797 30.594 108.233 30.4247 107.725 30.1424C107.217 29.8602 106.879 29.4651 106.596 28.9006C106.314 28.3926 106.201 27.7717 106.201 27.0943V26.3041C106.201 25.4009 106.371 24.6107 106.766 23.8769C107.161 23.1431 107.725 22.5786 108.402 22.1835C109.136 21.7884 109.926 21.5626 110.772 21.5626H111.054V23.1431H110.941C110.208 23.1431 109.531 23.3124 109.079 23.7076C108.571 24.0462 108.289 24.5542 108.176 25.2316C108.628 24.78 109.192 24.5543 109.926 24.5543C110.659 24.5543 111.28 24.8365 111.731 25.401C112.183 25.9654 112.408 26.6992 112.408 27.6023C112.521 28.1104 112.408 28.6748 112.126 29.1264Z" fill="#163735"/>
<path d="M140.68 73.2025L128.435 73.3154L130.128 68.1788L135.883 65.4693L140.68 73.2025Z" fill="#F3D1BB"/>
<path d="M126.855 74.4444L129.281 67.3322L136.335 64.0583L142.711 74.3316L126.855 74.4444ZM131.087 68.9691L130.015 72.1301L138.648 72.0737L135.432 66.937L131.087 68.9691Z" fill="#153634"/>
<path d="M142.033 95.2164L141.695 94.3697L102.308 110.965C96.2143 113.449 93.3365 120.391 95.8193 126.431L96.1579 127.278L103.945 147.599C105.243 150.929 109.023 152.566 112.296 151.211C115.512 149.913 117.092 146.244 115.851 142.97L107.838 122.536L135.544 110.683C141.638 108.199 144.516 101.256 142.033 95.2164Z" fill="#575756"/>
<path d="M109.926 152.848C108.91 152.848 107.894 152.623 106.935 152.228C105.073 151.437 103.662 149.913 102.929 148.05L95.1419 127.73L94.8033 126.883C93.5055 123.666 93.5055 120.11 94.8598 116.949C96.214 113.731 98.6968 111.247 101.913 109.949L142.315 92.9024L143.105 94.8216C145.813 101.482 142.597 109.046 135.995 111.755L109.305 123.158L116.923 142.575C118.39 146.357 116.528 150.703 112.747 152.284C111.844 152.679 110.885 152.848 109.926 152.848ZM141.074 95.8376L102.76 111.981C100.107 113.054 98.0197 115.142 96.8911 117.795C95.7626 120.448 95.7626 123.383 96.8347 126.036L97.1733 126.883L104.96 147.204C105.468 148.558 106.484 149.575 107.782 150.139C109.079 150.703 110.547 150.703 111.844 150.195C114.496 149.123 115.794 146.075 114.722 143.422L106.314 121.916L135.036 109.611C140.509 107.409 143.161 101.256 141.074 95.8376Z" fill="#153634"/>
<path d="M135.769 118.359H84.7026C84.7026 111.303 90.4582 105.545 97.5116 105.545H148.578C148.522 112.601 142.823 118.359 135.769 118.359Z" fill="#878787"/>
<path d="M135.77 119.489H84.7032C84.0826 119.489 83.5747 118.981 83.5747 118.36C83.5747 110.683 89.8381 104.417 97.5122 104.417H148.579C149.199 104.417 149.707 104.925 149.707 105.546C149.651 113.223 143.444 119.489 135.77 119.489ZM85.8882 117.231H135.77C141.807 117.231 146.83 112.602 147.394 106.675H97.5122C91.4181 106.675 86.4525 111.304 85.8882 117.231Z" fill="#153634"/>
<path d="M84.4766 147.034V117.681C84.4766 110.626 90.2321 104.868 97.2855 104.868V147.034C97.2855 150.59 94.4077 153.412 90.9092 153.412C87.3543 153.412 84.4766 150.59 84.4766 147.034Z" fill="#878787"/>
<path d="M90.8534 154.542C86.6778 154.542 83.3486 151.155 83.3486 147.034V117.682C83.3486 110.006 89.612 103.74 97.2861 103.74H98.4147V147.034C98.4147 151.211 95.029 154.542 90.8534 154.542ZM96.1576 106.054C90.2327 106.619 85.6057 111.643 85.6057 117.682V147.034C85.6057 149.913 87.9756 152.284 90.8534 152.284C93.7312 152.284 96.1012 149.913 96.1012 147.034V106.054H96.1576Z" fill="#153634"/>
<path d="M111.167 83.5537H9.93701V126.678H111.167V83.5537Z" fill="white"/>
<path d="M112.295 128H8.80811V82.2341H112.295V128ZM11.0652 125.358H109.982V84.9418H11.0652V125.358Z" fill="#153634"/>
<path d="M57.2783 99.1106V75.6853C57.2783 72.5807 60.0997 70.0406 63.5982 70.0406H93.5045C97.003 70.0406 99.8243 72.5807 99.8243 75.6853V99.1106" fill="white"/>
<path d="M100.897 99.1116H98.6403V75.6863C98.6403 73.2026 96.3267 71.1706 93.449 71.1706H63.5426C60.6648 71.1706 58.3513 73.2026 58.3513 75.6863V99.1116H56.0942V75.6863C56.0942 71.9608 59.4234 68.9127 63.5426 68.9127H93.449C97.5681 68.9127 100.897 71.9608 100.897 75.6863V99.1116Z" fill="#153634"/>
<path d="M66.7033 78.5079C66.5905 78.5079 66.534 78.5079 66.4776 78.5643C66.4212 78.6208 66.3647 78.6772 66.3647 78.7337V78.903C66.3647 79.2417 66.4776 79.4111 66.7033 79.4111C66.8162 79.4111 66.8726 79.3546 66.9291 79.2982C66.9855 79.2417 67.0419 79.0724 67.0419 78.9595C67.0419 78.8466 66.9855 78.7337 66.9291 78.6208C66.9291 78.5643 66.8162 78.5079 66.7033 78.5079Z" fill="#163735"/>
<path d="M64.3893 78.2257C64.615 78.2257 64.7279 78.1128 64.7279 77.887C64.7279 77.7742 64.6714 77.7177 64.615 77.6613C64.5586 77.6048 64.5022 77.5484 64.3893 77.5484C64.2765 77.5484 64.2201 77.5484 64.1636 77.6048C64.1072 77.6613 64.0508 77.7177 64.0508 77.7741H63.4866C63.4302 77.9999 63.4302 78.2257 63.4302 78.4514C63.4302 78.6772 63.4302 78.8465 63.4866 79.0722H63.9944C63.9944 79.1851 64.0508 79.2416 64.1072 79.298C64.1636 79.3545 64.2765 79.4109 64.3329 79.4109C64.4457 79.4109 64.5586 79.3545 64.615 79.298C64.6714 79.2416 64.7279 79.1287 64.7279 79.0722C64.7279 78.9594 64.6714 78.8465 64.615 78.7901C64.5586 78.7336 64.4457 78.6772 64.3329 78.6772H63.9944V78.2257H64.3893Z" fill="#163735"/>
<path d="M68.9608 77.6055C68.848 77.6055 68.7916 77.6619 68.7351 77.7183C68.6787 77.7748 68.6787 77.9441 68.6787 78.1134V78.8471C68.6787 79.0729 68.6787 79.1857 68.7351 79.2986C68.7916 79.4115 68.848 79.4679 68.9608 79.4679C69.0737 79.4679 69.1301 79.4115 69.1865 79.355C69.2429 79.2422 69.2429 79.1293 69.2429 78.9035V78.2263C69.2429 78.0005 69.2429 77.8876 69.1865 77.7748C69.1865 77.6619 69.0737 77.6055 68.9608 77.6055Z" fill="#163735"/>
<path d="M64.108 82.2904C64.108 82.9677 63.5438 83.5321 62.8667 83.5321C62.1897 83.5321 61.6255 82.9677 61.6255 82.2904C61.6255 81.6131 62.1897 81.0487 62.8667 81.0487C63.5438 81.0487 64.108 81.6131 64.108 82.2904Z" fill="#EFC429"/>
<path d="M64.1641 74.7265C64.1641 75.4038 63.5999 75.9682 62.9229 75.9682C62.2458 75.9682 61.6816 75.4038 61.6816 74.7265C61.6816 74.0493 62.2458 73.4849 62.9229 73.4849C63.5999 73.4849 64.1641 74.0493 64.1641 74.7265Z" fill="#DD6E25"/>
<path d="M67.5496 73.8234C67.5496 74.3314 67.1546 74.7264 66.6469 74.7264C66.1391 74.7264 65.7441 74.3314 65.7441 73.8234C65.7441 73.3155 66.1391 72.9204 66.6469 72.9204C67.1546 72.9204 67.5496 73.3155 67.5496 73.8234Z" fill="#EFC429"/>
<path d="M67.5501 83.2502C67.5501 83.7581 67.1551 84.1532 66.6474 84.1532C66.1396 84.1532 65.7446 83.7581 65.7446 83.2502C65.7446 82.7422 66.1396 82.3471 66.6474 82.3471C67.1551 82.3471 67.5501 82.7422 67.5501 83.2502Z" fill="#DE6E24"/>
<path d="M62.5843 78.5079C62.5843 79.0158 62.1893 79.4109 61.6815 79.4109C61.1737 79.4109 60.7788 79.0158 60.7788 78.5079C60.7788 77.9999 61.1737 77.6049 61.6815 77.6049C62.1893 77.6049 62.5843 78.0564 62.5843 78.5079Z" fill="#4FADB6"/>
<path d="M70.427 81.7255C70.427 82.0639 70.2014 82.2895 69.8631 82.2895C69.5248 82.2895 69.2993 82.0639 69.2993 81.7255C69.2993 81.4434 69.5248 81.1614 69.8631 81.1614C70.2014 81.1614 70.427 81.4434 70.427 81.7255Z" fill="#BD2D26"/>
<path d="M68.9602 79.9189C68.6781 79.9189 68.396 79.806 68.2267 79.6367C68.0575 79.4109 68.0011 79.1287 68.0011 78.7901V78.2822C68.0011 77.8871 68.0575 77.6049 68.2267 77.4356C68.396 77.2098 68.6217 77.1534 68.9602 77.1534C69.2423 77.1534 69.468 77.2098 69.6373 77.3791C69.1859 76.1939 68.0011 75.4037 66.7034 75.4037C65.3493 75.4037 64.2209 76.1939 63.7695 77.3791C63.826 77.3227 63.8824 77.2662 63.9952 77.2662C64.1645 77.2098 64.2773 77.1534 64.4466 77.1534C64.7287 77.1534 65.0108 77.2098 65.18 77.3791C65.3493 77.5484 65.4621 77.7177 65.4621 77.9435C65.4621 78.0564 65.4057 78.1693 65.3493 78.2822C65.2929 78.395 65.1801 78.4515 65.0108 78.5644C65.1801 78.6208 65.2929 78.6772 65.3493 78.7901C65.4057 78.903 65.4621 79.0159 65.4621 79.1852C65.4621 79.4109 65.3493 79.6367 65.18 79.806C65.0108 79.9753 64.7287 80.0318 64.4466 80.0318C64.2773 80.0318 64.1081 79.9753 63.9388 79.9189C63.8824 79.8624 63.826 79.8624 63.7695 79.806C64.2209 80.9912 65.4057 81.7814 66.7034 81.7814C68.0575 81.7814 69.1859 80.9348 69.6937 79.7496C69.468 79.8624 69.2423 79.9189 68.9602 79.9189ZM67.6061 79.4674C67.5497 79.6367 67.3805 79.7496 67.2676 79.806C67.0983 79.8624 66.9291 79.9189 66.7598 79.9189C66.5906 79.9189 66.3649 79.8624 66.252 79.806C66.0828 79.6931 65.9699 79.5803 65.9135 79.4109C65.8007 79.2416 65.8007 79.0723 65.8007 78.8466V78.5644C65.8007 78.2822 65.8571 77.9999 65.9699 77.7742C66.0828 77.5484 66.252 77.3791 66.4777 77.2098C66.7034 77.0969 66.9855 77.0405 67.2112 77.0405H67.324V77.5484H67.2676C67.0419 77.5484 66.8162 77.6049 66.7034 77.7178C66.5341 77.8306 66.4777 77.9999 66.4213 78.2257C66.5906 78.0564 66.7598 78 66.9855 78C67.2112 78 67.4369 78.1128 67.5497 78.2822C67.719 78.4515 67.7754 78.6772 67.7754 78.9594C67.719 79.1852 67.6626 79.3545 67.6061 79.4674Z" fill="#163735"/>
<path d="M120.76 93.4667H100.559C98.8103 93.4667 97.3431 94.9343 97.3431 96.6841H95.3682C94.5782 96.6841 93.9575 97.305 93.9575 98.0953C93.9575 98.8855 94.5782 99.5064 95.3682 99.5064H120.76V93.4667Z" fill="#F3D1BB"/>
<path d="M119.632 94.5956V98.3211H95.3682C95.2553 98.3211 95.0861 98.2082 95.0861 98.0388C95.0861 97.9259 95.1989 97.7566 95.3682 97.7566H97.3431H98.4717V96.6277C98.4717 95.4987 99.4309 94.5391 100.559 94.5391H119.632V94.5956ZM120.76 93.4667H100.559C98.8103 93.4667 97.3431 94.9343 97.3431 96.6841H95.3682C94.5782 96.6841 93.9575 97.305 93.9575 98.0953C93.9575 98.8855 94.5782 99.5064 95.3682 99.5064H120.76V93.4667Z" fill="#153634"/>
<path d="M152.303 121.408H113.425V120.279H151.175V91.0962H152.303V121.408Z" fill="#153634"/>
<path d="M148.521 105.489H125.894V79.4673C125.894 76.024 128.658 73.2017 132.157 73.2017H142.878C145.982 73.2017 148.521 75.7418 148.521 78.8464V105.489Z" fill="#7AC1C8"/>
<path d="M149.65 106.619H124.766V79.4683C124.766 75.4041 128.095 72.0738 132.158 72.0738H142.879C146.603 72.0738 149.65 75.1219 149.65 78.8474V106.619ZM127.023 104.361H147.393V78.9038C147.393 76.4202 145.362 74.3881 142.879 74.3881H132.158C129.336 74.3881 127.023 76.7024 127.023 79.5247V104.361Z" fill="#153634"/>
<path d="M131.933 120.843H130.804V146.696H131.933V120.843Z" fill="#153634"/>
<path d="M131.029 69.2504C136.046 69.2504 140.114 65.1816 140.114 60.1625C140.114 55.1434 136.046 51.0747 131.029 51.0747C126.012 51.0747 121.944 55.1434 121.944 60.1625C121.944 65.1816 126.012 69.2504 131.029 69.2504Z" fill="#F3D1BB"/>
<path d="M131.03 70.3803C125.387 70.3803 120.817 65.8081 120.817 60.1635C120.817 54.5188 125.387 49.9467 131.03 49.9467C136.673 49.9467 141.243 54.5188 141.243 60.1635C141.243 65.8081 136.673 70.3803 131.03 70.3803ZM131.03 52.2046C126.629 52.2046 123.074 55.7607 123.074 60.1635C123.074 64.5663 126.629 68.1224 131.03 68.1224C135.432 68.1224 138.986 64.5663 138.986 60.1635C138.986 55.7607 135.432 52.2046 131.03 52.2046Z" fill="#153634"/>
<path d="M131.03 51.0747H123.638C122.622 51.0747 121.832 51.8649 121.832 52.881C121.832 53.897 122.622 54.6872 123.638 54.6872H123.807H133.117V58.6949C133.117 61.9124 135.77 64.5653 138.986 64.5653C139.719 63.2106 140.171 61.6301 140.114 59.9368C140.002 55.0259 135.882 51.0747 131.03 51.0747Z" fill="#9D9D9C"/>
<path d="M138.986 65.6952C135.149 65.6952 131.989 62.5342 131.989 58.6959V55.8171H123.807C123.751 55.8171 123.694 55.8171 123.638 55.8171C122.058 55.8171 120.76 54.5189 120.76 52.8819C120.76 51.245 122.058 49.9467 123.694 49.9467H131.086C131.143 49.9467 131.199 49.9467 131.256 49.9467C136.673 50.0596 141.13 54.4624 141.3 59.8812C141.356 61.6875 140.905 63.4938 140.002 65.0743C139.776 65.4694 139.381 65.6952 138.986 65.6952ZM123.977 53.5592H133.118C133.738 53.5592 134.246 54.0673 134.246 54.6882V58.6959C134.246 61.0666 135.996 63.0423 138.309 63.3809C138.76 62.3085 139.043 61.1231 138.986 59.9377C138.873 55.7042 135.318 52.2046 131.03 52.2046C130.974 52.2046 130.917 52.2046 130.917 52.2046H123.638C123.243 52.2046 122.961 52.4868 122.961 52.8819C122.961 53.277 123.243 53.5592 123.638 53.5592H123.807C123.864 53.5592 123.92 53.5592 123.977 53.5592Z" fill="#153634"/>
<path d="M131.425 100.861H110.152C107.838 100.861 105.807 99.055 105.75 96.7407C105.694 94.37 107.612 92.3944 109.982 92.3944H131.425C136.898 92.3944 141.356 87.9351 141.356 82.4598V72.1301H144.741C147.563 72.1301 149.82 74.388 149.82 77.2103V82.4598C149.82 92.6202 141.581 100.861 131.425 100.861Z" fill="url(#paint0_linear)"/>
<path d="M144.741 74.388C145.475 74.388 146.208 74.6702 146.716 75.2347C147.224 75.7427 147.563 76.4765 147.563 77.2667V82.5163C147.563 91.4348 140.34 98.6599 131.425 98.6599H110.152C109.023 98.6599 108.007 97.8132 108.007 96.7407C108.007 96.1763 108.177 95.6682 108.572 95.3296C108.967 94.9344 109.474 94.7087 109.982 94.7087H131.425C138.139 94.7087 143.613 89.2334 143.613 82.5163V74.388H144.741ZM144.741 72.1301H141.356V82.5163C141.356 87.9916 136.898 92.4508 131.425 92.4508H109.982C107.612 92.4508 105.694 94.4264 105.75 96.7972C105.807 99.1115 107.838 100.918 110.152 100.918H131.425C141.581 100.918 149.82 92.6766 149.82 82.5163V77.2667C149.82 74.3879 147.506 72.1301 144.741 72.1301Z" fill="#153634"/>
<path d="M14.9272 127H13.9272V156H14.9272V127Z" fill="#153634"/>
<path d="M103.927 127H102.927V157H103.927V127Z" fill="#153634"/>
<path d="M142.372 157.646L131.368 146.639L120.365 157.646L119.519 156.856L131.368 145.059L143.161 156.856L142.372 157.646Z" fill="#153634"/>
<path d="M111.562 105.433H62.4707C58.9722 105.433 56.1509 102.611 56.1509 99.1115H111.562V105.433Z" fill="white"/>
<path d="M109.305 101.369V103.176H62.4707C61.06 103.176 59.8751 102.442 59.1415 101.369H109.305ZM111.562 99.1115H56.1509C56.1509 102.611 58.9722 105.433 62.4707 105.433H111.562V99.1115Z" fill="#153634"/>
<path d="M93.9004 76.9846H73.1353V79.2424H93.9004V76.9846Z" fill="#153634"/>
<path d="M69.1846 87.1449H61.7935V88.2737H69.1846V87.1449Z" fill="#153634"/>
<path d="M69.1846 90.9267H61.7935V92.0555H69.1846V90.9267Z" fill="#153634"/>
<path d="M69.1846 94.7086H61.7935V95.8374H69.1846V94.7086Z" fill="#153634"/>
<path d="M76.4077 88.3866H74.1509V94.2H76.4077V88.3866Z" fill="#F0C428"/>
<path d="M90.2895 88.3866H88.0327V94.2H90.2895V88.3866Z" fill="#F0C428"/>
<path d="M79.907 82.4033H77.6499V94.2006H79.907V82.4033Z" fill="#F0C428"/>
<path d="M83.3484 84.7176H81.0913V94.2571H83.3484V84.7176Z" fill="#F0C428"/>
<path d="M93.7879 84.7176H91.5308V94.2571H93.7879V84.7176Z" fill="#F0C428"/>
<path d="M86.8469 82.4033H84.5898V94.2006H86.8469V82.4033Z" fill="#F0C428"/>
<path d="M38.6431 92.8458V78.4521H22.5049L22.5049 92.8458H38.6431Z" fill="white"/>
<path d="M39.7873 94.0312H21.3921V77.3795H39.7873V94.0312ZM23.6492 91.7734H37.5302V79.6374H23.6492V91.7734Z" fill="#153634"/>
<path d="M27.3738 78.4521H25.1167V92.846H27.3738V78.4521Z" fill="#153634"/>
<path d="M35.1603 87.7655C35.6277 87.7655 36.0066 87.3865 36.0066 86.9189C36.0066 86.4514 35.6277 86.0724 35.1603 86.0724C34.6929 86.0724 34.314 86.4514 34.314 86.9189C34.314 87.3865 34.6929 87.7655 35.1603 87.7655Z" fill="#153634"/>
<path d="M35.1603 90.1363C35.6277 90.1363 36.0066 89.7573 36.0066 89.2897C36.0066 88.8222 35.6277 88.4431 35.1603 88.4431C34.6929 88.4431 34.314 88.8222 34.314 89.2897C34.314 89.7573 34.6929 90.1363 35.1603 90.1363Z" fill="#153634"/>
<path d="M32.7906 87.7655C33.258 87.7655 33.637 87.3865 33.637 86.9189C33.637 86.4514 33.258 86.0724 32.7906 86.0724C32.3232 86.0724 31.9443 86.4514 31.9443 86.9189C31.9443 87.3865 32.3232 87.7655 32.7906 87.7655Z" fill="#153634"/>
<path d="M32.7906 90.1363C33.258 90.1363 33.637 89.7573 33.637 89.2897C33.637 88.8222 33.258 88.4431 32.7906 88.4431C32.3232 88.4431 31.9443 88.8222 31.9443 89.2897C31.9443 89.7573 32.3232 90.1363 32.7906 90.1363Z" fill="#153634"/>
<path d="M30.4772 87.7655C30.9446 87.7655 31.3235 87.3865 31.3235 86.9189C31.3235 86.4514 30.9446 86.0724 30.4772 86.0724C30.0098 86.0724 29.6309 86.4514 29.6309 86.9189C29.6309 87.3865 30.0098 87.7655 30.4772 87.7655Z" fill="#153634"/>
<path d="M30.4772 90.1363C30.9446 90.1363 31.3235 89.7573 31.3235 89.2897C31.3235 88.8222 30.9446 88.4431 30.4772 88.4431C30.0098 88.4431 29.6309 88.8222 29.6309 89.2897C29.6309 89.7573 30.0098 90.1363 30.4772 90.1363Z" fill="#153634"/>
<path d="M34.9912 85.2257C34.4269 85.2257 33.8626 85.0564 33.4112 84.7177C33.0727 84.4919 32.7341 84.379 32.3955 84.379C32.057 84.379 31.7184 84.4919 31.3799 84.7177C30.9284 85.0564 30.3642 85.2257 29.7435 85.2257C28.8971 85.2257 28.1071 84.8306 27.5992 84.2097C27.0914 83.5323 26.8657 82.6856 27.0914 81.8389C27.3171 80.8229 28.1071 80.0326 29.1792 79.8068C29.9692 79.6375 30.7592 79.8069 31.4363 80.2584C32.057 80.71 32.847 80.71 33.4676 80.2584C33.9191 79.9197 34.4833 79.7504 35.104 79.7504C35.9504 79.7504 36.7404 80.1455 37.2483 80.7664C37.7561 81.4438 37.9818 82.2905 37.7561 83.1372C37.5304 84.1532 36.7404 84.9435 35.6683 85.1693C35.4426 85.2257 35.2169 85.2257 34.9912 85.2257ZM29.7435 80.8793C29.6306 80.8793 29.5178 80.8793 29.3485 80.9358C28.7842 81.0487 28.2764 81.5567 28.1635 82.1212C28.0507 82.6292 28.1635 83.1372 28.4456 83.5323C28.9535 84.2097 29.9692 84.3226 30.6463 83.8146C31.662 83.0808 33.0162 83.0808 34.0319 83.8146C34.4269 84.0968 34.8783 84.2097 35.3297 84.0968C35.894 83.9839 36.4019 83.4759 36.5147 82.9114C36.6276 82.4034 36.5147 81.8954 36.2326 81.5002C35.7247 80.8229 34.709 80.71 34.0319 81.218C33.0162 81.9518 31.662 81.9518 30.6463 81.218C30.4206 80.9358 30.082 80.8793 29.7435 80.8793Z" fill="#153634"/>
<path d="M68.3954 53.2761H66.5335C65.1794 53.2761 64.1074 52.2037 64.1074 50.8492H65.2358C65.2358 51.5829 65.8 52.1473 66.5335 52.1473H68.3954V53.2761Z" fill="#153634"/>
<path d="M67.5488 45.318H66.4204V50.2282H67.5488V45.318Z" fill="#153634"/>
<path d="M66.8714 45.375H63.3169V46.5603H66.8714V45.375Z" fill="#153634"/>
<path d="M130.296 59.2038H126.572V60.3326H130.296V59.2038Z" fill="#153634"/>
<path d="M70.8212 47.8014C71.3821 47.8014 71.8368 47.3465 71.8368 46.7855C71.8368 46.2244 71.3821 45.7696 70.8212 45.7696C70.2603 45.7696 69.8057 46.2244 69.8057 46.7855C69.8057 47.3465 70.2603 47.8014 70.8212 47.8014Z" fill="#153634"/>
<path d="M64.7841 47.8015C65.345 47.8015 65.7997 47.3467 65.7997 46.7856C65.7997 46.2246 65.345 45.7697 64.7841 45.7697C64.2232 45.7697 63.7686 46.2246 63.7686 46.7856C63.7686 47.3467 64.2232 47.8015 64.7841 47.8015Z" fill="#153634"/>
<path d="M127.588 64.9607C126.403 64.9607 125.387 64.0013 125.387 62.7596V60.1634H126.516V62.7596C126.516 63.324 126.967 63.8319 127.588 63.8319V64.9607Z" fill="#153634"/>
<path d="M127.306 61.6871C127.866 61.6871 128.321 61.2323 128.321 60.6712C128.321 60.1101 127.866 59.6552 127.306 59.6552C126.745 59.6552 126.29 60.1101 126.29 60.6712C126.29 61.2323 126.745 61.6871 127.306 61.6871Z" fill="#153634"/>
<path d="M122.735 61.8C123.296 61.8 123.75 61.3451 123.75 60.7841C123.75 60.223 123.296 59.7681 122.735 59.7681C122.174 59.7681 121.719 60.223 121.719 60.7841C121.719 61.3451 122.174 61.8 122.735 61.8Z" fill="#153634"/>
<path d="M129.449 62.082H127.643C126.402 62.082 125.443 61.0661 125.443 59.8808V59.5986C125.443 58.8085 126.12 58.1312 126.91 58.1312H129.957C130.521 58.1312 130.916 58.5827 130.916 59.0907V60.6145C130.859 61.4611 130.239 62.082 129.449 62.082ZM126.853 59.26C126.684 59.26 126.515 59.4293 126.515 59.5986V59.8808C126.515 60.5017 127.023 60.9532 127.587 60.9532H129.392C129.562 60.9532 129.731 60.7839 129.731 60.6145V59.26H126.853Z" fill="#153634"/>
<path d="M123.808 62.082H122.002C121.212 62.082 120.535 61.4047 120.535 60.6145V59.1471C120.535 58.5827 120.987 58.1312 121.551 58.1312H124.541C125.331 58.1312 126.008 58.8085 126.008 59.5986V59.8808C126.064 61.1225 125.049 62.082 123.808 62.082ZM121.72 59.26V60.6145C121.72 60.7839 121.889 60.9532 122.059 60.9532H123.864C124.485 60.9532 124.936 60.4452 124.936 59.8808V59.5986C124.936 59.4293 124.767 59.26 124.597 59.26H121.72Z" fill="#153634"/>
<path d="M125.161 59.2038H121.945V60.3326H125.161V59.2038Z" fill="#153634"/>
<path d="M133.23 58.1312H130.014V59.26H133.23V58.1312Z" fill="#153634"/>
<path d="M133.286 63.4921C134.64 63.4921 135.712 62.4197 135.712 61.0651C135.712 59.7106 134.64 58.6382 133.286 58.6382C132.665 58.6382 132.101 58.864 131.649 59.2591" fill="#F3D1BB"/>
<path d="M133.286 64.6217V62.3641C134.02 62.3641 134.584 61.7997 134.584 61.066C134.584 60.3323 134.02 59.7679 133.286 59.7679C132.948 59.7679 132.666 59.8808 132.44 60.1065L130.917 58.4133C131.594 57.8489 132.44 57.5103 133.286 57.5103C135.261 57.5103 136.841 59.0906 136.841 61.066C136.841 63.0414 135.261 64.6217 133.286 64.6217Z" fill="#153634"/>
<path d="M72.4583 45.3744H68.9038V46.5597H72.4583V45.3744Z" fill="#153634"/>
<defs>
<linearGradient id="paint0_linear" x1="105.764" y1="86.5078" x2="149.807" y2="86.5078" gradientUnits="userSpaceOnUse">
<stop stop-color="#7AC1C8"/>
<stop offset="1" stop-color="#7AC1C8"/>
</linearGradient>
</defs>
</svg>
