<svg xmlns="http://www.w3.org/2000/svg" width="24" height="19.522" viewBox="0 0 24 19.522"><path d="M165,189.68a9.487,9.487,0,0,1-2.454,2.543A13.885,13.885,0,0,1,148.539,206.9a13.361,13.361,0,0,1-7.539-2.23,9.644,9.644,0,0,0,7.271-2.007,5.017,5.017,0,0,1-4.595-3.435,4.565,4.565,0,0,0,2.23-.089,4.955,4.955,0,0,1-3.97-4.907,4.811,4.811,0,0,0,2.23.625,5.011,5.011,0,0,1-1.517-6.6,14.008,14.008,0,0,0,10.171,5.175,4.931,4.931,0,0,1,8.387-4.506,9.961,9.961,0,0,0,3.167-1.2,4.987,4.987,0,0,1-2.186,2.721A9.586,9.586,0,0,0,165,189.68Z" transform="translate(-141 -187.377)" fill="#fff"/></svg>