<svg id="Layer_1" data-name="Layer 1" xmlns="http://www.w3.org/2000/svg" viewBox="0 0 744 374"><defs><style>.cls-1{fill:#fff;}</style></defs><path class="cls-1" d="M343.91,225.39H333V143h10.87Z"/><path class="cls-1" d="M369.13,164.15l.34,7.7A22.35,22.35,0,0,1,387.81,163q19.41,0,19.58,21.91v40.46H396.92V184.87q0-6.63-3-9.79t-9.26-3.17a15.13,15.13,0,0,0-8.94,2.71,18.42,18.42,0,0,0-6,7.14v43.63H359.23V164.15Z"/><path class="cls-1" d="M455.94,209.15a7.68,7.68,0,0,0-3.2-6.59q-3.19-2.35-11.14-4.05A52.43,52.43,0,0,1,429,194.43a17.9,17.9,0,0,1-6.9-5.66,13.52,13.52,0,0,1-2.24-7.81q0-7.52,6.37-12.73T442.47,163q10.41,0,16.9,5.38a17.07,17.07,0,0,1,6.48,13.75H455.32a9.46,9.46,0,0,0-3.65-7.41,13.65,13.65,0,0,0-9.2-3.11q-5.72,0-8.94,2.49a7.84,7.84,0,0,0-3.23,6.5,6.35,6.35,0,0,0,3,5.72q3,1.92,10.84,3.68a56.66,56.66,0,0,1,12.71,4.19,18.49,18.49,0,0,1,7.21,5.85,14.4,14.4,0,0,1,2.35,8.35,15.69,15.69,0,0,1-6.56,13.16q-6.57,5-17,5a30.82,30.82,0,0,1-13-2.6,21.13,21.13,0,0,1-8.85-7.27,17.57,17.57,0,0,1-3.2-10.11h10.47a10.82,10.82,0,0,0,4.22,8.35q3.93,3.09,10.38,3.09,5.94,0,9.54-2.41A7.39,7.39,0,0,0,455.94,209.15Z"/><path class="cls-1" d="M477.21,147.91a6.23,6.23,0,0,1,1.56-4.3,5.82,5.82,0,0,1,4.61-1.75,5.93,5.93,0,0,1,4.64,1.75,6.17,6.17,0,0,1,1.59,4.3,5.66,5.66,0,0,1-6.23,5.94,5.93,5.93,0,0,1-4.61-1.69A6.06,6.06,0,0,1,477.21,147.91Zm11.32,77.48H478.06V164.15h10.47Z"/><path class="cls-1" d="M499.89,194.26q0-14.31,6.63-22.78A21.17,21.17,0,0,1,524.06,163q11.21,0,17.49,7.93l.51-6.8h9.56v59.77q0,11.88-7,18.73t-18.93,6.85a31.4,31.4,0,0,1-13-2.83,22.29,22.29,0,0,1-9.68-7.75l5.43-6.28q6.73,8.31,16.47,8.32,7.64,0,11.91-4.31t4.28-12.11v-5.26q-6.29,7.25-17.15,7.24a20.92,20.92,0,0,1-17.41-8.66Q499.9,209.21,499.89,194.26Zm10.53,1.19q0,10.37,4.25,16.27a13.78,13.78,0,0,0,11.88,5.92q9.9,0,14.55-9v-28q-4.82-8.77-14.44-8.77a13.92,13.92,0,0,0-11.94,5.94Q510.43,183.79,510.42,195.45Z"/><path class="cls-1" d="M575,171.57A22.24,22.24,0,0,1,593.1,163q19.41,0,19.58,21.91v40.46H602.21V184.87q-.06-6.63-3-9.79t-9.25-3.17a15.09,15.09,0,0,0-8.94,2.71,18.42,18.42,0,0,0-6,7.14v43.63H564.52V138.46H575Z"/><path class="cls-1" d="M639.66,149.33v14.82H651.1v8.1H639.66v38a8.5,8.5,0,0,0,1.53,5.53c1,1.22,2.76,1.84,5.21,1.84a25.52,25.52,0,0,0,5-.68v8.44a30.54,30.54,0,0,1-8,1.12q-7,0-10.58-4.24t-3.57-12.06v-38H618v-8.1h11.15V149.33Z"/><path class="cls-1" d="M696.08,209.15a7.7,7.7,0,0,0-3.2-6.59q-3.2-2.35-11.15-4.05a52.34,52.34,0,0,1-12.62-4.08,17.9,17.9,0,0,1-6.9-5.66A13.45,13.45,0,0,1,660,181q0-7.52,6.37-12.73T682.61,163q10.41,0,16.89,5.38A17.07,17.07,0,0,1,706,182.15H695.46a9.46,9.46,0,0,0-3.65-7.41,13.67,13.67,0,0,0-9.2-3.11q-5.72,0-8.94,2.49a7.84,7.84,0,0,0-3.23,6.5,6.35,6.35,0,0,0,3,5.72q3,1.92,10.84,3.68a56.56,56.56,0,0,1,12.7,4.19,18.53,18.53,0,0,1,7.22,5.85,14.4,14.4,0,0,1,2.35,8.35A15.67,15.67,0,0,1,700,221.57q-6.56,5-17,5a30.76,30.76,0,0,1-13-2.6,21.22,21.22,0,0,1-8.86-7.27,17.56,17.56,0,0,1-3.19-10.11h10.47a10.84,10.84,0,0,0,4.21,8.35Q676.51,218,683,218q5.94,0,9.53-2.41A7.38,7.38,0,0,0,696.08,209.15Z"/><circle class="cls-1" cx="93.29" cy="296.49" r="37.4"/><circle class="cls-1" cx="94.81" cy="72.36" r="37.4"/><circle class="cls-1" cx="205.54" cy="45.16" r="26.95"/><circle class="cls-1" cx="205.54" cy="324.05" r="26.95"/><circle class="cls-1" cx="58.51" cy="184.61" r="26.95"/><circle class="cls-1" cx="300.36" cy="279.68" r="16.67"/><path class="cls-1" d="M207.42,184.43a10.92,10.92,0,0,0-6.34,1.76,11.18,11.18,0,0,0-3.79,4.3v5.71q0,15.63,10.81,15.62a8.79,8.79,0,0,0,7.28-3.9,15.93,15.93,0,0,0,2.91-9.79,15.64,15.64,0,0,0-3-9.88A9.52,9.52,0,0,0,207.42,184.43Z"/><path class="cls-1" d="M274.15,156.59a7.57,7.57,0,0,0-7.16,4.07q-2.24,4.08-2.41,12.34v21.05q0,9.22,2.33,13.5a7.76,7.76,0,0,0,7.35,4.27,7.67,7.67,0,0,0,7.19-4.16q2.32-4.16,2.38-13V174.24q0-8.88-2.32-13.27A7.76,7.76,0,0,0,274.15,156.59Z"/><path class="cls-1" d="M137.87,176.23q10.69,0,10.69-10.47A9.1,9.1,0,0,0,146,159.1a9.7,9.7,0,0,0-7.19-2.57,10.32,10.32,0,0,0-6.59,2.21,6.73,6.73,0,0,0-2.81,5.49H113.11a94.86,94.86,0,0,0-2.2,20.36,96,96,0,0,0,1.69,17.9h15.65a8.58,8.58,0,0,0,3.05,6.56,10.79,10.79,0,0,0,7.53,2.77,11.3,11.3,0,0,0,8-2.8,9.35,9.35,0,0,0,3-7.16q0-6.23-3.12-8.83t-8.6-2.6h-9.28v-14.2Z"/><path class="cls-1" d="M274.26,226.54q-13.75,0-21.28-9.11t-7.52-25.7v-15q0-16.69,7.5-25.75t21.19-9.06q12,0,19.26,7a94.77,94.77,0,0,0-175.27-.64,27,27,0,0,1,5.89-3.56,34.43,34.43,0,0,1,14.12-2.86q13.75,0,21.62,6.29t7.87,17.26a17.38,17.38,0,0,1-3.26,10,23.11,23.11,0,0,1-9.48,7.67,22.15,22.15,0,0,1,10.3,7.22,19,19,0,0,1,3.74,12,21.27,21.27,0,0,1-8.49,17.66q-8.49,6.62-22.3,6.62a36.52,36.52,0,0,1-15-3.09,27.21,27.21,0,0,1-5.17-3,94.77,94.77,0,0,0,175.93-1.32Q286.58,226.53,274.26,226.54Zm-40.55-14a26.37,26.37,0,0,1-10.36,10.27,29.74,29.74,0,0,1-14.74,3.71,30.78,30.78,0,0,1-15.68-4,27.48,27.48,0,0,1-10.75-11.4,37.62,37.62,0,0,1-4-17.1v-7.64a47.56,47.56,0,0,1,5.46-22.89,39.63,39.63,0,0,1,15.59-15.93,44.61,44.61,0,0,1,22.47-5.78h2.89v15h-.85q-10.69,0-17.57,5.13a21.55,21.55,0,0,0-8.46,14.23A22.27,22.27,0,0,1,214,169.83q10.71,0,17,7.81t6.34,20.49A28.88,28.88,0,0,1,233.71,212.56Z"/></svg>