<svg id="Layer_1" data-name="Layer 1" xmlns="http://www.w3.org/2000/svg" viewBox="0 0 579 374"><defs><style>.cls-1{fill:#153634;}.cls-2{fill:#efc329;}.cls-3{fill:#de6e26;}.cls-4{fill:#4dacb6;}.cls-5{fill:#bc2c26;}</style></defs><path class="cls-1" d="M346.28,143l26.94,67.23L400.16,143h14.09v82.4H403.39V193.3l1-34.63-27.06,66.72H369l-27-66.56,1.07,34.47v32.09H332.25V143Z"/><path class="cls-1" d="M466.71,225.39a21.6,21.6,0,0,1-1.47-6.45,23.36,23.36,0,0,1-17.44,7.58q-9,0-14.85-5.12a16.55,16.55,0,0,1-5.8-13q0-9.56,7.27-14.85t20.46-5.3h10.19v-4.81a11.75,11.75,0,0,0-3.29-8.74q-3.28-3.26-9.67-3.25a15.26,15.26,0,0,0-9.4,2.83,8.32,8.32,0,0,0-3.79,6.84H428.39a14.45,14.45,0,0,1,3.26-8.85,22.16,22.16,0,0,1,8.82-6.77A29.76,29.76,0,0,1,452.73,163q10.57,0,16.58,5.29t6.23,14.58v28.18q0,8.44,2.15,13.42v.9Zm-17.38-8a18.36,18.36,0,0,0,9.34-2.55,15.42,15.42,0,0,0,6.4-6.62V195.68h-8.21q-19.25,0-19.24,11.26a9.54,9.54,0,0,0,3.28,7.7A12.61,12.61,0,0,0,449.33,217.41Z"/><path class="cls-1" d="M540.78,195.45q0,14-6.4,22.53a20.47,20.47,0,0,1-17.31,8.54q-11.16,0-17.55-7.07v29.49H489.05V164.15h9.57l.5,6.8q6.4-7.94,17.78-7.93,11,0,17.46,8.32t6.42,23.15Zm-10.47-1.19q0-10.35-4.42-16.35a14.22,14.22,0,0,0-12.11-6q-9.51,0-14.26,8.43V209.6A15.41,15.41,0,0,0,513.9,218a14.17,14.17,0,0,0,12-6Q530.31,206,530.31,194.26Z"/><circle class="cls-2" cx="93.29" cy="296.49" r="37.4"/><circle class="cls-3" cx="94.81" cy="72.36" r="37.4"/><circle class="cls-2" cx="205.54" cy="45.16" r="26.95"/><circle class="cls-3" cx="205.54" cy="324.05" r="26.95"/><circle class="cls-4" cx="58.51" cy="184.61" r="26.95"/><circle class="cls-5" cx="300.36" cy="279.68" r="16.67"/><path class="cls-1" d="M207.42,184.43a10.92,10.92,0,0,0-6.34,1.76,11.18,11.18,0,0,0-3.79,4.3v5.71q0,15.63,10.81,15.62a8.79,8.79,0,0,0,7.28-3.9,15.93,15.93,0,0,0,2.91-9.79,15.64,15.64,0,0,0-3-9.88A9.52,9.52,0,0,0,207.42,184.43Z"/><path class="cls-1" d="M274.15,156.59a7.57,7.57,0,0,0-7.16,4.07q-2.24,4.08-2.41,12.34v21.05q0,9.22,2.33,13.5a7.76,7.76,0,0,0,7.35,4.27,7.67,7.67,0,0,0,7.19-4.16q2.32-4.16,2.38-13V174.24q0-8.88-2.32-13.27A7.76,7.76,0,0,0,274.15,156.59Z"/><path class="cls-1" d="M137.87,176.23q10.69,0,10.69-10.47A9.1,9.1,0,0,0,146,159.1a9.7,9.7,0,0,0-7.19-2.57,10.32,10.32,0,0,0-6.59,2.21,6.73,6.73,0,0,0-2.81,5.49H113.11a94.86,94.86,0,0,0-2.2,20.36,96,96,0,0,0,1.69,17.9h15.65a8.58,8.58,0,0,0,3.05,6.56,10.79,10.79,0,0,0,7.53,2.77,11.3,11.3,0,0,0,8-2.8,9.35,9.35,0,0,0,3-7.16q0-6.23-3.12-8.83t-8.6-2.6h-9.28v-14.2Z"/><path class="cls-1" d="M274.26,226.54q-13.75,0-21.28-9.11t-7.52-25.7v-15q0-16.69,7.5-25.75t21.19-9.06q12,0,19.26,7a94.77,94.77,0,0,0-175.27-.64,27,27,0,0,1,5.89-3.56,34.43,34.43,0,0,1,14.12-2.86q13.75,0,21.62,6.29t7.87,17.26a17.38,17.38,0,0,1-3.26,10,23.11,23.11,0,0,1-9.48,7.67,22.15,22.15,0,0,1,10.3,7.22,19,19,0,0,1,3.74,12,21.27,21.27,0,0,1-8.49,17.66q-8.49,6.62-22.3,6.62a36.52,36.52,0,0,1-15-3.09,27.21,27.21,0,0,1-5.17-3,94.77,94.77,0,0,0,175.93-1.32Q286.58,226.53,274.26,226.54Zm-40.55-14a26.37,26.37,0,0,1-10.36,10.27,29.74,29.74,0,0,1-14.74,3.71,30.78,30.78,0,0,1-15.68-4,27.48,27.48,0,0,1-10.75-11.4,37.62,37.62,0,0,1-4-17.1v-7.64a47.56,47.56,0,0,1,5.46-22.89,39.63,39.63,0,0,1,15.59-15.93,44.61,44.61,0,0,1,22.47-5.78h2.89v15h-.85q-10.69,0-17.57,5.13a21.55,21.55,0,0,0-8.46,14.23A22.27,22.27,0,0,1,214,169.83q10.71,0,17,7.81t6.34,20.49A28.88,28.88,0,0,1,233.71,212.56Z"/></svg>