<svg id="Layer_1" data-name="Layer 1" xmlns="http://www.w3.org/2000/svg" viewBox="0 0 805 374"><defs><style>.cls-1{fill:#153634;}.cls-2{fill:#efc329;}.cls-3{fill:#de6e26;}.cls-4{fill:#4dacb6;}.cls-5{fill:#bc2c26;}</style></defs><path class="cls-1" d="M356.53,188.66q-14-4-20.35-9.88a18.87,18.87,0,0,1-6.37-14.46,20,20,0,0,1,7.78-16.1q7.79-6.36,20.24-6.36A33.76,33.76,0,0,1,373,145.14a25,25,0,0,1,10.3,9.05,23.2,23.2,0,0,1,3.65,12.62H376q0-7.49-4.76-11.78t-13.41-4.29q-8,0-12.54,3.55a11.81,11.81,0,0,0-4.5,9.83,10.65,10.65,0,0,0,4.28,8.54q4.26,3.48,14.54,6.37t16.07,6.38a24.35,24.35,0,0,1,8.61,8.12,20.77,20.77,0,0,1,2.8,10.92,19.28,19.28,0,0,1-7.81,16.05q-7.81,6-20.89,6a38.67,38.67,0,0,1-15.84-3.25,26.67,26.67,0,0,1-11.35-8.91,21.78,21.78,0,0,1-4-12.85h10.92a14.2,14.2,0,0,0,5.52,11.8q5.52,4.32,14.74,4.33,8.61,0,13.19-3.51a11.39,11.39,0,0,0,4.58-9.57c0-4-1.41-7.16-4.24-9.36S364,190.81,356.53,188.66Z"/><path class="cls-1" d="M410.68,149.33v14.82h11.43v8.1H410.68v38a8.5,8.5,0,0,0,1.53,5.53c1,1.22,2.75,1.84,5.2,1.84a25.52,25.52,0,0,0,5-.68v8.44a30.46,30.46,0,0,1-8,1.12q-7,0-10.59-4.24t-3.56-12.06v-38H389.06v-8.1h11.15V149.33Z"/><path class="cls-1" d="M469.24,225.39a22.26,22.26,0,0,1-1.47-6.45,23.35,23.35,0,0,1-17.43,7.58q-9.06,0-14.86-5.12a16.58,16.58,0,0,1-5.8-13q0-9.56,7.27-14.85t20.46-5.3H467.6v-4.81a11.74,11.74,0,0,0-3.28-8.74q-3.29-3.26-9.68-3.25a15.23,15.23,0,0,0-9.39,2.83,8.33,8.33,0,0,0-3.8,6.84H430.93a14.44,14.44,0,0,1,3.25-8.85,22.19,22.19,0,0,1,8.83-6.77A29.71,29.71,0,0,1,455.26,163q10.59,0,16.59,5.29t6.22,14.58v28.18q0,8.44,2.15,13.42v.9Zm-17.37-8a18.42,18.42,0,0,0,9.34-2.55,15.34,15.34,0,0,0,6.39-6.62V195.68h-8.21q-19.23,0-19.24,11.26a9.57,9.57,0,0,0,3.28,7.7A12.62,12.62,0,0,0,451.87,217.41Z"/><path class="cls-1" d="M501.49,164.15l.34,7.7A22.33,22.33,0,0,1,520.17,163q19.41,0,19.58,21.91v40.46H529.28V184.87q-.06-6.63-3-9.79T517,171.91a15.09,15.09,0,0,0-8.94,2.71,18.42,18.42,0,0,0-6,7.14v43.63H491.59V164.15Z"/><path class="cls-1" d="M550.1,194.26q0-14.08,6.67-22.66A21.11,21.11,0,0,1,574.26,163q10.75,0,17,7.36V138.46h10.47v86.93h-9.62l-.51-6.56q-6.28,7.69-17.49,7.69a20.91,20.91,0,0,1-17.35-8.71q-6.7-8.72-6.7-22.75Zm10.47,1.19q0,10.43,4.3,16.3a13.88,13.88,0,0,0,11.88,5.89q10,0,14.55-8.94V180.57q-4.69-8.67-14.43-8.66a14,14,0,0,0-12,5.94Q560.57,183.79,560.57,195.45Z"/><path class="cls-1" d="M652.92,225.39a21.6,21.6,0,0,1-1.47-6.45A23.35,23.35,0,0,1,634,226.52q-9.06,0-14.86-5.12a16.55,16.55,0,0,1-5.8-13q0-9.56,7.27-14.85t20.46-5.3h10.19v-4.81a11.78,11.78,0,0,0-3.28-8.74q-3.29-3.26-9.68-3.25a15.26,15.26,0,0,0-9.4,2.83,8.32,8.32,0,0,0-3.79,6.84H614.6a14.45,14.45,0,0,1,3.26-8.85,22.19,22.19,0,0,1,8.83-6.77A29.68,29.68,0,0,1,638.94,163q10.57,0,16.58,5.29t6.23,14.58v28.18q0,8.44,2.15,13.42v.9Zm-17.38-8a18.36,18.36,0,0,0,9.34-2.55,15.31,15.31,0,0,0,6.4-6.62V195.68h-8.21q-19.25,0-19.24,11.26a9.54,9.54,0,0,0,3.28,7.7A12.61,12.61,0,0,0,635.54,217.41Z"/><path class="cls-1" d="M704.86,173.55a31.76,31.76,0,0,0-5.15-.4q-10.31,0-14,8.78v43.46H675.26V164.15h10.19l.17,7.08q5.14-8.21,14.6-8.21a10.62,10.62,0,0,1,4.64.8Z"/><path class="cls-1" d="M708,194.26q0-14.08,6.68-22.66A21.11,21.11,0,0,1,732.13,163q10.75,0,17,7.36V138.46h10.47v86.93H750l-.5-6.56q-6.28,7.69-17.49,7.69a20.91,20.91,0,0,1-17.35-8.71Q708,209.1,708,195.06Zm10.47,1.19q0,10.43,4.31,16.3a13.87,13.87,0,0,0,11.88,5.89q10,0,14.55-8.94V180.57q-4.71-8.67-14.44-8.66a14,14,0,0,0-12,5.94Q718.44,183.79,718.43,195.45Z"/><circle class="cls-2" cx="93.29" cy="296.49" r="37.4"/><circle class="cls-3" cx="94.81" cy="72.36" r="37.4"/><circle class="cls-2" cx="205.54" cy="45.16" r="26.95"/><circle class="cls-3" cx="205.54" cy="324.05" r="26.95"/><circle class="cls-4" cx="58.51" cy="184.61" r="26.95"/><circle class="cls-5" cx="300.36" cy="279.68" r="16.67"/><path class="cls-1" d="M207.42,184.43a10.92,10.92,0,0,0-6.34,1.76,11.18,11.18,0,0,0-3.79,4.3v5.71q0,15.63,10.81,15.62a8.79,8.79,0,0,0,7.28-3.9,15.93,15.93,0,0,0,2.91-9.79,15.64,15.64,0,0,0-3-9.88A9.52,9.52,0,0,0,207.42,184.43Z"/><path class="cls-1" d="M274.15,156.59a7.57,7.57,0,0,0-7.16,4.07q-2.24,4.08-2.41,12.34v21.05q0,9.22,2.33,13.5a7.76,7.76,0,0,0,7.35,4.27,7.67,7.67,0,0,0,7.19-4.16q2.32-4.16,2.38-13V174.24q0-8.88-2.32-13.27A7.76,7.76,0,0,0,274.15,156.59Z"/><path class="cls-1" d="M137.87,176.23q10.69,0,10.69-10.47A9.1,9.1,0,0,0,146,159.1a9.7,9.7,0,0,0-7.19-2.57,10.32,10.32,0,0,0-6.59,2.21,6.73,6.73,0,0,0-2.81,5.49H113.11a94.86,94.86,0,0,0-2.2,20.36,96,96,0,0,0,1.69,17.9h15.65a8.58,8.58,0,0,0,3.05,6.56,10.79,10.79,0,0,0,7.53,2.77,11.3,11.3,0,0,0,8-2.8,9.35,9.35,0,0,0,3-7.16q0-6.23-3.12-8.83t-8.6-2.6h-9.28v-14.2Z"/><path class="cls-1" d="M274.26,226.54q-13.75,0-21.28-9.11t-7.52-25.7v-15q0-16.69,7.5-25.75t21.19-9.06q12,0,19.26,7a94.77,94.77,0,0,0-175.27-.64,27,27,0,0,1,5.89-3.56,34.43,34.43,0,0,1,14.12-2.86q13.75,0,21.62,6.29t7.87,17.26a17.38,17.38,0,0,1-3.26,10,23.11,23.11,0,0,1-9.48,7.67,22.15,22.15,0,0,1,10.3,7.22,19,19,0,0,1,3.74,12,21.27,21.27,0,0,1-8.49,17.66q-8.49,6.62-22.3,6.62a36.52,36.52,0,0,1-15-3.09,27.21,27.21,0,0,1-5.17-3,94.77,94.77,0,0,0,175.93-1.32Q286.58,226.53,274.26,226.54Zm-40.55-14a26.37,26.37,0,0,1-10.36,10.27,29.74,29.74,0,0,1-14.74,3.71,30.78,30.78,0,0,1-15.68-4,27.48,27.48,0,0,1-10.75-11.4,37.62,37.62,0,0,1-4-17.1v-7.64a47.56,47.56,0,0,1,5.46-22.89,39.63,39.63,0,0,1,15.59-15.93,44.61,44.61,0,0,1,22.47-5.78h2.89v15h-.85q-10.69,0-17.57,5.13a21.55,21.55,0,0,0-8.46,14.23A22.27,22.27,0,0,1,214,169.83q10.71,0,17,7.81t6.34,20.49A28.88,28.88,0,0,1,233.71,212.56Z"/></svg>