<svg id="Layer_1" data-name="Layer 1" xmlns="http://www.w3.org/2000/svg" viewBox="0 0 879 374"><defs><style>.cls-1{fill:#153634;}.cls-2{fill:#efc329;}.cls-3{fill:#de6e26;}.cls-4{fill:#4dacb6;}.cls-5{fill:#bc2c26;}</style></defs><path class="cls-1" d="M362.47,192.06H343.11v33.33H332.19V143h27.28q13.92,0,21.42,6.34t7.5,18.45a22.2,22.2,0,0,1-4.16,13.41,24.85,24.85,0,0,1-11.57,8.55l19.35,35v.68H380.35Zm-19.36-8.89h16.7c5.39,0,9.69-1.4,12.87-4.19a14.2,14.2,0,0,0,4.79-11.23q0-7.65-4.56-11.74t-13.16-4.14H343.11Z"/><path class="cls-1" d="M424.49,226.52q-12.45,0-20.27-8.17t-7.81-21.88v-1.92a36.72,36.72,0,0,1,3.49-16.27,27.11,27.11,0,0,1,9.73-11.21,24.46,24.46,0,0,1,13.55-4q11.94,0,18.57,7.87t6.62,22.53v4.35H406.88q.24,9.06,5.3,14.63A16.61,16.61,0,0,0,425.05,218a18.25,18.25,0,0,0,9.4-2.27,23.48,23.48,0,0,0,6.73-6l6.4,5Q439.89,226.53,424.49,226.52Zm-1.31-54.89a14,14,0,0,0-10.64,4.61q-4.29,4.6-5.32,12.93H437.9v-.79q-.45-8-4.3-12.37A13.17,13.17,0,0,0,423.18,171.63Z"/><path class="cls-1" d="M493.24,209.15a7.7,7.7,0,0,0-3.2-6.59q-3.19-2.35-11.15-4.05a52.34,52.34,0,0,1-12.62-4.08,17.9,17.9,0,0,1-6.9-5.66,13.52,13.52,0,0,1-2.24-7.81q0-7.52,6.37-12.73T479.77,163q10.41,0,16.89,5.38a17.07,17.07,0,0,1,6.48,13.75H492.62a9.46,9.46,0,0,0-3.65-7.41,13.67,13.67,0,0,0-9.2-3.11q-5.72,0-8.94,2.49a7.84,7.84,0,0,0-3.23,6.5,6.35,6.35,0,0,0,3,5.72q3,1.92,10.84,3.68a56.56,56.56,0,0,1,12.7,4.19,18.53,18.53,0,0,1,7.22,5.85,14.4,14.4,0,0,1,2.35,8.35,15.67,15.67,0,0,1-6.57,13.16q-6.56,5-17,5a30.76,30.76,0,0,1-13-2.6,21.22,21.22,0,0,1-8.86-7.27A17.56,17.56,0,0,1,455,206.54h10.47a10.84,10.84,0,0,0,4.21,8.35q3.94,3.09,10.39,3.09,5.94,0,9.53-2.41A7.38,7.38,0,0,0,493.24,209.15Z"/><path class="cls-1" d="M511.68,194.21A36.28,36.28,0,0,1,515.21,178a26.43,26.43,0,0,1,9.85-11.09A26.77,26.77,0,0,1,539.47,163q12.49,0,20.23,8.66t7.72,23v.73A36.56,36.56,0,0,1,564,211.5a26,26,0,0,1-9.79,11.06,27.13,27.13,0,0,1-14.63,4q-12.45,0-20.18-8.66t-7.72-22.92Zm10.53,1.24q0,10.19,4.72,16.36a16,16,0,0,0,25.33-.09q4.69-6.24,4.7-17.51,0-10.08-4.79-16.33a15.19,15.19,0,0,0-12.7-6.25A15,15,0,0,0,527,177.79Q522.2,184,522.21,195.45Z"/><path class="cls-1" d="M615.46,219.34q-6.11,7.18-17.94,7.18-9.78,0-14.91-5.68T577.43,204V164.15H587.9v39.57q0,13.92,11.32,13.92,12,0,16-8.94V164.15h10.47v61.24h-10Z"/><path class="cls-1" d="M668.26,173.55a31.85,31.85,0,0,0-5.15-.4q-10.3,0-14,8.78v43.46H638.66V164.15h10.18l.17,7.08q5.16-8.21,14.61-8.21a10.68,10.68,0,0,1,4.64.8Z"/><path class="cls-1" d="M698.47,218a15.07,15.07,0,0,0,9.79-3.4,11.93,11.93,0,0,0,4.64-8.49h9.9a19,19,0,0,1-3.62,10,23.77,23.77,0,0,1-8.91,7.58,25.69,25.69,0,0,1-11.8,2.83q-12.51,0-19.9-8.34t-7.38-22.84v-1.76a36.83,36.83,0,0,1,3.28-15.9,25.06,25.06,0,0,1,9.42-10.81A26.85,26.85,0,0,1,698.41,163q10.3,0,17.12,6.17a22,22,0,0,1,7.27,16h-9.9a14.39,14.39,0,0,0-4.5-9.76,14,14,0,0,0-10-3.82q-8,0-12.37,5.74T681.66,194v2q0,10.59,4.36,16.3T698.47,218Z"/><path class="cls-1" d="M757.09,226.52q-12.45,0-20.26-8.17T729,196.47v-1.92a36.72,36.72,0,0,1,3.48-16.27,27.11,27.11,0,0,1,9.73-11.21,24.47,24.47,0,0,1,13.56-4q11.94,0,18.56,7.87T781,193.42v4.35H739.49q.22,9.06,5.29,14.63A16.64,16.64,0,0,0,757.66,218a18.24,18.24,0,0,0,9.39-2.27,23.51,23.51,0,0,0,6.74-6l6.39,5Q772.48,226.53,757.09,226.52Zm-1.3-54.89a13.93,13.93,0,0,0-10.64,4.61q-4.3,4.6-5.32,12.93H770.5v-.79q-.45-8-4.3-12.37A13.17,13.17,0,0,0,755.79,171.63Z"/><path class="cls-1" d="M825.84,209.15a7.68,7.68,0,0,0-3.2-6.59q-3.2-2.35-11.14-4.05a52.43,52.43,0,0,1-12.63-4.08,17.9,17.9,0,0,1-6.9-5.66,13.52,13.52,0,0,1-2.24-7.81q0-7.52,6.37-12.73T812.37,163q10.41,0,16.9,5.38a17.07,17.07,0,0,1,6.48,13.75H825.22a9.46,9.46,0,0,0-3.65-7.41,13.67,13.67,0,0,0-9.2-3.11q-5.72,0-8.94,2.49a7.84,7.84,0,0,0-3.23,6.5,6.35,6.35,0,0,0,3,5.72q3,1.92,10.84,3.68a56.66,56.66,0,0,1,12.71,4.19,18.49,18.49,0,0,1,7.21,5.85,14.4,14.4,0,0,1,2.35,8.35,15.69,15.69,0,0,1-6.56,13.16q-6.57,5-17,5a30.74,30.74,0,0,1-13-2.6,21.1,21.1,0,0,1-8.86-7.27,17.57,17.57,0,0,1-3.2-10.11h10.47a10.82,10.82,0,0,0,4.22,8.35q3.93,3.09,10.38,3.09,5.94,0,9.54-2.41A7.39,7.39,0,0,0,825.84,209.15Z"/><circle class="cls-2" cx="93.29" cy="296.49" r="37.4"/><circle class="cls-3" cx="94.81" cy="72.36" r="37.4"/><circle class="cls-2" cx="205.54" cy="45.16" r="26.95"/><circle class="cls-3" cx="205.54" cy="324.05" r="26.95"/><circle class="cls-4" cx="58.51" cy="184.61" r="26.95"/><circle class="cls-5" cx="300.36" cy="279.68" r="16.67"/><path class="cls-1" d="M207.42,184.43a10.92,10.92,0,0,0-6.34,1.76,11.18,11.18,0,0,0-3.79,4.3v5.71q0,15.63,10.81,15.62a8.79,8.79,0,0,0,7.28-3.9,15.93,15.93,0,0,0,2.91-9.79,15.64,15.64,0,0,0-3-9.88A9.52,9.52,0,0,0,207.42,184.43Z"/><path class="cls-1" d="M274.15,156.59a7.57,7.57,0,0,0-7.16,4.07q-2.24,4.08-2.41,12.34v21.05q0,9.22,2.33,13.5a7.76,7.76,0,0,0,7.35,4.27,7.67,7.67,0,0,0,7.19-4.16q2.32-4.16,2.38-13V174.24q0-8.88-2.32-13.27A7.76,7.76,0,0,0,274.15,156.59Z"/><path class="cls-1" d="M137.87,176.23q10.69,0,10.69-10.47A9.1,9.1,0,0,0,146,159.1a9.7,9.7,0,0,0-7.19-2.57,10.32,10.32,0,0,0-6.59,2.21,6.73,6.73,0,0,0-2.81,5.49H113.11a94.86,94.86,0,0,0-2.2,20.36,96,96,0,0,0,1.69,17.9h15.65a8.58,8.58,0,0,0,3.05,6.56,10.79,10.79,0,0,0,7.53,2.77,11.3,11.3,0,0,0,8-2.8,9.35,9.35,0,0,0,3-7.16q0-6.23-3.12-8.83t-8.6-2.6h-9.28v-14.2Z"/><path class="cls-1" d="M274.26,226.54q-13.75,0-21.28-9.11t-7.52-25.7v-15q0-16.69,7.5-25.75t21.19-9.06q12,0,19.26,7a94.77,94.77,0,0,0-175.27-.64,27,27,0,0,1,5.89-3.56,34.43,34.43,0,0,1,14.12-2.86q13.75,0,21.62,6.29t7.87,17.26a17.38,17.38,0,0,1-3.26,10,23.11,23.11,0,0,1-9.48,7.67,22.15,22.15,0,0,1,10.3,7.22,19,19,0,0,1,3.74,12,21.27,21.27,0,0,1-8.49,17.66q-8.49,6.62-22.3,6.62a36.52,36.52,0,0,1-15-3.09,27.21,27.21,0,0,1-5.17-3,94.77,94.77,0,0,0,175.93-1.32Q286.58,226.53,274.26,226.54Zm-40.55-14a26.37,26.37,0,0,1-10.36,10.27,29.74,29.74,0,0,1-14.74,3.71,30.78,30.78,0,0,1-15.68-4,27.48,27.48,0,0,1-10.75-11.4,37.62,37.62,0,0,1-4-17.1v-7.64a47.56,47.56,0,0,1,5.46-22.89,39.63,39.63,0,0,1,15.59-15.93,44.61,44.61,0,0,1,22.47-5.78h2.89v15h-.85q-10.69,0-17.57,5.13a21.55,21.55,0,0,0-8.46,14.23A22.27,22.27,0,0,1,214,169.83q10.71,0,17,7.81t6.34,20.49A28.88,28.88,0,0,1,233.71,212.56Z"/></svg>