<svg id="Layer_1" data-name="Layer 1" xmlns="http://www.w3.org/2000/svg" viewBox="0 0 761 374"><defs><style>.cls-1{fill:#fff;}</style></defs><path class="cls-1" d="M362.47,192.06H343.11v33.33H332.19V143h27.28q13.92,0,21.42,6.34t7.5,18.45a22.2,22.2,0,0,1-4.16,13.41,24.85,24.85,0,0,1-11.57,8.55l19.35,35v.68H380.35Zm-19.36-8.89h16.7c5.39,0,9.69-1.4,12.87-4.19a14.2,14.2,0,0,0,4.79-11.23q0-7.65-4.56-11.74t-13.16-4.14H343.11Z"/><path class="cls-1" d="M424.49,226.52q-12.45,0-20.27-8.17t-7.81-21.88v-1.92a36.72,36.72,0,0,1,3.49-16.27,27.11,27.11,0,0,1,9.73-11.21,24.46,24.46,0,0,1,13.55-4q11.94,0,18.57,7.87t6.62,22.53v4.35H406.88q.24,9.06,5.3,14.63A16.61,16.61,0,0,0,425.05,218a18.25,18.25,0,0,0,9.4-2.27,23.48,23.48,0,0,0,6.73-6l6.4,5Q439.89,226.53,424.49,226.52Zm-1.31-54.89a14,14,0,0,0-10.64,4.61q-4.29,4.6-5.32,12.93H437.9v-.79q-.45-8-4.3-12.37A13.17,13.17,0,0,0,423.18,171.63Z"/><path class="cls-1" d="M455.09,194.26q0-14.31,6.62-22.78A21.2,21.2,0,0,1,479.26,163q11.21,0,17.49,7.93l.51-6.8h9.56v59.77q0,11.88-7,18.73t-18.94,6.85a31.47,31.47,0,0,1-13-2.83,22.32,22.32,0,0,1-9.67-7.75l5.43-6.28q6.74,8.31,16.47,8.32,7.63,0,11.91-4.31t4.27-12.11v-5.26q-6.27,7.25-17.14,7.24a20.92,20.92,0,0,1-17.41-8.66Q455.1,209.21,455.09,194.26Zm10.53,1.19q0,10.37,4.25,16.27a13.78,13.78,0,0,0,11.88,5.92q9.9,0,14.54-9v-28q-4.8-8.77-14.43-8.77a13.92,13.92,0,0,0-11.94,5.94Q465.62,183.79,465.62,195.45Z"/><path class="cls-1" d="M519.77,147.91a6.23,6.23,0,0,1,1.56-4.3,5.83,5.83,0,0,1,4.61-1.75,5.93,5.93,0,0,1,4.64,1.75,6.17,6.17,0,0,1,1.59,4.3,6.49,6.49,0,0,1-10.84,4.25A6.06,6.06,0,0,1,519.77,147.91Zm11.32,77.48H520.62V164.15h10.47Z"/><path class="cls-1" d="M580.6,209.15a7.7,7.7,0,0,0-3.2-6.59q-3.2-2.35-11.15-4.05a52.49,52.49,0,0,1-12.62-4.08,17.9,17.9,0,0,1-6.9-5.66,13.52,13.52,0,0,1-2.24-7.81q0-7.52,6.37-12.73T567.13,163q10.41,0,16.89,5.38a17.07,17.07,0,0,1,6.48,13.75H580a9.46,9.46,0,0,0-3.65-7.41,13.67,13.67,0,0,0-9.2-3.11q-5.71,0-8.94,2.49a7.84,7.84,0,0,0-3.23,6.5,6.35,6.35,0,0,0,3,5.72q3,1.92,10.84,3.68a56.66,56.66,0,0,1,12.71,4.19,18.49,18.49,0,0,1,7.21,5.85,14.4,14.4,0,0,1,2.35,8.35,15.69,15.69,0,0,1-6.56,13.16q-6.57,5-17,5a30.79,30.79,0,0,1-13-2.6,21.13,21.13,0,0,1-8.85-7.27,17.49,17.49,0,0,1-3.2-10.11h10.47a10.84,10.84,0,0,0,4.21,8.35Q561,218,567.47,218q5.94,0,9.54-2.41A7.39,7.39,0,0,0,580.6,209.15Z"/><path class="cls-1" d="M616,149.33v14.82h11.43v8.1H616v38a8.5,8.5,0,0,0,1.53,5.53c1,1.22,2.75,1.84,5.2,1.84a25.52,25.52,0,0,0,5-.68v8.44a30.46,30.46,0,0,1-8,1.12q-7,0-10.59-4.24t-3.56-12.06v-38H594.4v-8.1h11.15V149.33Z"/><path class="cls-1" d="M666.38,173.55a31.85,31.85,0,0,0-5.15-.4q-10.31,0-14,8.78v43.46H636.78V164.15H647l.17,7.08q5.16-8.21,14.61-8.21a10.68,10.68,0,0,1,4.64.8Z"/><path class="cls-1" d="M694.15,210.05l14.27-45.9h11.2L695,234.84q-5.71,15.28-18.16,15.28l-2-.17-3.91-.73v-8.49l2.83.23q5.33,0,8.29-2.16t4.9-7.86l2.32-6.23-21.85-60.56h11.43Z"/><circle class="cls-1" cx="93.29" cy="296.49" r="37.4"/><circle class="cls-1" cx="94.81" cy="72.36" r="37.4"/><circle class="cls-1" cx="205.54" cy="45.16" r="26.95"/><circle class="cls-1" cx="205.54" cy="324.05" r="26.95"/><circle class="cls-1" cx="58.51" cy="184.61" r="26.95"/><circle class="cls-1" cx="300.36" cy="279.68" r="16.67"/><path class="cls-1" d="M207.42,184.43a10.92,10.92,0,0,0-6.34,1.76,11.18,11.18,0,0,0-3.79,4.3v5.71q0,15.63,10.81,15.62a8.79,8.79,0,0,0,7.28-3.9,15.93,15.93,0,0,0,2.91-9.79,15.64,15.64,0,0,0-3-9.88A9.52,9.52,0,0,0,207.42,184.43Z"/><path class="cls-1" d="M274.15,156.59a7.57,7.57,0,0,0-7.16,4.07q-2.24,4.08-2.41,12.34v21.05q0,9.22,2.33,13.5a7.76,7.76,0,0,0,7.35,4.27,7.67,7.67,0,0,0,7.19-4.16q2.32-4.16,2.38-13V174.24q0-8.88-2.32-13.27A7.76,7.76,0,0,0,274.15,156.59Z"/><path class="cls-1" d="M137.87,176.23q10.69,0,10.69-10.47A9.1,9.1,0,0,0,146,159.1a9.7,9.7,0,0,0-7.19-2.57,10.32,10.32,0,0,0-6.59,2.21,6.73,6.73,0,0,0-2.81,5.49H113.11a94.86,94.86,0,0,0-2.2,20.36,96,96,0,0,0,1.69,17.9h15.65a8.58,8.58,0,0,0,3.05,6.56,10.79,10.79,0,0,0,7.53,2.77,11.3,11.3,0,0,0,8-2.8,9.35,9.35,0,0,0,3-7.16q0-6.23-3.12-8.83t-8.6-2.6h-9.28v-14.2Z"/><path class="cls-1" d="M274.26,226.54q-13.75,0-21.28-9.11t-7.52-25.7v-15q0-16.69,7.5-25.75t21.19-9.06q12,0,19.26,7a94.77,94.77,0,0,0-175.27-.64,27,27,0,0,1,5.89-3.56,34.43,34.43,0,0,1,14.12-2.86q13.75,0,21.62,6.29t7.87,17.26a17.38,17.38,0,0,1-3.26,10,23.11,23.11,0,0,1-9.48,7.67,22.15,22.15,0,0,1,10.3,7.22,19,19,0,0,1,3.74,12,21.27,21.27,0,0,1-8.49,17.66q-8.49,6.62-22.3,6.62a36.52,36.52,0,0,1-15-3.09,27.21,27.21,0,0,1-5.17-3,94.77,94.77,0,0,0,175.93-1.32Q286.58,226.53,274.26,226.54Zm-40.55-14a26.37,26.37,0,0,1-10.36,10.27,29.74,29.74,0,0,1-14.74,3.71,30.78,30.78,0,0,1-15.68-4,27.48,27.48,0,0,1-10.75-11.4,37.62,37.62,0,0,1-4-17.1v-7.64a47.56,47.56,0,0,1,5.46-22.89,39.63,39.63,0,0,1,15.59-15.93,44.61,44.61,0,0,1,22.47-5.78h2.89v15h-.85q-10.69,0-17.57,5.13a21.55,21.55,0,0,0-8.46,14.23A22.27,22.27,0,0,1,214,169.83q10.71,0,17,7.81t6.34,20.49A28.88,28.88,0,0,1,233.71,212.56Z"/></svg>