<svg xmlns="http://www.w3.org/2000/svg" width="135.114" height="37.835" viewBox="0 0 135.114 37.835"><defs><style>.a{fill:#153634;}</style></defs><path class="a" d="M12.784-20.03h2.64a8.791,8.791,0,0,0,5.538-1.462A5.117,5.117,0,0,0,22.8-25.75a5.247,5.247,0,0,0-1.54-4.167,7.215,7.215,0,0,0-4.826-1.346H12.784Zm18.115-6q0,6.107-3.817,9.342T16.226-13.457H12.784V0H4.762V-37.835H16.847q6.884,0,10.468,2.963T30.9-26.034ZM69.433-19.28q0,9.342-5.318,14.311T48.756,0H38.042V-37.835H49.92q9.265,0,14.389,4.891T69.433-19.28Zm-8.333.207q0-12.189-10.766-12.189h-4.27V-6.625h3.442Q61.1-6.625,61.1-19.073Zm47.565-.207q0,9.342-5.318,14.311T87.988,0H77.274V-37.835H89.153q9.265,0,14.389,4.891T108.666-19.28Zm-8.333.207q0-12.189-10.766-12.189H85.3V-6.625h3.442Q100.333-6.625,100.333-19.073ZM116.507,0V-37.835h8.022v31.21h15.346V0Z" transform="translate(-4.762 37.835)"/></svg>