<?xml version="1.0" encoding="utf-8"?>
<!-- Generator: Adobe Illustrator 18.0.0, SVG Export Plug-In . SVG Version: 6.00 Build 0)  -->
<!DOCTYPE svg PUBLIC "-//W3C//DTD SVG 1.1//EN" "http://www.w3.org/Graphics/SVG/1.1/DTD/svg11.dtd">
<svg version="1.1" id="Layer_1" xmlns="http://www.w3.org/2000/svg" xmlns:xlink="http://www.w3.org/1999/xlink" x="0px" y="0px"
	 viewBox="0 0 483.2 195.7" enable-background="new 0 0 483.2 195.7" xml:space="preserve">
<polygon fill="#0B0C0C" points="421.5,142.8 421.5,0.1 370.8,32.4 370.8,193.5 483.2,193.5 483.2,142.8 "/>
<path fill="#0B0C0C" d="M299.2,133.2c-8.3,7.3-19.2,11.7-31.1,11.7c-26,0-47.1-21.1-47.1-47.1s21.1-47.1,47.1-47.1
	c16.7,0,31.4,8.7,39.7,21.8l42.7-27.2C333.2,18.1,302.7,0,268.1,0c-36.5,0-68.3,20.1-85.1,49.7C166.2,20.1,134.3,0,97.8,0
	C43.9,0,0,43.9,0,97.8s43.9,97.8,97.8,97.8c36.5,0,68.3-20.1,85.1-49.7c16.8,29.7,48.7,49.7,85.1,49.7c24.7,0,47.3-9.2,64.5-24.3
	l19.4,22.2h3v-87.8h-80L299.2,133.2z M97.8,145c-26,0-47.1-21.1-47.1-47.1s21.1-47.1,47.1-47.1S145,71.8,145,97.8
	S123.8,145,97.8,145"/>
</svg>
