<svg id="Layer_1" data-name="Layer 1" xmlns="http://www.w3.org/2000/svg" viewBox="0 0 846 374"><defs><style>.cls-1{fill:#fff;}</style></defs><path class="cls-1" d="M392.86,199.24q-1.53,13.08-9.65,20.18t-21.59,7.1q-14.61,0-23.4-10.47t-8.8-28v-7.93a46.89,46.89,0,0,1,4.1-20.2,30.58,30.58,0,0,1,11.63-13.38,32.33,32.33,0,0,1,17.43-4.67q13.13,0,21.05,7.33t9.23,20.28H381.94q-1.43-9.87-6.14-14.3t-13.22-4.43q-10.41,0-16.33,7.71t-5.91,21.92v8q0,13.43,5.6,21.36t15.68,7.93q9.06,0,13.89-4.11t6.43-14.29Z"/><path class="cls-1" d="M413.62,171.57A22.26,22.26,0,0,1,431.73,163q19.41,0,19.58,21.91v40.46H440.84V184.87q-.06-6.63-3-9.79t-9.25-3.17a15.11,15.11,0,0,0-8.94,2.71,18.42,18.42,0,0,0-6,7.14v43.63H403.15V138.46h10.47Z"/><path class="cls-1" d="M501.9,225.39a21.6,21.6,0,0,1-1.47-6.45A23.35,23.35,0,0,1,483,226.52q-9.06,0-14.86-5.12a16.55,16.55,0,0,1-5.8-13q0-9.56,7.27-14.85t20.46-5.3h10.19v-4.81a11.75,11.75,0,0,0-3.29-8.74q-3.27-3.26-9.67-3.25a15.26,15.26,0,0,0-9.4,2.83,8.32,8.32,0,0,0-3.79,6.84H463.58a14.45,14.45,0,0,1,3.26-8.85,22.19,22.19,0,0,1,8.83-6.77A29.68,29.68,0,0,1,487.92,163q10.57,0,16.58,5.29t6.23,14.58v28.18q0,8.44,2.15,13.42v.9Zm-17.38-8a18.36,18.36,0,0,0,9.34-2.55,15.37,15.37,0,0,0,6.4-6.62V195.68h-8.21q-19.24,0-19.24,11.26a9.54,9.54,0,0,0,3.28,7.7A12.61,12.61,0,0,0,484.52,217.41Z"/><path class="cls-1" d="M535.62,225.39H525.15V138.46h10.47Z"/><path class="cls-1" d="M560.85,225.39H550.38V138.46h10.47Z"/><path class="cls-1" d="M600.12,226.52q-12.47,0-20.27-8.17T572,196.47v-1.92a36.72,36.72,0,0,1,3.48-16.27,27.14,27.14,0,0,1,9.74-11.21,24.46,24.46,0,0,1,13.55-4q11.94,0,18.57,7.87T624,193.42v4.35H582.51q.22,9.06,5.29,14.63A16.64,16.64,0,0,0,600.68,218a18.25,18.25,0,0,0,9.4-2.27,23.48,23.48,0,0,0,6.73-6l6.4,5Q615.5,226.53,600.12,226.52Zm-1.31-54.89a14,14,0,0,0-10.64,4.61q-4.3,4.6-5.32,12.93h30.68v-.79q-.45-8-4.3-12.37A13.17,13.17,0,0,0,598.81,171.63Z"/><path class="cls-1" d="M643.12,164.15l.34,7.7A22.32,22.32,0,0,1,661.79,163q19.41,0,19.59,21.91v40.46H670.9V184.87q0-6.63-3-9.79t-9.26-3.17a15.13,15.13,0,0,0-8.94,2.71,18.59,18.59,0,0,0-6,7.14v43.63H633.21V164.15Z"/><path class="cls-1" d="M691.78,194.26q0-14.31,6.62-22.78A21.17,21.17,0,0,1,715.94,163q11.2,0,17.49,7.93l.51-6.8h9.57v59.77q0,11.88-7,18.73t-18.93,6.85a31.4,31.4,0,0,1-13-2.83,22.35,22.35,0,0,1-9.68-7.75l5.43-6.28q6.73,8.31,16.47,8.32,7.65,0,11.92-4.31T733,224.54v-5.26q-6.29,7.25-17.15,7.24a20.89,20.89,0,0,1-17.4-8.66Q691.77,209.21,691.78,194.26Zm10.52,1.19q0,10.37,4.25,16.27a13.78,13.78,0,0,0,11.88,5.92q9.92,0,14.55-9v-28q-4.82-8.77-14.43-8.77a13.9,13.9,0,0,0-11.94,5.94Q702.31,183.79,702.3,195.45Z"/><path class="cls-1" d="M781.81,226.52q-12.45,0-20.26-8.17t-7.81-21.88v-1.92a36.72,36.72,0,0,1,3.48-16.27A27.11,27.11,0,0,1,767,167.07a24.47,24.47,0,0,1,13.56-4q11.94,0,18.56,7.87t6.62,22.53v4.35H764.21q.22,9.06,5.29,14.63A16.64,16.64,0,0,0,782.38,218a18.22,18.22,0,0,0,9.39-2.27,23.51,23.51,0,0,0,6.74-6l6.39,5Q797.21,226.53,781.81,226.52Zm-1.3-54.89a13.94,13.94,0,0,0-10.64,4.61q-4.3,4.6-5.32,12.93h30.67v-.79q-.45-8-4.3-12.37A13.15,13.15,0,0,0,780.51,171.63Z"/><circle class="cls-1" cx="93.29" cy="296.49" r="37.4"/><circle class="cls-1" cx="94.81" cy="72.36" r="37.4"/><circle class="cls-1" cx="205.54" cy="45.16" r="26.95"/><circle class="cls-1" cx="205.54" cy="324.05" r="26.95"/><circle class="cls-1" cx="58.51" cy="184.61" r="26.95"/><circle class="cls-1" cx="300.36" cy="279.68" r="16.67"/><path class="cls-1" d="M207.42,184.43a10.92,10.92,0,0,0-6.34,1.76,11.18,11.18,0,0,0-3.79,4.3v5.71q0,15.63,10.81,15.62a8.79,8.79,0,0,0,7.28-3.9,15.93,15.93,0,0,0,2.91-9.79,15.64,15.64,0,0,0-3-9.88A9.52,9.52,0,0,0,207.42,184.43Z"/><path class="cls-1" d="M274.15,156.59a7.57,7.57,0,0,0-7.16,4.07q-2.24,4.08-2.41,12.34v21.05q0,9.22,2.33,13.5a7.76,7.76,0,0,0,7.35,4.27,7.67,7.67,0,0,0,7.19-4.16q2.32-4.16,2.38-13V174.24q0-8.88-2.32-13.27A7.76,7.76,0,0,0,274.15,156.59Z"/><path class="cls-1" d="M137.87,176.23q10.69,0,10.69-10.47A9.1,9.1,0,0,0,146,159.1a9.7,9.7,0,0,0-7.19-2.57,10.32,10.32,0,0,0-6.59,2.21,6.73,6.73,0,0,0-2.81,5.49H113.11a94.86,94.86,0,0,0-2.2,20.36,96,96,0,0,0,1.69,17.9h15.65a8.58,8.58,0,0,0,3.05,6.56,10.79,10.79,0,0,0,7.53,2.77,11.3,11.3,0,0,0,8-2.8,9.35,9.35,0,0,0,3-7.16q0-6.23-3.12-8.83t-8.6-2.6h-9.28v-14.2Z"/><path class="cls-1" d="M274.26,226.54q-13.75,0-21.28-9.11t-7.52-25.7v-15q0-16.69,7.5-25.75t21.19-9.06q12,0,19.26,7a94.77,94.77,0,0,0-175.27-.64,27,27,0,0,1,5.89-3.56,34.43,34.43,0,0,1,14.12-2.86q13.75,0,21.62,6.29t7.87,17.26a17.38,17.38,0,0,1-3.26,10,23.11,23.11,0,0,1-9.48,7.67,22.15,22.15,0,0,1,10.3,7.22,19,19,0,0,1,3.74,12,21.27,21.27,0,0,1-8.49,17.66q-8.49,6.62-22.3,6.62a36.52,36.52,0,0,1-15-3.09,27.21,27.21,0,0,1-5.17-3,94.77,94.77,0,0,0,175.93-1.32Q286.58,226.53,274.26,226.54Zm-40.55-14a26.37,26.37,0,0,1-10.36,10.27,29.74,29.74,0,0,1-14.74,3.71,30.78,30.78,0,0,1-15.68-4,27.48,27.48,0,0,1-10.75-11.4,37.62,37.62,0,0,1-4-17.1v-7.64a47.56,47.56,0,0,1,5.46-22.89,39.63,39.63,0,0,1,15.59-15.93,44.61,44.61,0,0,1,22.47-5.78h2.89v15h-.85q-10.69,0-17.57,5.13a21.55,21.55,0,0,0-8.46,14.23A22.27,22.27,0,0,1,214,169.83q10.71,0,17,7.81t6.34,20.49A28.88,28.88,0,0,1,233.71,212.56Z"/></svg>