<svg xmlns="http://www.w3.org/2000/svg" xmlns:xlink="http://www.w3.org/1999/xlink" width="374" height="143" viewBox="0 0 374 143"><defs><clipPath id="b"><rect width="374" height="143"/></clipPath></defs><g id="a" clip-path="url(#b)"><rect width="374" height="143" fill="transparent"/><g transform="translate(0 -0.516)"><circle cx="16.256" cy="16.256" r="16.256" transform="translate(10.578 103.565)" fill="#efc329"/><circle cx="16.256" cy="16.256" r="16.256" transform="translate(11.24 7.282)" fill="#de6e26"/><circle cx="11.714" cy="11.714" r="11.714" transform="translate(63.359)" fill="#efc329"/><circle cx="11.714" cy="11.714" r="11.714" transform="translate(63.359 120.087)" fill="#de6e26"/><circle cx="11.714" cy="11.714" r="11.714" transform="translate(0 60.043)" fill="#4dacb6"/><circle cx="7.247" cy="7.247" r="7.247" transform="translate(108.683 105.477)" fill="#bc2c26"/><g transform="translate(34.492 30.567)"><path d="M790.7,537.432a4.745,4.745,0,0,0-2.756.762,4.84,4.84,0,0,0-1.648,1.87v2.485q0,6.79,4.7,6.79a3.813,3.813,0,0,0,3.162-1.7,6.92,6.92,0,0,0,1.267-4.256,6.79,6.79,0,0,0-1.292-4.293A4.131,4.131,0,0,0,790.7,537.432Z" transform="translate(-748.742 -496.318)" fill="#153634"/><path d="M711.628,518.092q4.65,0,4.649-4.552a3.935,3.935,0,0,0-1.107-2.891,4.2,4.2,0,0,0-3.125-1.119,4.5,4.5,0,0,0-2.867.959,2.927,2.927,0,0,0-1.217,2.387h-7.1a41.426,41.426,0,0,0-.22,16.631h6.8a3.731,3.731,0,0,0,1.328,2.854,4.688,4.688,0,0,0,3.272,1.205,4.913,4.913,0,0,0,3.493-1.218,4.071,4.071,0,0,0,1.3-3.112,4.762,4.762,0,0,0-1.353-3.838,5.658,5.658,0,0,0-3.739-1.131h-4.035v-6.175Z" transform="translate(-699.909 -480.544)" fill="#153634"/><path d="M857.743,509.586a3.292,3.292,0,0,0-3.112,1.772,12.035,12.035,0,0,0-1.045,5.363v9.152a12.857,12.857,0,0,0,1.009,5.868,3.383,3.383,0,0,0,3.2,1.857,3.339,3.339,0,0,0,3.124-1.808,12.3,12.3,0,0,0,1.033-5.671v-8.856a12.782,12.782,0,0,0-1.008-5.769A3.373,3.373,0,0,0,857.743,509.586Z" transform="translate(-786.783 -480.576)" fill="#153634"/><path d="M774.9,502.268q-5.979,0-9.251-3.961t-3.272-11.169v-6.544q0-7.257,3.26-11.194t9.213-3.936a11.567,11.567,0,0,1,8.374,3.04,41.2,41.2,0,0,0-76.189-.277,11.488,11.488,0,0,1,2.558-1.545,14.94,14.94,0,0,1,6.138-1.242q5.978,0,9.4,2.731a9.08,9.08,0,0,1,3.42,7.5,7.567,7.567,0,0,1-1.415,4.367,10.076,10.076,0,0,1-4.121,3.333,9.629,9.629,0,0,1,4.478,3.137,8.26,8.26,0,0,1,1.624,5.2,9.244,9.244,0,0,1-3.69,7.676q-3.691,2.879-9.693,2.879a15.888,15.888,0,0,1-6.532-1.341,12,12,0,0,1-2.251-1.3,41.2,41.2,0,0,0,76.48-.574A11.46,11.46,0,0,1,774.9,502.268Zm-17.628-6.077a11.5,11.5,0,0,1-4.5,4.465,12.932,12.932,0,0,1-6.409,1.611,13.368,13.368,0,0,1-6.814-1.734,11.914,11.914,0,0,1-4.674-4.957,16.317,16.317,0,0,1-1.723-7.43v-3.321a20.668,20.668,0,0,1,2.375-9.951,17.209,17.209,0,0,1,6.777-6.926,19.375,19.375,0,0,1,9.767-2.51h1.255v6.52h-.369a12.45,12.45,0,0,0-7.639,2.227,9.4,9.4,0,0,0-3.678,6.188,9.7,9.7,0,0,1,7.086-2.756,9.044,9.044,0,0,1,7.405,3.4,13.7,13.7,0,0,1,2.755,8.906A12.538,12.538,0,0,1,757.268,496.191Z" transform="translate(-703.886 -442.85)" fill="#153634"/></g><path d="M17.506-14.667H8.99V0H4.184V-36.258h12q6.126,0,9.426,2.789t3.3,8.118a9.761,9.761,0,0,1-1.83,5.9,10.926,10.926,0,0,1-5.093,3.76L30.505-.3V0h-5.13ZM8.99-18.577h7.346A8.3,8.3,0,0,0,22-20.42a6.226,6.226,0,0,0,2.1-4.931,6.556,6.556,0,0,0-2-5.155,8.5,8.5,0,0,0-5.79-1.818H8.99ZM46.069.5a11.773,11.773,0,0,1-8.915-3.6q-3.437-3.6-3.437-9.625v-.847a16.169,16.169,0,0,1,1.531-7.159,11.947,11.947,0,0,1,4.283-4.931A10.769,10.769,0,0,1,45.5-27.442a10.091,10.091,0,0,1,8.168,3.461q2.914,3.461,2.914,9.911v1.917H38.325a9.578,9.578,0,0,0,2.328,6.437,7.319,7.319,0,0,0,5.665,2.453,8.024,8.024,0,0,0,4.134-1A10.387,10.387,0,0,0,53.416-6.9l2.814,2.191Q52.843.5,46.069.5ZM45.5-23.657a6.145,6.145,0,0,0-4.682,2.03,9.865,9.865,0,0,0-2.341,5.69h13.5v-.349a8.775,8.775,0,0,0-1.893-5.441A5.785,5.785,0,0,0,45.5-23.657ZM77.6-7.147a3.392,3.392,0,0,0-1.407-2.9,13.543,13.543,0,0,0-4.906-1.781,23.194,23.194,0,0,1-5.553-1.793,7.9,7.9,0,0,1-3.038-2.49,5.957,5.957,0,0,1-.984-3.437,6.989,6.989,0,0,1,2.8-5.6,10.941,10.941,0,0,1,7.159-2.291A11.258,11.258,0,0,1,79.1-25.077a7.514,7.514,0,0,1,2.851,6.051H77.322a4.159,4.159,0,0,0-1.606-3.262,6.018,6.018,0,0,0-4.047-1.37,6.3,6.3,0,0,0-3.935,1.1A3.449,3.449,0,0,0,66.315-19.7a2.8,2.8,0,0,0,1.32,2.515A16.239,16.239,0,0,0,72.4-15.564a24.848,24.848,0,0,1,5.591,1.843,8.155,8.155,0,0,1,3.175,2.577A6.337,6.337,0,0,1,82.2-7.471a6.9,6.9,0,0,1-2.889,5.79A12.117,12.117,0,0,1,71.818.5,13.568,13.568,0,0,1,66.091-.647a9.315,9.315,0,0,1-3.9-3.2,7.713,7.713,0,0,1-1.407-4.445h4.607a4.77,4.77,0,0,0,1.855,3.673,7.2,7.2,0,0,0,4.57,1.357,7.429,7.429,0,0,0,4.2-1.058A3.252,3.252,0,0,0,77.6-7.147Zm9.388-6.574a15.915,15.915,0,0,1,1.556-7.122,11.611,11.611,0,0,1,4.333-4.881,11.8,11.8,0,0,1,6.338-1.718,11.363,11.363,0,0,1,8.9,3.81q3.4,3.81,3.4,10.135v.324a16.053,16.053,0,0,1-1.507,7.06A11.44,11.44,0,0,1,105.7-1.245,11.931,11.931,0,0,1,99.261.5a11.335,11.335,0,0,1-8.878-3.81q-3.4-3.81-3.4-10.085Zm4.632.548a11.527,11.527,0,0,0,2.079,7.2,6.655,6.655,0,0,0,5.566,2.714,6.614,6.614,0,0,0,5.578-2.752q2.067-2.752,2.067-7.707a11.507,11.507,0,0,0-2.1-7.184,6.69,6.69,0,0,0-5.591-2.752,6.615,6.615,0,0,0-5.5,2.714Q91.616-18.229,91.616-13.173ZM133.925-2.665Q131.235.5,126.031.5q-4.308,0-6.562-2.5T117.19-9.413V-26.944H121.8V-9.538q0,6.126,4.98,6.126,5.279,0,7.022-3.935v-19.6h4.607V0h-4.383Zm24.5-20.146a13.805,13.805,0,0,0-2.266-.174q-4.532,0-6.151,3.86V0H145.4V-26.944h4.482l.075,3.113a7.174,7.174,0,0,1,6.425-3.611,4.706,4.706,0,0,1,2.042.349ZM173-3.262A6.636,6.636,0,0,0,177.3-4.756a5.257,5.257,0,0,0,2.042-3.735H183.7a8.354,8.354,0,0,1-1.594,4.408,10.5,10.5,0,0,1-3.922,3.337A11.317,11.317,0,0,1,173,.5a11.1,11.1,0,0,1-8.753-3.673q-3.25-3.673-3.25-10.048V-14a16.222,16.222,0,0,1,1.444-7,11,11,0,0,1,4.146-4.756,11.778,11.778,0,0,1,6.387-1.693,10.806,10.806,0,0,1,7.533,2.714,9.7,9.7,0,0,1,3.2,7.047h-4.358a6.349,6.349,0,0,0-1.98-4.3,6.159,6.159,0,0,0-4.4-1.681,6.448,6.448,0,0,0-5.441,2.528q-1.93,2.528-1.93,7.309v.872q0,4.657,1.917,7.172A6.479,6.479,0,0,0,173-3.262ZM200.065.5a11.773,11.773,0,0,1-8.915-3.6q-3.437-3.6-3.437-9.625v-.847a16.169,16.169,0,0,1,1.531-7.159,11.947,11.947,0,0,1,4.283-4.931,10.769,10.769,0,0,1,5.964-1.781,10.091,10.091,0,0,1,8.168,3.461q2.914,3.461,2.914,9.911v1.917H192.321a9.578,9.578,0,0,0,2.328,6.437,7.319,7.319,0,0,0,5.665,2.453,8.024,8.024,0,0,0,4.134-1,10.387,10.387,0,0,0,2.963-2.64l2.814,2.191Q206.839.5,200.065.5Zm-.573-24.155a6.145,6.145,0,0,0-4.682,2.03,9.865,9.865,0,0,0-2.341,5.69h13.5v-.349a8.775,8.775,0,0,0-1.893-5.441A5.785,5.785,0,0,0,199.493-23.657Zm32.1,16.51a3.392,3.392,0,0,0-1.407-2.9,13.543,13.543,0,0,0-4.906-1.781,23.194,23.194,0,0,1-5.553-1.793,7.9,7.9,0,0,1-3.038-2.49,5.957,5.957,0,0,1-.984-3.437,6.989,6.989,0,0,1,2.8-5.6,10.941,10.941,0,0,1,7.159-2.291,11.258,11.258,0,0,1,7.433,2.366,7.514,7.514,0,0,1,2.851,6.051h-4.632a4.159,4.159,0,0,0-1.606-3.262,6.018,6.018,0,0,0-4.047-1.37,6.3,6.3,0,0,0-3.935,1.1,3.449,3.449,0,0,0-1.419,2.864,2.8,2.8,0,0,0,1.32,2.515,16.239,16.239,0,0,0,4.769,1.619,24.848,24.848,0,0,1,5.591,1.843,8.155,8.155,0,0,1,3.175,2.577A6.337,6.337,0,0,1,236.2-7.471a6.9,6.9,0,0,1-2.889,5.79A12.117,12.117,0,0,1,225.814.5a13.568,13.568,0,0,1-5.728-1.146,9.315,9.315,0,0,1-3.9-3.2,7.713,7.713,0,0,1-1.407-4.445h4.607a4.77,4.77,0,0,0,1.855,3.673,7.2,7.2,0,0,0,4.57,1.357,7.429,7.429,0,0,0,4.2-1.058A3.252,3.252,0,0,0,231.592-7.147Z" transform="translate(134 89.553)" fill="#153634"/></g></g></svg>