<svg xmlns="http://www.w3.org/2000/svg" xmlns:xlink="http://www.w3.org/1999/xlink" width="374" height="143" viewBox="0 0 374 143"><defs><clipPath id="b"><rect width="374" height="143"/></clipPath></defs><g id="a" clip-path="url(#b)"><rect width="374" height="143" fill="transparent"/><g transform="translate(0 -0.553)"><circle cx="16.256" cy="16.256" r="16.256" transform="translate(10.578 103.565)" fill="#efc329"/><circle cx="16.256" cy="16.256" r="16.256" transform="translate(11.24 7.282)" fill="#de6e26"/><circle cx="11.714" cy="11.714" r="11.714" transform="translate(63.359)" fill="#efc329"/><circle cx="11.714" cy="11.714" r="11.714" transform="translate(63.359 120.087)" fill="#de6e26"/><circle cx="11.714" cy="11.714" r="11.714" transform="translate(0 60.043)" fill="#4dacb6"/><circle cx="7.247" cy="7.247" r="7.247" transform="translate(108.683 105.477)" fill="#bc2c26"/><g transform="translate(34.492 30.567)"><path d="M790.7,537.432a4.745,4.745,0,0,0-2.756.762,4.84,4.84,0,0,0-1.648,1.87v2.485q0,6.79,4.7,6.79a3.813,3.813,0,0,0,3.162-1.7,6.92,6.92,0,0,0,1.267-4.256,6.79,6.79,0,0,0-1.292-4.293A4.131,4.131,0,0,0,790.7,537.432Z" transform="translate(-748.742 -496.318)" fill="#153634"/><path d="M711.628,518.092q4.65,0,4.649-4.552a3.935,3.935,0,0,0-1.107-2.891,4.2,4.2,0,0,0-3.125-1.119,4.5,4.5,0,0,0-2.867.959,2.927,2.927,0,0,0-1.217,2.387h-7.1a41.426,41.426,0,0,0-.22,16.631h6.8a3.731,3.731,0,0,0,1.328,2.854,4.688,4.688,0,0,0,3.272,1.205,4.913,4.913,0,0,0,3.493-1.218,4.071,4.071,0,0,0,1.3-3.112,4.762,4.762,0,0,0-1.353-3.838,5.658,5.658,0,0,0-3.739-1.131h-4.035v-6.175Z" transform="translate(-699.909 -480.544)" fill="#153634"/><path d="M857.743,509.586a3.292,3.292,0,0,0-3.112,1.772,12.035,12.035,0,0,0-1.045,5.363v9.152a12.857,12.857,0,0,0,1.009,5.868,3.383,3.383,0,0,0,3.2,1.857,3.339,3.339,0,0,0,3.124-1.808,12.3,12.3,0,0,0,1.033-5.671v-8.856a12.782,12.782,0,0,0-1.008-5.769A3.373,3.373,0,0,0,857.743,509.586Z" transform="translate(-786.783 -480.576)" fill="#153634"/><path d="M774.9,502.268q-5.979,0-9.251-3.961t-3.272-11.169v-6.544q0-7.257,3.26-11.194t9.213-3.936a11.567,11.567,0,0,1,8.374,3.04,41.2,41.2,0,0,0-76.189-.277,11.488,11.488,0,0,1,2.558-1.545,14.94,14.94,0,0,1,6.138-1.242q5.978,0,9.4,2.731a9.08,9.08,0,0,1,3.42,7.5,7.567,7.567,0,0,1-1.415,4.367,10.076,10.076,0,0,1-4.121,3.333,9.629,9.629,0,0,1,4.478,3.137,8.26,8.26,0,0,1,1.624,5.2,9.244,9.244,0,0,1-3.69,7.676q-3.691,2.879-9.693,2.879a15.888,15.888,0,0,1-6.532-1.341,12,12,0,0,1-2.251-1.3,41.2,41.2,0,0,0,76.48-.574A11.46,11.46,0,0,1,774.9,502.268Zm-17.628-6.077a11.5,11.5,0,0,1-4.5,4.465,12.932,12.932,0,0,1-6.409,1.611,13.368,13.368,0,0,1-6.814-1.734,11.914,11.914,0,0,1-4.674-4.957,16.317,16.317,0,0,1-1.723-7.43v-3.321a20.668,20.668,0,0,1,2.375-9.951,17.209,17.209,0,0,1,6.777-6.926,19.375,19.375,0,0,1,9.767-2.51h1.255v6.52h-.369a12.45,12.45,0,0,0-7.639,2.227,9.4,9.4,0,0,0-3.678,6.188,9.7,9.7,0,0,1,7.086-2.756,9.044,9.044,0,0,1,7.405,3.4,13.7,13.7,0,0,1,2.755,8.906A12.538,12.538,0,0,1,757.268,496.191Z" transform="translate(-703.886 -442.85)" fill="#153634"/></g><path d="M9.338,0H4.557V-36.258H9.338ZM21.715-26.944l.149,3.387a9.819,9.819,0,0,1,8.068-3.885q8.542,0,8.616,9.637V0H33.942V-17.83a6.2,6.2,0,0,0-1.332-4.308,5.339,5.339,0,0,0-4.072-1.395,6.649,6.649,0,0,0-3.935,1.2,8.117,8.117,0,0,0-2.64,3.138V0H17.357V-26.944Zm39.47,19.8a3.392,3.392,0,0,0-1.407-2.9,13.543,13.543,0,0,0-4.906-1.781,23.194,23.194,0,0,1-5.553-1.793,7.9,7.9,0,0,1-3.038-2.49,5.957,5.957,0,0,1-.984-3.437,6.989,6.989,0,0,1,2.8-5.6,10.941,10.941,0,0,1,7.159-2.291,11.258,11.258,0,0,1,7.433,2.366,7.514,7.514,0,0,1,2.851,6.051H60.911A4.159,4.159,0,0,0,59.3-22.288a6.018,6.018,0,0,0-4.047-1.37,6.3,6.3,0,0,0-3.935,1.1A3.449,3.449,0,0,0,49.9-19.7a2.8,2.8,0,0,0,1.32,2.515,16.239,16.239,0,0,0,4.769,1.619,24.848,24.848,0,0,1,5.591,1.843,8.155,8.155,0,0,1,3.175,2.577,6.337,6.337,0,0,1,1.033,3.673A6.9,6.9,0,0,1,62.9-1.681,12.117,12.117,0,0,1,55.408.5,13.568,13.568,0,0,1,49.68-.647a9.315,9.315,0,0,1-3.9-3.2,7.713,7.713,0,0,1-1.407-4.445h4.607a4.77,4.77,0,0,0,1.855,3.673,7.2,7.2,0,0,0,4.57,1.357,7.429,7.429,0,0,0,4.2-1.058A3.252,3.252,0,0,0,61.185-7.147ZM76.8,0H72.192V-26.944H76.8Zm-4.98-34.091a2.75,2.75,0,0,1,.685-1.893,2.571,2.571,0,0,1,2.03-.772,2.611,2.611,0,0,1,2.042.772,2.721,2.721,0,0,1,.7,1.893,2.631,2.631,0,0,1-.7,1.868,2.658,2.658,0,0,1-2.042.747,2.617,2.617,0,0,1-2.03-.747A2.659,2.659,0,0,1,71.818-34.091ZM83.074-13.7q0-6.3,2.914-10.023a9.318,9.318,0,0,1,7.72-3.723,9.269,9.269,0,0,1,7.695,3.486l.224-2.988h4.208v26.3a10.961,10.961,0,0,1-3.1,8.243,11.441,11.441,0,0,1-8.33,3.013,13.858,13.858,0,0,1-5.7-1.245,9.816,9.816,0,0,1-4.258-3.412l2.391-2.764a9.009,9.009,0,0,0,7.247,3.661,7.059,7.059,0,0,0,5.242-1.893A7.234,7.234,0,0,0,101.2-.374V-2.689A9.469,9.469,0,0,1,93.658.5,9.2,9.2,0,0,1,86-3.312Q83.074-7.122,83.074-13.7Zm4.632.523a12.081,12.081,0,0,0,1.868,7.159,6.069,6.069,0,0,0,5.229,2.6,6.748,6.748,0,0,0,6.4-3.959v-12.3a6.827,6.827,0,0,0-6.35-3.86A6.123,6.123,0,0,0,89.6-20.918Q87.706-18.3,87.706-13.173ZM117.39-23.682a9.8,9.8,0,0,1,7.969-3.76q8.542,0,8.616,9.637V0h-4.607V-17.83a6.2,6.2,0,0,0-1.332-4.308,5.339,5.339,0,0,0-4.072-1.395,6.649,6.649,0,0,0-3.935,1.2,8.117,8.117,0,0,0-2.64,3.138V0h-4.607V-38.25h4.607Zm29.733-9.787v6.524h5.03v3.561h-5.03V-6.674a3.732,3.732,0,0,0,.672,2.428,2.832,2.832,0,0,0,2.291.809,11.154,11.154,0,0,0,2.191-.3V0a13.356,13.356,0,0,1-3.536.5,5.737,5.737,0,0,1-4.657-1.868,8.024,8.024,0,0,1-1.569-5.3V-23.383H137.61v-3.561h4.906v-6.524Zm26.1,26.322a3.392,3.392,0,0,0-1.407-2.9,13.543,13.543,0,0,0-4.906-1.781,23.194,23.194,0,0,1-5.553-1.793,7.9,7.9,0,0,1-3.038-2.49,5.957,5.957,0,0,1-.984-3.437,6.989,6.989,0,0,1,2.8-5.6,10.941,10.941,0,0,1,7.159-2.291,11.258,11.258,0,0,1,7.433,2.366,7.514,7.514,0,0,1,2.851,6.051h-4.632a4.159,4.159,0,0,0-1.606-3.262,6.018,6.018,0,0,0-4.047-1.37,6.3,6.3,0,0,0-3.935,1.1A3.449,3.449,0,0,0,161.94-19.7a2.8,2.8,0,0,0,1.32,2.515,16.239,16.239,0,0,0,4.769,1.619,24.848,24.848,0,0,1,5.591,1.843,8.155,8.155,0,0,1,3.175,2.577,6.337,6.337,0,0,1,1.033,3.673,6.9,6.9,0,0,1-2.889,5.79A12.117,12.117,0,0,1,167.443.5a13.568,13.568,0,0,1-5.728-1.146,9.315,9.315,0,0,1-3.9-3.2,7.713,7.713,0,0,1-1.407-4.445h4.607a4.77,4.77,0,0,0,1.855,3.673,7.2,7.2,0,0,0,4.57,1.357,7.429,7.429,0,0,0,4.2-1.058A3.252,3.252,0,0,0,173.221-7.147Z" transform="translate(134 89.553)" fill="#153634"/></g></g></svg>