<svg xmlns="http://www.w3.org/2000/svg" xmlns:xlink="http://www.w3.org/1999/xlink" width="374" height="143" viewBox="0 0 374 143"><defs><clipPath id="b"><rect width="374" height="143"/></clipPath></defs><g id="a" clip-path="url(#b)"><rect width="374" height="143" fill="transparent"/><g transform="translate(0 -0.553)"><circle cx="16.256" cy="16.256" r="16.256" transform="translate(10.578 103.565)" fill="#efc329"/><circle cx="16.256" cy="16.256" r="16.256" transform="translate(11.24 7.282)" fill="#de6e26"/><circle cx="11.714" cy="11.714" r="11.714" transform="translate(63.359)" fill="#efc329"/><circle cx="11.714" cy="11.714" r="11.714" transform="translate(63.359 120.087)" fill="#de6e26"/><circle cx="11.714" cy="11.714" r="11.714" transform="translate(0 60.043)" fill="#4dacb6"/><circle cx="7.247" cy="7.247" r="7.247" transform="translate(108.683 105.477)" fill="#bc2c26"/><g transform="translate(34.492 30.567)"><path d="M790.7,537.432a4.745,4.745,0,0,0-2.756.762,4.84,4.84,0,0,0-1.648,1.87v2.485q0,6.79,4.7,6.79a3.813,3.813,0,0,0,3.162-1.7,6.92,6.92,0,0,0,1.267-4.256,6.79,6.79,0,0,0-1.292-4.293A4.131,4.131,0,0,0,790.7,537.432Z" transform="translate(-748.742 -496.318)" fill="#153634"/><path d="M711.628,518.092q4.65,0,4.649-4.552a3.935,3.935,0,0,0-1.107-2.891,4.2,4.2,0,0,0-3.125-1.119,4.5,4.5,0,0,0-2.867.959,2.927,2.927,0,0,0-1.217,2.387h-7.1a41.426,41.426,0,0,0-.22,16.631h6.8a3.731,3.731,0,0,0,1.328,2.854,4.688,4.688,0,0,0,3.272,1.205,4.913,4.913,0,0,0,3.493-1.218,4.071,4.071,0,0,0,1.3-3.112,4.762,4.762,0,0,0-1.353-3.838,5.658,5.658,0,0,0-3.739-1.131h-4.035v-6.175Z" transform="translate(-699.909 -480.544)" fill="#153634"/><path d="M857.743,509.586a3.292,3.292,0,0,0-3.112,1.772,12.035,12.035,0,0,0-1.045,5.363v9.152a12.857,12.857,0,0,0,1.009,5.868,3.383,3.383,0,0,0,3.2,1.857,3.339,3.339,0,0,0,3.124-1.808,12.3,12.3,0,0,0,1.033-5.671v-8.856a12.782,12.782,0,0,0-1.008-5.769A3.373,3.373,0,0,0,857.743,509.586Z" transform="translate(-786.783 -480.576)" fill="#153634"/><path d="M774.9,502.268q-5.979,0-9.251-3.961t-3.272-11.169v-6.544q0-7.257,3.26-11.194t9.213-3.936a11.567,11.567,0,0,1,8.374,3.04,41.2,41.2,0,0,0-76.189-.277,11.488,11.488,0,0,1,2.558-1.545,14.94,14.94,0,0,1,6.138-1.242q5.978,0,9.4,2.731a9.08,9.08,0,0,1,3.42,7.5,7.567,7.567,0,0,1-1.415,4.367,10.076,10.076,0,0,1-4.121,3.333,9.629,9.629,0,0,1,4.478,3.137,8.26,8.26,0,0,1,1.624,5.2,9.244,9.244,0,0,1-3.69,7.676q-3.691,2.879-9.693,2.879a15.888,15.888,0,0,1-6.532-1.341,12,12,0,0,1-2.251-1.3,41.2,41.2,0,0,0,76.48-.574A11.46,11.46,0,0,1,774.9,502.268Zm-17.628-6.077a11.5,11.5,0,0,1-4.5,4.465,12.932,12.932,0,0,1-6.409,1.611,13.368,13.368,0,0,1-6.814-1.734,11.914,11.914,0,0,1-4.674-4.957,16.317,16.317,0,0,1-1.723-7.43v-3.321a20.668,20.668,0,0,1,2.375-9.951,17.209,17.209,0,0,1,6.777-6.926,19.375,19.375,0,0,1,9.767-2.51h1.255v6.52h-.369a12.45,12.45,0,0,0-7.639,2.227,9.4,9.4,0,0,0-3.678,6.188,9.7,9.7,0,0,1,7.086-2.756,9.044,9.044,0,0,1,7.405,3.4,13.7,13.7,0,0,1,2.755,8.906A12.538,12.538,0,0,1,757.268,496.191Z" transform="translate(-703.886 -442.85)" fill="#153634"/></g><path d="M30.879-11.5a13.34,13.34,0,0,1-4.246,8.878Q23.06.5,17.133.5a12.777,12.777,0,0,1-10.3-4.607Q2.963-8.716,2.963-16.436v-3.486a20.658,20.658,0,0,1,1.805-8.89A13.486,13.486,0,0,1,9.886-34.7a14.249,14.249,0,0,1,7.67-2.054,13.1,13.1,0,0,1,9.264,3.225A13.5,13.5,0,0,1,30.879-24.6H26.073q-.623-4.333-2.7-6.275a8.19,8.19,0,0,0-5.815-1.942,8.557,8.557,0,0,0-7.184,3.387q-2.6,3.387-2.6,9.637v3.511q0,5.9,2.465,9.388a7.968,7.968,0,0,0,6.9,3.486,9.2,9.2,0,0,0,6.114-1.805q2.129-1.805,2.826-6.288ZM41.288-23.682a9.8,9.8,0,0,1,7.969-3.76q8.542,0,8.616,9.637V0H53.266V-17.83a6.2,6.2,0,0,0-1.332-4.308,5.339,5.339,0,0,0-4.072-1.395,6.649,6.649,0,0,0-3.935,1.2,8.117,8.117,0,0,0-2.64,3.138V0H36.681V-38.25h4.607ZM81.406,0a9.678,9.678,0,0,1-.647-2.839A10.279,10.279,0,0,1,73.088.5a9.511,9.511,0,0,1-6.537-2.254A7.291,7.291,0,0,1,64-7.471a7.617,7.617,0,0,1,3.2-6.537q3.2-2.328,9-2.328h4.482v-2.117A5.174,5.174,0,0,0,79.239-22.3a5.8,5.8,0,0,0-4.258-1.432,6.718,6.718,0,0,0-4.134,1.245,3.669,3.669,0,0,0-1.668,3.013H64.547a6.358,6.358,0,0,1,1.432-3.9,9.773,9.773,0,0,1,3.885-2.976,13.069,13.069,0,0,1,5.391-1.1,10.652,10.652,0,0,1,7.3,2.328A8.4,8.4,0,0,1,85.291-18.7V-6.3a15.162,15.162,0,0,0,.946,5.9V0ZM73.761-3.511A8.1,8.1,0,0,0,77.87-4.632a6.778,6.778,0,0,0,2.814-2.914v-5.528H77.073q-8.467,0-8.467,4.956A4.194,4.194,0,0,0,70.05-4.731,5.551,5.551,0,0,0,73.761-3.511ZM97.518,0H92.911V-38.25h4.607Zm12.376,0h-4.607V-38.25h4.607Zm18.552.5a11.773,11.773,0,0,1-8.915-3.6q-3.437-3.6-3.437-9.625v-.847a16.169,16.169,0,0,1,1.531-7.159,11.947,11.947,0,0,1,4.283-4.931,10.769,10.769,0,0,1,5.964-1.781,10.091,10.091,0,0,1,8.168,3.461q2.914,3.461,2.914,9.911v1.917H120.7a9.578,9.578,0,0,0,2.328,6.437A7.319,7.319,0,0,0,128.7-3.262a8.024,8.024,0,0,0,4.134-1,10.387,10.387,0,0,0,2.963-2.64l2.814,2.191Q135.22.5,128.446.5Zm-.573-24.155a6.145,6.145,0,0,0-4.682,2.03,9.865,9.865,0,0,0-2.341,5.69h13.5v-.349a8.775,8.775,0,0,0-1.893-5.441A5.785,5.785,0,0,0,127.874-23.657Zm20.769-3.287.149,3.387a9.819,9.819,0,0,1,8.068-3.885q8.542,0,8.616,9.637V0h-4.607V-17.83a6.2,6.2,0,0,0-1.332-4.308,5.339,5.339,0,0,0-4.072-1.395,6.649,6.649,0,0,0-3.935,1.2,8.117,8.117,0,0,0-2.64,3.138V0h-4.607V-26.944ZM171.328-13.7q0-6.3,2.914-10.023a9.318,9.318,0,0,1,7.72-3.723,9.269,9.269,0,0,1,7.695,3.486l.224-2.988h4.208v26.3a10.961,10.961,0,0,1-3.1,8.243,11.441,11.441,0,0,1-8.33,3.013,13.858,13.858,0,0,1-5.7-1.245A9.816,9.816,0,0,1,172.7,5.952l2.391-2.764a9.009,9.009,0,0,0,7.247,3.661,7.059,7.059,0,0,0,5.242-1.893,7.234,7.234,0,0,0,1.88-5.329V-2.689A9.469,9.469,0,0,1,181.912.5a9.2,9.2,0,0,1-7.657-3.81Q171.328-7.122,171.328-13.7Zm4.632.523a12.081,12.081,0,0,0,1.868,7.159,6.069,6.069,0,0,0,5.229,2.6,6.748,6.748,0,0,0,6.4-3.959v-12.3a6.827,6.827,0,0,0-6.35-3.86,6.123,6.123,0,0,0-5.254,2.615Q175.96-18.3,175.96-13.173ZM212.218.5A11.773,11.773,0,0,1,203.3-3.1q-3.437-3.6-3.437-9.625v-.847a16.169,16.169,0,0,1,1.531-7.159,11.947,11.947,0,0,1,4.283-4.931,10.769,10.769,0,0,1,5.964-1.781,10.091,10.091,0,0,1,8.168,3.461q2.914,3.461,2.914,9.911v1.917H204.473A9.578,9.578,0,0,0,206.8-5.715a7.319,7.319,0,0,0,5.665,2.453,8.024,8.024,0,0,0,4.134-1,10.387,10.387,0,0,0,2.963-2.64l2.814,2.191Q218.991.5,212.218.5Zm-.573-24.155a6.145,6.145,0,0,0-4.682,2.03,9.865,9.865,0,0,0-2.341,5.69h13.5v-.349a8.775,8.775,0,0,0-1.893-5.441A5.785,5.785,0,0,0,211.645-23.657Z" transform="translate(134 89.553)" fill="#153634"/></g></g></svg>