<svg xmlns="http://www.w3.org/2000/svg" xmlns:xlink="http://www.w3.org/1999/xlink" width="374" height="143" viewBox="0 0 374 143"><defs><clipPath id="b"><rect width="374" height="143"/></clipPath></defs><g id="a" clip-path="url(#b)"><rect width="374" height="143" fill="transparent"/><g transform="translate(0 -0.553)"><circle cx="16.256" cy="16.256" r="16.256" transform="translate(10.578 103.565)" fill="#efc329"/><circle cx="16.256" cy="16.256" r="16.256" transform="translate(11.24 7.282)" fill="#de6e26"/><circle cx="11.714" cy="11.714" r="11.714" transform="translate(63.359)" fill="#efc329"/><circle cx="11.714" cy="11.714" r="11.714" transform="translate(63.359 120.087)" fill="#de6e26"/><circle cx="11.714" cy="11.714" r="11.714" transform="translate(0 60.043)" fill="#4dacb6"/><circle cx="7.247" cy="7.247" r="7.247" transform="translate(108.683 105.477)" fill="#bc2c26"/><g transform="translate(34.492 30.567)"><path d="M790.7,537.432a4.745,4.745,0,0,0-2.756.762,4.84,4.84,0,0,0-1.648,1.87v2.485q0,6.79,4.7,6.79a3.813,3.813,0,0,0,3.162-1.7,6.92,6.92,0,0,0,1.267-4.256,6.79,6.79,0,0,0-1.292-4.293A4.131,4.131,0,0,0,790.7,537.432Z" transform="translate(-748.742 -496.318)" fill="#153634"/><path d="M711.628,518.092q4.65,0,4.649-4.552a3.935,3.935,0,0,0-1.107-2.891,4.2,4.2,0,0,0-3.125-1.119,4.5,4.5,0,0,0-2.867.959,2.927,2.927,0,0,0-1.217,2.387h-7.1a41.426,41.426,0,0,0-.22,16.631h6.8a3.731,3.731,0,0,0,1.328,2.854,4.688,4.688,0,0,0,3.272,1.205,4.913,4.913,0,0,0,3.493-1.218,4.071,4.071,0,0,0,1.3-3.112,4.762,4.762,0,0,0-1.353-3.838,5.658,5.658,0,0,0-3.739-1.131h-4.035v-6.175Z" transform="translate(-699.909 -480.544)" fill="#153634"/><path d="M857.743,509.586a3.292,3.292,0,0,0-3.112,1.772,12.035,12.035,0,0,0-1.045,5.363v9.152a12.857,12.857,0,0,0,1.009,5.868,3.383,3.383,0,0,0,3.2,1.857,3.339,3.339,0,0,0,3.124-1.808,12.3,12.3,0,0,0,1.033-5.671v-8.856a12.782,12.782,0,0,0-1.008-5.769A3.373,3.373,0,0,0,857.743,509.586Z" transform="translate(-786.783 -480.576)" fill="#153634"/><path d="M774.9,502.268q-5.979,0-9.251-3.961t-3.272-11.169v-6.544q0-7.257,3.26-11.194t9.213-3.936a11.567,11.567,0,0,1,8.374,3.04,41.2,41.2,0,0,0-76.189-.277,11.488,11.488,0,0,1,2.558-1.545,14.94,14.94,0,0,1,6.138-1.242q5.978,0,9.4,2.731a9.08,9.08,0,0,1,3.42,7.5,7.567,7.567,0,0,1-1.415,4.367,10.076,10.076,0,0,1-4.121,3.333,9.629,9.629,0,0,1,4.478,3.137,8.26,8.26,0,0,1,1.624,5.2,9.244,9.244,0,0,1-3.69,7.676q-3.691,2.879-9.693,2.879a15.888,15.888,0,0,1-6.532-1.341,12,12,0,0,1-2.251-1.3,41.2,41.2,0,0,0,76.48-.574A11.46,11.46,0,0,1,774.9,502.268Zm-17.628-6.077a11.5,11.5,0,0,1-4.5,4.465,12.932,12.932,0,0,1-6.409,1.611,13.368,13.368,0,0,1-6.814-1.734,11.914,11.914,0,0,1-4.674-4.957,16.317,16.317,0,0,1-1.723-7.43v-3.321a20.668,20.668,0,0,1,2.375-9.951,17.209,17.209,0,0,1,6.777-6.926,19.375,19.375,0,0,1,9.767-2.51h1.255v6.52h-.369a12.45,12.45,0,0,0-7.639,2.227,9.4,9.4,0,0,0-3.678,6.188,9.7,9.7,0,0,1,7.086-2.756,9.044,9.044,0,0,1,7.405,3.4,13.7,13.7,0,0,1,2.755,8.906A12.538,12.538,0,0,1,757.268,496.191Z" transform="translate(-703.886 -442.85)" fill="#153634"/></g><path d="M30.979-4.756A11.045,11.045,0,0,1,25.836-.809,20.771,20.771,0,0,1,18.154.5a14.9,14.9,0,0,1-7.869-2.079A13.853,13.853,0,0,1,4.968-7.5a20.427,20.427,0,0,1-1.93-8.89v-3.163q0-8.193,3.823-12.7t10.745-4.507a13.758,13.758,0,0,1,9.139,2.9,12.638,12.638,0,0,1,4.233,8.23H26.2q-1.345-7.2-8.566-7.2a8.467,8.467,0,0,0-7.284,3.374q-2.478,3.374-2.5,9.774v2.963q0,6.1,2.789,9.7a9.043,9.043,0,0,0,7.545,3.6,16.63,16.63,0,0,0,4.707-.6,7.274,7.274,0,0,0,3.337-2.017v-8.143H17.83v-3.885H30.979ZM51.249-22.811a13.805,13.805,0,0,0-2.266-.174q-4.532,0-6.151,3.86V0H38.225V-26.944h4.482l.075,3.113a7.174,7.174,0,0,1,6.425-3.611,4.706,4.706,0,0,1,2.042.349ZM71.121,0a9.678,9.678,0,0,1-.647-2.839A10.279,10.279,0,0,1,62.8.5a9.511,9.511,0,0,1-6.537-2.254,7.291,7.291,0,0,1-2.552-5.715,7.617,7.617,0,0,1,3.2-6.537q3.2-2.328,9-2.328H70.4v-2.117A5.174,5.174,0,0,0,68.955-22.3,5.8,5.8,0,0,0,64.7-23.732a6.718,6.718,0,0,0-4.134,1.245,3.669,3.669,0,0,0-1.668,3.013H54.262a6.358,6.358,0,0,1,1.432-3.9,9.773,9.773,0,0,1,3.885-2.976,13.069,13.069,0,0,1,5.391-1.1,10.652,10.652,0,0,1,7.3,2.328A8.4,8.4,0,0,1,75.006-18.7V-6.3a15.162,15.162,0,0,0,.946,5.9V0ZM63.476-3.511a8.1,8.1,0,0,0,4.109-1.121A6.778,6.778,0,0,0,70.4-7.545v-5.528H66.788q-8.467,0-8.467,4.956a4.194,4.194,0,0,0,1.444,3.387A5.551,5.551,0,0,0,63.476-3.511ZM86.585-26.944l.149,3.387A9.819,9.819,0,0,1,94.8-27.442q8.542,0,8.616,9.637V0H98.813V-17.83a6.2,6.2,0,0,0-1.332-4.308,5.339,5.339,0,0,0-4.072-1.395,6.649,6.649,0,0,0-3.935,1.2,8.117,8.117,0,0,0-2.64,3.138V0H82.228V-26.944Zm30.032-6.524v6.524h5.03v3.561h-5.03V-6.674a3.732,3.732,0,0,0,.672,2.428,2.832,2.832,0,0,0,2.291.809,11.154,11.154,0,0,0,2.191-.3V0a13.356,13.356,0,0,1-3.536.5A5.737,5.737,0,0,1,113.58-1.37a8.024,8.024,0,0,1-1.569-5.3V-23.383H107.1v-3.561h4.906v-6.524ZM155.615,0h-4.806L132.555-27.94V0h-4.806V-36.258h4.806l18.3,28.065V-36.258h4.756Zm24.4,0a9.678,9.678,0,0,1-.647-2.839A10.279,10.279,0,0,1,171.7.5a9.511,9.511,0,0,1-6.537-2.254,7.291,7.291,0,0,1-2.552-5.715,7.617,7.617,0,0,1,3.2-6.537q3.2-2.328,9-2.328H179.3v-2.117a5.174,5.174,0,0,0-1.444-3.847,5.8,5.8,0,0,0-4.258-1.432,6.718,6.718,0,0,0-4.134,1.245,3.669,3.669,0,0,0-1.668,3.013H163.16a6.358,6.358,0,0,1,1.432-3.9,9.773,9.773,0,0,1,3.885-2.976,13.069,13.069,0,0,1,5.391-1.1,10.652,10.652,0,0,1,7.3,2.328A8.4,8.4,0,0,1,183.9-18.7V-6.3a15.162,15.162,0,0,0,.946,5.9V0Zm-7.645-3.511a8.1,8.1,0,0,0,4.109-1.121A6.778,6.778,0,0,0,179.3-7.545v-5.528h-3.611q-8.467,0-8.467,4.956a4.194,4.194,0,0,0,1.444,3.387A5.551,5.551,0,0,0,172.374-3.511ZM199.642-6.25l6.674-20.694h4.707L201.36,0h-3.511l-9.762-26.944h4.707Z" transform="translate(134 89.553)" fill="#153634"/></g></g></svg>