<svg xmlns="http://www.w3.org/2000/svg" xmlns:xlink="http://www.w3.org/1999/xlink" width="374" height="143" viewBox="0 0 374 143"><defs><clipPath id="b"><rect width="374" height="143"/></clipPath></defs><g id="a" clip-path="url(#b)"><rect width="374" height="143" fill="transparent"/><g transform="translate(0 -0.553)"><circle cx="16.256" cy="16.256" r="16.256" transform="translate(10.578 103.565)" fill="#efc329"/><circle cx="16.256" cy="16.256" r="16.256" transform="translate(11.24 7.282)" fill="#de6e26"/><circle cx="11.714" cy="11.714" r="11.714" transform="translate(63.359)" fill="#efc329"/><circle cx="11.714" cy="11.714" r="11.714" transform="translate(63.359 120.087)" fill="#de6e26"/><circle cx="11.714" cy="11.714" r="11.714" transform="translate(0 60.043)" fill="#4dacb6"/><circle cx="7.247" cy="7.247" r="7.247" transform="translate(108.683 105.477)" fill="#bc2c26"/><g transform="translate(34.492 30.567)"><path d="M790.7,537.432a4.745,4.745,0,0,0-2.756.762,4.84,4.84,0,0,0-1.648,1.87v2.485q0,6.79,4.7,6.79a3.813,3.813,0,0,0,3.162-1.7,6.92,6.92,0,0,0,1.267-4.256,6.79,6.79,0,0,0-1.292-4.293A4.131,4.131,0,0,0,790.7,537.432Z" transform="translate(-748.742 -496.318)" fill="#153634"/><path d="M711.628,518.092q4.65,0,4.649-4.552a3.935,3.935,0,0,0-1.107-2.891,4.2,4.2,0,0,0-3.125-1.119,4.5,4.5,0,0,0-2.867.959,2.927,2.927,0,0,0-1.217,2.387h-7.1a41.426,41.426,0,0,0-.22,16.631h6.8a3.731,3.731,0,0,0,1.328,2.854,4.688,4.688,0,0,0,3.272,1.205,4.913,4.913,0,0,0,3.493-1.218,4.071,4.071,0,0,0,1.3-3.112,4.762,4.762,0,0,0-1.353-3.838,5.658,5.658,0,0,0-3.739-1.131h-4.035v-6.175Z" transform="translate(-699.909 -480.544)" fill="#153634"/><path d="M857.743,509.586a3.292,3.292,0,0,0-3.112,1.772,12.035,12.035,0,0,0-1.045,5.363v9.152a12.857,12.857,0,0,0,1.009,5.868,3.383,3.383,0,0,0,3.2,1.857,3.339,3.339,0,0,0,3.124-1.808,12.3,12.3,0,0,0,1.033-5.671v-8.856a12.782,12.782,0,0,0-1.008-5.769A3.373,3.373,0,0,0,857.743,509.586Z" transform="translate(-786.783 -480.576)" fill="#153634"/><path d="M774.9,502.268q-5.979,0-9.251-3.961t-3.272-11.169v-6.544q0-7.257,3.26-11.194t9.213-3.936a11.567,11.567,0,0,1,8.374,3.04,41.2,41.2,0,0,0-76.189-.277,11.488,11.488,0,0,1,2.558-1.545,14.94,14.94,0,0,1,6.138-1.242q5.978,0,9.4,2.731a9.08,9.08,0,0,1,3.42,7.5,7.567,7.567,0,0,1-1.415,4.367,10.076,10.076,0,0,1-4.121,3.333,9.629,9.629,0,0,1,4.478,3.137,8.26,8.26,0,0,1,1.624,5.2,9.244,9.244,0,0,1-3.69,7.676q-3.691,2.879-9.693,2.879a15.888,15.888,0,0,1-6.532-1.341,12,12,0,0,1-2.251-1.3,41.2,41.2,0,0,0,76.48-.574A11.46,11.46,0,0,1,774.9,502.268Zm-17.628-6.077a11.5,11.5,0,0,1-4.5,4.465,12.932,12.932,0,0,1-6.409,1.611,13.368,13.368,0,0,1-6.814-1.734,11.914,11.914,0,0,1-4.674-4.957,16.317,16.317,0,0,1-1.723-7.43v-3.321a20.668,20.668,0,0,1,2.375-9.951,17.209,17.209,0,0,1,6.777-6.926,19.375,19.375,0,0,1,9.767-2.51h1.255v6.52h-.369a12.45,12.45,0,0,0-7.639,2.227,9.4,9.4,0,0,0-3.678,6.188,9.7,9.7,0,0,1,7.086-2.756,9.044,9.044,0,0,1,7.405,3.4,13.7,13.7,0,0,1,2.755,8.906A12.538,12.538,0,0,1,757.268,496.191Z" transform="translate(-703.886 -442.85)" fill="#153634"/></g><path d="M10.384-36.258,22.238-6.674,34.091-36.258h6.2V0H35.511V-14.12l.448-15.24L24.056,0H20.4L8.517-29.285,8.99-14.12V0H4.208V-36.258ZM64.646,0A9.678,9.678,0,0,1,64-2.839,10.279,10.279,0,0,1,56.329.5a9.511,9.511,0,0,1-6.537-2.254A7.291,7.291,0,0,1,47.24-7.471a7.617,7.617,0,0,1,3.2-6.537q3.2-2.328,9-2.328h4.482v-2.117A5.174,5.174,0,0,0,62.48-22.3a5.8,5.8,0,0,0-4.258-1.432,6.718,6.718,0,0,0-4.134,1.245,3.669,3.669,0,0,0-1.668,3.013H47.788a6.358,6.358,0,0,1,1.432-3.9A9.773,9.773,0,0,1,53.1-26.347a13.069,13.069,0,0,1,5.391-1.1,10.652,10.652,0,0,1,7.3,2.328A8.4,8.4,0,0,1,68.531-18.7V-6.3a15.162,15.162,0,0,0,.946,5.9V0ZM57-3.511A8.1,8.1,0,0,0,61.11-4.632a6.778,6.778,0,0,0,2.814-2.914v-5.528H60.313q-8.467,0-8.467,4.956a4.194,4.194,0,0,0,1.444,3.387A5.551,5.551,0,0,0,57-3.511Zm41.512-9.662q0,6.151-2.814,9.911A9.019,9.019,0,0,1,88.08.5a9.881,9.881,0,0,1-7.72-3.113V10.359H75.753v-37.3h4.208l.224,2.988A9.49,9.49,0,0,1,88-27.442a9.188,9.188,0,0,1,7.682,3.661q2.826,3.661,2.826,10.185ZM93.907-13.7a11.9,11.9,0,0,0-1.942-7.2,6.257,6.257,0,0,0-5.329-2.64,6.772,6.772,0,0,0-6.275,3.71V-6.948a6.785,6.785,0,0,0,6.325,3.686,6.228,6.228,0,0,0,5.267-2.627Q93.907-8.517,93.907-13.7Z" transform="translate(134 89.553)" fill="#153634"/></g></g></svg>