<svg id="Layer_1" data-name="Layer 1" xmlns="http://www.w3.org/2000/svg" viewBox="0 0 400 400"><defs><style>.cls-1{fill:#fff;}</style></defs><circle class="cls-1" cx="104.29" cy="306.99" r="37.4"/><circle class="cls-1" cx="105.81" cy="82.86" r="37.4"/><circle class="cls-1" cx="216.54" cy="55.66" r="26.95"/><circle class="cls-1" cx="216.54" cy="334.55" r="26.95"/><circle class="cls-1" cx="69.51" cy="195.11" r="26.95"/><circle class="cls-1" cx="311.36" cy="290.18" r="16.67"/><path class="cls-1" d="M218.42,194.93a10.92,10.92,0,0,0-6.34,1.76,11.18,11.18,0,0,0-3.79,4.3v5.71q0,15.63,10.81,15.62a8.79,8.79,0,0,0,7.28-3.9,15.93,15.93,0,0,0,2.91-9.79,15.64,15.64,0,0,0-3-9.88A9.52,9.52,0,0,0,218.42,194.93Z"/><path class="cls-1" d="M148.87,186.73q10.69,0,10.69-10.47A9.1,9.1,0,0,0,157,169.6a9.7,9.7,0,0,0-7.19-2.57,10.32,10.32,0,0,0-6.59,2.21,6.73,6.73,0,0,0-2.81,5.49H124.11a94.86,94.86,0,0,0-2.2,20.36A96,96,0,0,0,123.6,213h15.65a8.58,8.58,0,0,0,3.05,6.56,10.79,10.79,0,0,0,7.53,2.77,11.3,11.3,0,0,0,8-2.8,9.35,9.35,0,0,0,3-7.16q0-6.23-3.12-8.83t-8.6-2.6h-9.28v-14.2Z"/><path class="cls-1" d="M285.15,167.09a7.57,7.57,0,0,0-7.16,4.07q-2.24,4.08-2.41,12.34v21.05q0,9.22,2.33,13.5a7.76,7.76,0,0,0,7.35,4.27,7.67,7.67,0,0,0,7.19-4.16q2.32-4.16,2.38-13V184.74q0-8.88-2.32-13.27A7.76,7.76,0,0,0,285.15,167.09Z"/><path class="cls-1" d="M285.26,237q-13.75,0-21.28-9.11t-7.52-25.7v-15q0-16.69,7.5-25.75t21.19-9.06q12,0,19.26,7a94.77,94.77,0,0,0-175.27-.64,27,27,0,0,1,5.89-3.56,34.43,34.43,0,0,1,14.12-2.86q13.75,0,21.62,6.29t7.87,17.26a17.38,17.38,0,0,1-3.26,10,23.11,23.11,0,0,1-9.48,7.67,22.15,22.15,0,0,1,10.3,7.22,19,19,0,0,1,3.74,12,21.27,21.27,0,0,1-8.49,17.66Q163,237,149.15,237a36.52,36.52,0,0,1-15-3.09,27.21,27.21,0,0,1-5.17-3,94.77,94.77,0,0,0,175.93-1.32Q297.58,237,285.26,237Zm-40.55-14a26.37,26.37,0,0,1-10.36,10.27A29.74,29.74,0,0,1,219.61,237a30.78,30.78,0,0,1-15.68-4,27.48,27.48,0,0,1-10.75-11.4,37.62,37.62,0,0,1-4-17.1v-7.64A47.56,47.56,0,0,1,194.68,174a39.63,39.63,0,0,1,15.59-15.93,44.61,44.61,0,0,1,22.47-5.78h2.89v15h-.85q-10.69,0-17.57,5.13a21.55,21.55,0,0,0-8.46,14.23A22.27,22.27,0,0,1,225,180.33q10.71,0,17,7.81t6.34,20.49A28.88,28.88,0,0,1,244.71,223.06Z"/></svg>